<svg width="25" height="24" viewBox="0 0 25 24" fill="none" xmlns="http://www.w3.org/2000/svg">
<path d="M14.5 19C14.5 17.4087 13.8679 15.8826 12.7426 14.7574C11.6174 13.6321 10.0913 13 8.5 13C6.9087 13 5.38258 13.6321 4.25736 14.7574C3.13214 15.8826 2.5 17.4087 2.5 19" stroke="white" stroke-width="2" stroke-linecap="round" stroke-linejoin="round"/>
<path d="M8.5 13C10.7091 13 12.5 11.2091 12.5 9C12.5 6.79086 10.7091 5 8.5 5C6.29086 5 4.5 6.79086 4.5 9C4.5 11.2091 6.29086 13 8.5 13Z" stroke="white" stroke-width="2" stroke-linecap="round" stroke-linejoin="round"/>
<path d="M19.5 8V14M22.5 11H16.5" stroke="white" stroke-width="2" stroke-linecap="round" stroke-linejoin="round"/>
</svg>
