<svg width="64" height="64" viewBox="0 0 64 64" fill="none" xmlns="http://www.w3.org/2000/svg">
<g clip-path="url(#clip0_5282_69308)">
<rect width="64" height="64" rx="32" fill="#E8EBF6"/>
<path d="M16.7881 28.7693C15.899 29.0059 14.9548 28.919 14.1239 28.5241C13.293 28.1291 12.6294 27.4519 12.2514 26.6131C11.9243 25.7491 11.9161 24.7967 12.2284 23.9272C12.5406 23.0577 13.1528 22.328 13.9548 21.8695C13.3047 21.3822 12.8177 20.7091 12.5582 19.9391C12.2987 19.1691 12.279 18.3386 12.5016 17.5571C12.76 16.7827 13.2485 16.1057 13.902 15.6163C14.5554 15.127 15.3427 14.8488 16.1585 14.8188C16.0583 14.0179 16.1641 13.2046 16.466 12.4561C16.7678 11.7075 17.2557 11.0483 17.8834 10.5409C18.5181 10.0443 19.2689 9.71753 20.0649 9.59153C20.8609 9.46553 21.6759 9.54441 22.433 9.82073C23.1991 8.93298 24.2403 8.32715 25.3907 8.09973C26.5411 7.87231 27.7345 8.03639 28.7808 8.56582C29.5316 8.30222 30.3457 8.27849 31.1106 8.4979C31.8754 8.71731 32.5532 9.16903 33.05 9.79054C33.522 10.4313 33.7833 11.2027 33.798 11.9984C33.8127 12.794 33.58 13.5746 33.132 14.2323" fill="#263238"/>
<path d="M30.215 12.0411L29.3999 12.1834C25.4622 12.8856 21.933 15.0443 19.5143 18.2301C17.0956 21.4158 15.9647 25.3953 16.3464 29.3769C17.0838 37.0572 17.998 45.5354 18.7743 49.5847C20.3742 57.9766 29.0205 57.7782 29.0205 57.7782L29.3223 59.3996C29.5755 60.763 30.0957 62.0629 30.8531 63.2244C31.6105 64.386 32.5901 65.3863 33.7355 66.1679C34.881 66.9494 36.1697 67.4967 37.5275 67.7783C38.8852 68.0599 40.2853 68.0703 41.6471 67.8088C47.1842 66.7436 50.2718 61.8318 49.4482 56.2559L44.6442 27.6907C43.8421 18.8245 39.0554 10.9846 30.215 12.0411Z" fill="#FFBE9D"/>
<path d="M28.9448 57.792C32.8502 57.1032 36.4755 55.307 39.3894 52.6172C39.3894 52.6172 37.8758 59.1332 29.3502 59.8706L28.9448 57.792Z" fill="#FFA084"/>
<path d="M19.6872 36.9111C19.7403 37.2249 19.9138 37.5055 20.1708 37.6932C20.4277 37.8809 20.7479 37.9608 21.0629 37.9159C21.2169 37.9009 21.3664 37.8553 21.5026 37.7819C21.6389 37.7084 21.7591 37.6085 21.8562 37.4881C21.9534 37.3676 22.0256 37.229 22.0685 37.0803C22.1115 36.9317 22.1244 36.7759 22.1065 36.6222C22.0544 36.3085 21.882 36.0275 21.6259 35.839C21.3697 35.6505 21.0501 35.5695 20.7352 35.6131C20.5806 35.6281 20.4305 35.6738 20.2938 35.7475C20.157 35.8211 20.0363 35.9213 19.9388 36.0422C19.8412 36.163 19.7687 36.3021 19.7255 36.4513C19.6823 36.6005 19.6693 36.7568 19.6872 36.9111Z" fill="#263238"/>
<path d="M18.8848 33.1791C19.0616 33.3084 19.8551 32.4718 21.1445 32.2476C22.4339 32.0233 23.5034 32.4977 23.6155 32.3123C23.6715 32.2303 23.4689 31.9759 23.0031 31.7474C22.3742 31.4618 21.6728 31.376 20.9936 31.5015C20.3209 31.6174 19.7029 31.9453 19.2298 32.4373C18.8848 32.8125 18.8029 33.123 18.8848 33.1791Z" fill="#263238"/>
<path d="M30.8606 35.6497C30.9126 35.9631 31.0853 36.2437 31.3415 36.4315C31.5978 36.6193 31.9174 36.6993 32.232 36.6545C32.3861 36.6394 32.5358 36.5939 32.6722 36.5205C32.8087 36.4471 32.9291 36.3473 33.0266 36.2269C33.1241 36.1065 33.1967 35.968 33.2402 35.8193C33.2837 35.6706 33.2972 35.5147 33.2799 35.3608C33.2268 35.047 33.0533 34.7663 32.7963 34.5786C32.5394 34.3909 32.2192 34.311 31.9042 34.356C31.7502 34.371 31.6007 34.4166 31.4645 34.49C31.3283 34.5635 31.208 34.6633 31.1109 34.7838C31.0137 34.9043 30.9415 35.0429 30.8986 35.1915C30.8556 35.3402 30.8427 35.496 30.8606 35.6497Z" fill="#263238"/>
<path d="M31.651 31.1556C31.8279 31.285 32.6213 30.4484 33.9107 30.2242C35.2001 29.9999 36.2696 30.4743 36.3817 30.2888C36.4378 30.2069 36.2351 29.9525 35.7694 29.7239C35.1404 29.4384 34.439 29.3526 33.7598 29.4781C33.0863 29.5951 32.4672 29.9227 31.9917 30.4139C31.6511 30.7891 31.5519 31.0996 31.651 31.1556Z" fill="#263238"/>
<path d="M28.6517 41.5705C28.6517 41.4972 27.8151 41.5015 26.4956 41.5705C26.1592 41.5963 25.8358 41.5705 25.7409 41.3721C25.6508 41.0361 25.6674 40.6805 25.7883 40.3544C25.9565 39.4919 26.129 38.6036 26.3144 37.6678C27.0346 33.847 27.4874 30.7292 27.3365 30.7033C27.1855 30.6774 26.474 33.7478 25.7581 37.5686C25.5856 38.5087 25.4261 39.4057 25.2708 40.2638C25.1368 40.6988 25.1582 41.1668 25.3312 41.5877C25.4008 41.6951 25.4934 41.7856 25.6023 41.8527C25.7112 41.9198 25.8337 41.9619 25.9608 41.9758C26.1523 41.9924 26.3452 41.9837 26.5344 41.95C27.8453 41.7861 28.6561 41.6438 28.6517 41.5705Z" fill="#263238"/>
<path d="M29.6257 26.3861C29.8543 26.6836 30.8979 26.1317 32.2563 25.8427C33.6147 25.5538 34.8006 25.5797 34.8437 25.2174C34.8696 25.0449 34.5764 24.7862 34.0373 24.618C33.3477 24.4122 32.6164 24.3899 31.9156 24.5533C31.2188 24.6999 30.5741 25.0305 30.0484 25.5107C29.6646 25.8945 29.5222 26.2438 29.6257 26.3861Z" fill="#263238"/>
<path d="M17.8734 27.8591C18.1968 28.1006 19.2102 27.609 20.491 27.3631C21.7718 27.1173 22.893 27.1389 23.0784 26.7896C23.1647 26.6214 22.9404 26.3584 22.4143 26.1643C21.6976 25.9344 20.9328 25.8987 20.1978 26.0608C19.4624 26.198 18.7773 26.5301 18.2141 27.0225C17.8216 27.4063 17.7268 27.734 17.8734 27.8591Z" fill="#263238"/>
<path d="M16.4639 25.3727C16.4639 25.3727 17.7576 19.7106 20.0647 18.0417C22.8764 16.0063 24.8083 19.1413 27.5855 17.8002C30.3627 16.4591 33.0493 14.5099 36.4474 16.2434C40.1647 18.1366 38.94 20.1504 39.8068 23.8462C43.3257 38.8273 46.8489 42.6136 46.3659 35.3473C46.3141 34.5538 48.3668 33.5447 48.0908 30.1724C47.7459 25.8212 46.9826 20.5989 45.5034 17.7312C44.2442 15.3163 42.4848 13.8113 39.5092 12.3278C34.8303 9.98618 29.1595 10.9306 25.3646 12.0044C21.5697 13.0781 14.9416 18.8438 16.4639 25.3727Z" fill="#263238"/>
<path d="M45.7887 35.2102C45.7441 34.8996 45.763 34.5832 45.8442 34.2801C45.9254 33.977 46.0672 33.6935 46.2611 33.4468C46.455 33.2001 46.6969 32.9953 46.9723 32.8448C47.2476 32.6942 47.5506 32.6011 47.8629 32.5711C49.4585 32.4417 51.3603 33.0239 51.8346 36.284C52.6756 42.0626 46.6986 41.7176 46.6598 41.5494C46.621 41.3813 46.1207 37.6338 45.7887 35.2102Z" fill="#FFBE9D"/>
<path d="M47.6069 39.1967C47.6285 39.1709 47.719 39.2528 47.9001 39.3045C48.1546 39.3707 48.4247 39.3368 48.6548 39.2097C49.2327 38.8992 49.6079 37.8513 49.4828 36.8077C49.426 36.3096 49.258 35.8306 48.9912 35.4062C48.9121 35.2338 48.7922 35.0833 48.642 34.9676C48.4917 34.8519 48.3156 34.7745 48.1287 34.7421C48.0089 34.7287 47.8882 34.7576 47.7874 34.8237C47.6867 34.8898 47.6121 34.9891 47.5767 35.1043C47.5207 35.2768 47.5767 35.3889 47.5465 35.4018C47.5163 35.4148 47.4085 35.3242 47.4215 35.0784C47.4314 34.9302 47.4923 34.79 47.594 34.6817C47.7359 34.5391 47.9276 34.4571 48.1287 34.4531C48.3737 34.4654 48.6115 34.5405 48.8191 34.6712C49.0268 34.8018 49.1974 34.9836 49.3146 35.1992C49.6333 35.6641 49.8332 36.2001 49.8968 36.7602C50.0305 37.9289 49.5906 39.1062 48.7885 39.4684C48.6415 39.5379 48.481 39.5739 48.3185 39.5739C48.1559 39.5739 47.9954 39.5379 47.8484 39.4684C47.6371 39.3347 47.6069 39.2097 47.6069 39.1967Z" fill="#FFA084"/>
<path d="M43.6937 24.0931C43.0382 24.7357 42.3439 25.3868 41.4599 25.6499C40.5758 25.9129 39.4546 25.568 39.1441 24.7012C39.0018 24.3131 39.0191 23.8387 38.7129 23.5713C38.4067 23.304 37.7728 23.4765 37.3027 23.6101C35.664 24.0888 33.3785 22.5881 32.6626 21.0227C32.4987 21.3715 32.2086 21.6451 31.8508 21.7883C31.4931 21.9316 31.0943 21.9339 30.735 21.7946C30.1453 21.5619 29.6009 21.2277 29.1265 20.8071C28.5184 20.3198 27.7206 19.9446 26.9703 20.1732C26.539 20.3112 26.2027 20.6346 25.7671 20.6734C24.9995 20.7381 24.4734 19.9187 24.2276 19.19C23.9818 18.4612 23.736 17.603 23.0245 17.3098C22.3129 17.0165 21.6359 17.3917 20.9588 17.6202C20.2818 17.8488 19.3546 17.8445 19.0571 17.189C18.9937 17.0128 18.9672 16.8254 18.9791 16.6385C18.9909 16.4516 19.041 16.2691 19.1261 16.1023C19.4691 15.3235 20.0649 14.6832 20.8169 14.2849C21.5689 13.8866 22.4333 13.7536 23.2703 13.9073C23.3835 12.9001 23.7926 11.949 24.446 11.1742C25.0995 10.3994 25.9679 9.83569 26.9416 9.5542C27.9153 9.27271 28.9505 9.2861 29.9166 9.59269C30.8827 9.89928 31.7362 10.4853 32.3694 11.2767C32.8833 10.6155 33.5491 10.088 34.3104 9.73902C35.0717 9.39006 35.906 9.22995 36.7424 9.27228C37.5787 9.31461 38.3926 9.55812 39.1148 9.98216C39.8369 10.4062 40.4461 10.9982 40.8906 11.708C41.5666 11.4082 42.3142 11.3078 43.0453 11.4186C43.7764 11.5294 44.4607 11.8467 45.0176 12.3333C45.5552 12.8377 45.9381 13.4848 46.1214 14.1988C46.3046 14.9129 46.2808 15.6644 46.0525 16.3653C47.191 16.7707 48.2605 17.6591 48.4933 18.8277C48.7262 19.9964 47.7775 21.4151 46.5743 21.2944C46.8834 21.7223 47.0193 22.2512 46.9547 22.7751C46.89 23.299 46.6297 23.7791 46.2259 24.1191C45.8221 24.459 45.3047 24.6337 44.7774 24.6081C44.2502 24.5825 43.7521 24.3585 43.3832 23.981" fill="#263238"/>
<path d="M23.1404 15.6953C23.1423 15.7321 23.1496 15.7684 23.162 15.8031C23.162 15.8678 23.2051 15.9713 23.2525 16.1007C23.3972 16.4776 23.6042 16.8274 23.8649 17.1356C24.2781 17.6242 24.7972 18.012 25.3828 18.2698C26.1587 18.6204 27.0278 18.7082 27.8581 18.5199L27.7374 18.4121C27.698 18.6866 27.7132 18.9661 27.782 19.2347C27.8508 19.5034 27.9719 19.7558 28.1384 19.9775C28.4868 20.4481 28.9024 20.8651 29.3718 21.2152C29.6067 21.4247 29.8625 21.6096 30.1351 21.7671C30.4398 21.9021 30.7727 21.9613 31.1053 21.9396C31.452 21.9275 31.7904 21.8308 32.091 21.658C32.3917 21.4851 32.6455 21.2413 32.8303 20.9478L32.6017 20.9262C32.7876 21.5098 33.0941 22.0478 33.5012 22.5055C33.9082 22.9631 34.4069 23.3301 34.9649 23.5826C35.5827 23.8894 36.2827 23.9892 36.9616 23.8673C37.5958 23.723 38.2009 23.4722 38.7512 23.1255L38.583 23.0867C39.0114 23.7277 39.5923 24.2522 40.2735 24.6133C40.5873 24.7993 40.9387 24.9129 41.3021 24.9457C41.6654 24.9786 42.0315 24.9298 42.3736 24.8031C42.9545 24.565 43.4531 24.1621 43.8079 23.6441C44.1627 23.1261 44.3582 22.5156 44.3702 21.8879L44.2538 21.9741C44.9166 22.1869 45.6327 22.1641 46.2806 21.9094C46.7659 21.7271 47.2006 21.4314 47.5484 21.047C47.7661 20.8067 47.9411 20.5311 48.0659 20.2319C48.11 20.1285 48.1405 20.0198 48.1565 19.9085C47.9974 20.304 47.7664 20.6666 47.4751 20.978C47.1259 21.3334 46.6994 21.6035 46.2288 21.7671C45.6109 21.9949 44.9337 22.004 44.3098 21.793L44.1891 21.7499V21.8749C44.1706 22.462 43.9812 23.0309 43.6442 23.512C43.3071 23.993 42.8371 24.3653 42.2916 24.5831C41.979 24.6958 41.645 24.7368 41.3144 24.7032C40.9838 24.6696 40.6649 24.5623 40.3813 24.3891C39.7419 24.0443 39.1992 23.5446 38.8029 22.9358L38.7382 22.8366L38.6348 22.8927C38.1049 23.2261 37.5213 23.4654 36.9098 23.5999C36.2823 23.7147 35.6345 23.6224 35.0641 23.3368C34.5389 23.097 34.0693 22.7503 33.6855 22.3189C33.3016 21.8875 33.0118 21.3809 32.8346 20.8314L32.7527 20.564L32.6104 20.8098C32.4431 21.0658 32.2167 21.2778 31.9502 21.428C31.6838 21.5781 31.3851 21.6619 31.0795 21.6723C30.784 21.6925 30.488 21.6408 30.217 21.5213C29.9613 21.3771 29.7214 21.2066 29.5011 21.0125C29.0457 20.6781 28.6405 20.2802 28.298 19.8309C27.9903 19.4277 27.854 18.9195 27.9185 18.4164L27.9401 18.2698L27.7978 18.3043C27.0084 18.4933 26.179 18.4207 25.4346 18.0973C24.8623 17.8608 24.3508 17.4982 23.9382 17.0365C23.5952 16.64 23.3251 16.1859 23.1404 15.6953Z" fill="#455A64"/>
<path d="M29.1319 45.7385C29.1319 45.5186 30.5938 45.5617 31.6719 44.3413C32.75 43.1209 32.6422 41.5512 32.8492 41.5469C32.9397 41.5469 33.1209 41.9048 33.1209 42.5646C33.1047 43.4242 32.7855 44.2504 32.2196 44.8976C31.6775 45.5197 30.9155 45.9076 30.0936 45.98C29.4942 46.0145 29.119 45.842 29.1319 45.7385Z" fill="#263238"/>
</g>
<rect x="1" y="1" width="62" height="62" rx="31" stroke="#576CBE" stroke-width="2"/>
<defs>
<clipPath id="clip0_5282_69308">
<rect width="64" height="64" rx="32" fill="white"/>
</clipPath>
</defs>
</svg>
