<svg width="64" height="64" viewBox="0 0 64 64" fill="none" xmlns="http://www.w3.org/2000/svg">
<g clip-path="url(#clip0_5282_69313)">
<rect width="64" height="64" rx="32" fill="#E8EBF6"/>
<path d="M16.7881 27.7693C15.899 28.0059 14.9548 27.919 14.1239 27.5241C13.293 27.1291 12.6294 26.4519 12.2514 25.6131C11.9243 24.7491 11.9161 23.7967 12.2284 22.9272C12.5406 22.0577 13.1528 21.328 13.9548 20.8695C13.3047 20.3822 12.8177 19.7091 12.5582 18.9391C12.2987 18.1691 12.279 17.3386 12.5016 16.5571C12.76 15.7827 13.2485 15.1057 13.902 14.6163C14.5554 14.127 15.3427 13.8488 16.1585 13.8188C16.0583 13.0179 16.1641 12.2046 16.466 11.4561C16.7678 10.7075 17.2557 10.0483 17.8834 9.54089C18.5181 9.04426 19.2689 8.71753 20.0649 8.59153C20.8609 8.46553 21.6759 8.54441 22.433 8.82073C23.1991 7.93298 24.2403 7.32715 25.3907 7.09973C26.5411 6.87231 27.7345 7.03639 28.7808 7.56582C29.5316 7.30222 30.3457 7.27849 31.1106 7.4979C31.8754 7.71731 32.5532 8.16903 33.05 8.79054C33.522 9.43127 33.7833 10.2027 33.798 10.9984C33.8127 11.794 33.58 12.5746 33.132 13.2323" fill="#263238"/>
<path d="M30.215 11.0411L29.3999 11.1834C25.4622 11.8856 21.933 14.0443 19.5143 17.2301C17.0956 20.4158 15.9647 24.3953 16.3464 28.3769C17.0838 36.0572 17.998 44.5354 18.7743 48.5847C20.3742 56.9766 29.0205 56.7782 29.0205 56.7782L29.3223 58.3996C29.5755 59.763 30.0957 61.0629 30.8531 62.2244C31.6105 63.386 32.5901 64.3863 33.7355 65.1679C34.881 65.9494 36.1697 66.4967 37.5275 66.7783C38.8852 67.0599 40.2853 67.0703 41.6471 66.8088C47.1842 65.7436 50.2718 60.8318 49.4482 55.2559L44.6442 26.6907C43.8421 17.8245 39.0554 9.9846 30.215 11.0411Z" fill="#AE7461"/>
<path d="M28.9448 56.792C32.8502 56.1032 36.4755 54.307 39.3894 51.6172C39.3894 51.6172 37.8758 58.1332 29.3502 58.8706L28.9448 56.792Z" fill="#6F4439"/>
<path d="M19.6872 35.9111C19.7403 36.2249 19.9138 36.5055 20.1708 36.6932C20.4277 36.8809 20.7479 36.9608 21.0629 36.9159C21.2169 36.9009 21.3664 36.8553 21.5026 36.7819C21.6389 36.7084 21.7591 36.6085 21.8562 36.4881C21.9534 36.3676 22.0256 36.229 22.0685 36.0803C22.1115 35.9317 22.1244 35.7759 22.1065 35.6222C22.0544 35.3085 21.882 35.0275 21.6259 34.839C21.3697 34.6505 21.0501 34.5695 20.7352 34.6131C20.5806 34.6281 20.4305 34.6738 20.2938 34.7475C20.157 34.8211 20.0363 34.9213 19.9388 35.0422C19.8412 35.163 19.7687 35.3021 19.7255 35.4513C19.6823 35.6005 19.6693 35.7568 19.6872 35.9111Z" fill="#263238"/>
<path d="M18.8848 32.1791C19.0616 32.3084 19.8551 31.4718 21.1445 31.2476C22.4339 31.0233 23.5034 31.4977 23.6155 31.3123C23.6715 31.2303 23.4689 30.9759 23.0031 30.7474C22.3742 30.4618 21.6728 30.376 20.9936 30.5015C20.3209 30.6174 19.7029 30.9453 19.2298 31.4373C18.8848 31.8125 18.8029 32.123 18.8848 32.1791Z" fill="#263238"/>
<path d="M30.8606 34.6497C30.9126 34.9631 31.0853 35.2437 31.3415 35.4315C31.5978 35.6193 31.9174 35.6993 32.232 35.6545C32.3861 35.6394 32.5358 35.5939 32.6722 35.5205C32.8087 35.4471 32.9291 35.3473 33.0266 35.2269C33.1241 35.1065 33.1967 34.968 33.2402 34.8193C33.2837 34.6706 33.2972 34.5147 33.2799 34.3608C33.2268 34.047 33.0533 33.7663 32.7963 33.5786C32.5394 33.3909 32.2192 33.311 31.9042 33.356C31.7502 33.371 31.6007 33.4166 31.4645 33.49C31.3283 33.5635 31.208 33.6633 31.1109 33.7838C31.0137 33.9043 30.9415 34.0429 30.8986 34.1915C30.8556 34.3402 30.8427 34.496 30.8606 34.6497Z" fill="#263238"/>
<path d="M31.651 30.1556C31.8279 30.285 32.6213 29.4484 33.9107 29.2242C35.2001 28.9999 36.2696 29.4743 36.3817 29.2888C36.4378 29.2069 36.2351 28.9525 35.7694 28.7239C35.1404 28.4384 34.439 28.3526 33.7598 28.4781C33.0863 28.5951 32.4672 28.9227 31.9917 29.4139C31.6511 29.7891 31.5519 30.0996 31.651 30.1556Z" fill="#263238"/>
<path d="M28.6517 40.5705C28.6517 40.4972 27.8151 40.5015 26.4956 40.5705C26.1592 40.5963 25.8358 40.5705 25.7409 40.3721C25.6508 40.0361 25.6674 39.6805 25.7883 39.3544C25.9565 38.4919 26.129 37.6036 26.3144 36.6678C27.0346 32.847 27.4874 29.7292 27.3365 29.7033C27.1855 29.6774 26.474 32.7478 25.7581 36.5686C25.5856 37.5087 25.4261 38.4057 25.2708 39.2638C25.1368 39.6988 25.1582 40.1668 25.3312 40.5877C25.4008 40.6951 25.4934 40.7856 25.6023 40.8527C25.7112 40.9198 25.8337 40.9619 25.9608 40.9758C26.1523 40.9924 26.3452 40.9837 26.5344 40.95C27.8453 40.7861 28.6561 40.6438 28.6517 40.5705Z" fill="#263238"/>
<path d="M29.6257 25.3861C29.8543 25.6836 30.8979 25.1317 32.2563 24.8427C33.6147 24.5538 34.8006 24.5797 34.8437 24.2174C34.8696 24.0449 34.5764 23.7862 34.0373 23.618C33.3477 23.4122 32.6164 23.3899 31.9156 23.5533C31.2188 23.6999 30.5741 24.0305 30.0484 24.5107C29.6646 24.8945 29.5222 25.2438 29.6257 25.3861Z" fill="#263238"/>
<path d="M17.8734 26.8591C18.1968 27.1006 19.2102 26.609 20.491 26.3631C21.7718 26.1173 22.893 26.1389 23.0784 25.7896C23.1647 25.6214 22.9404 25.3584 22.4143 25.1643C21.6976 24.9344 20.9328 24.8987 20.1978 25.0608C19.4624 25.198 18.7773 25.5301 18.2141 26.0225C17.8216 26.4063 17.7268 26.734 17.8734 26.8591Z" fill="#263238"/>
<path d="M16.4639 24.3727C16.4639 24.3727 17.7576 18.7106 20.0647 17.0417C22.8764 15.0063 24.8083 18.1413 27.5855 16.8002C30.3627 15.4591 33.0493 13.5099 36.4474 15.2434C40.1647 17.1366 38.94 19.1504 39.8068 22.8462C43.3257 37.8273 46.8489 41.6136 46.3659 34.3473C46.3141 33.5538 48.3668 32.5447 48.0908 29.1724C47.7459 24.8212 46.9826 19.5989 45.5034 16.7312C44.2442 14.3163 42.4848 12.8113 39.5092 11.3278C34.8303 8.98618 29.1595 9.93059 25.3646 11.0044C21.5697 12.0781 14.9416 17.8438 16.4639 24.3727Z" fill="#263238"/>
<path d="M45.7887 34.2102C45.7441 33.8996 45.763 33.5832 45.8442 33.2801C45.9254 32.977 46.0672 32.6935 46.2611 32.4468C46.455 32.2001 46.6969 31.9953 46.9723 31.8448C47.2476 31.6942 47.5506 31.6011 47.8629 31.5711C49.4585 31.4417 51.3603 32.0239 51.8346 35.284C52.6756 41.0626 46.6986 40.7176 46.6598 40.5494C46.621 40.3813 46.1207 36.6338 45.7887 34.2102Z" fill="#AE7461"/>
<path d="M47.6069 38.1967C47.6285 38.1709 47.719 38.2528 47.9001 38.3045C48.1546 38.3707 48.4247 38.3368 48.6548 38.2097C49.2327 37.8992 49.6079 36.8513 49.4828 35.8077C49.426 35.3096 49.258 34.8306 48.9912 34.4062C48.9121 34.2338 48.7922 34.0833 48.642 33.9676C48.4917 33.8519 48.3156 33.7745 48.1287 33.7421C48.0089 33.7287 47.8882 33.7576 47.7874 33.8237C47.6867 33.8898 47.6121 33.9891 47.5767 34.1043C47.5207 34.2768 47.5767 34.3889 47.5465 34.4018C47.5163 34.4148 47.4085 34.3242 47.4215 34.0784C47.4314 33.9302 47.4923 33.79 47.594 33.6817C47.7359 33.5391 47.9276 33.4571 48.1287 33.4531C48.3737 33.4654 48.6115 33.5405 48.8191 33.6712C49.0268 33.8018 49.1974 33.9836 49.3146 34.1992C49.6333 34.6641 49.8332 35.2001 49.8968 35.7602C50.0305 36.9289 49.5906 38.1062 48.7885 38.4684C48.6415 38.5379 48.481 38.5739 48.3185 38.5739C48.1559 38.5739 47.9954 38.5379 47.8484 38.4684C47.6371 38.3347 47.6069 38.2097 47.6069 38.1967Z" fill="#6F4439"/>
<path d="M43.6937 23.0931C43.0382 23.7357 42.3439 24.3868 41.4599 24.6499C40.5758 24.9129 39.4546 24.568 39.1441 23.7012C39.0018 23.3131 39.0191 22.8387 38.7129 22.5713C38.4067 22.304 37.7728 22.4765 37.3027 22.6101C35.664 23.0888 33.3785 21.5881 32.6626 20.0227C32.4987 20.3715 32.2086 20.6451 31.8508 20.7883C31.4931 20.9316 31.0943 20.9339 30.735 20.7946C30.1453 20.5619 29.6009 20.2277 29.1265 19.8071C28.5184 19.3198 27.7206 18.9446 26.9703 19.1732C26.539 19.3112 26.2027 19.6346 25.7671 19.6734C24.9995 19.7381 24.4734 18.9187 24.2276 18.19C23.9818 17.4612 23.736 16.603 23.0245 16.3098C22.3129 16.0165 21.6359 16.3917 20.9588 16.6202C20.2818 16.8488 19.3546 16.8445 19.0571 16.189C18.9937 16.0128 18.9672 15.8254 18.9791 15.6385C18.9909 15.4516 19.041 15.2691 19.1261 15.1023C19.4691 14.3235 20.0649 13.6832 20.8169 13.2849C21.5689 12.8866 22.4333 12.7536 23.2703 12.9073C23.3835 11.9001 23.7926 10.949 24.446 10.1742C25.0995 9.39943 25.9679 8.83569 26.9416 8.5542C27.9153 8.27271 28.9505 8.2861 29.9166 8.59269C30.8827 8.89928 31.7362 9.48531 32.3694 10.2767C32.8833 9.61548 33.5491 9.08798 34.3104 8.73902C35.0717 8.39006 35.906 8.22995 36.7424 8.27228C37.5787 8.31461 38.3926 8.55812 39.1148 8.98216C39.8369 9.40619 40.4461 9.99822 40.8906 10.708C41.5666 10.4082 42.3142 10.3078 43.0453 10.4186C43.7764 10.5294 44.4607 10.8467 45.0176 11.3333C45.5552 11.8377 45.9381 12.4848 46.1214 13.1988C46.3046 13.9129 46.2808 14.6644 46.0525 15.3653C47.191 15.7707 48.2605 16.6591 48.4933 17.8277C48.7262 18.9964 47.7775 20.4151 46.5743 20.2944C46.8834 20.7223 47.0193 21.2512 46.9547 21.7751C46.89 22.299 46.6297 22.7791 46.2259 23.1191C45.8221 23.459 45.3047 23.6337 44.7774 23.6081C44.2502 23.5825 43.7521 23.3585 43.3832 22.981" fill="#263238"/>
<path d="M23.1404 14.6953C23.1423 14.7321 23.1496 14.7684 23.162 14.8031C23.162 14.8678 23.2051 14.9713 23.2525 15.1007C23.3972 15.4776 23.6042 15.8274 23.8649 16.1356C24.2781 16.6242 24.7972 17.012 25.3828 17.2698C26.1587 17.6204 27.0278 17.7082 27.8581 17.5199L27.7374 17.4121C27.698 17.6866 27.7132 17.9661 27.782 18.2347C27.8508 18.5034 27.9719 18.7558 28.1384 18.9775C28.4868 19.4481 28.9024 19.8651 29.3718 20.2152C29.6067 20.4247 29.8625 20.6096 30.1351 20.7671C30.4398 20.9021 30.7727 20.9613 31.1053 20.9396C31.452 20.9275 31.7904 20.8308 32.091 20.658C32.3917 20.4851 32.6455 20.2413 32.8303 19.9478L32.6017 19.9262C32.7876 20.5098 33.0941 21.0478 33.5012 21.5055C33.9082 21.9631 34.4069 22.3301 34.9649 22.5826C35.5827 22.8894 36.2827 22.9892 36.9616 22.8673C37.5958 22.723 38.2009 22.4722 38.7512 22.1255L38.583 22.0867C39.0114 22.7277 39.5923 23.2522 40.2735 23.6133C40.5873 23.7993 40.9387 23.9129 41.3021 23.9457C41.6654 23.9786 42.0315 23.9298 42.3736 23.8031C42.9545 23.565 43.4531 23.1621 43.8079 22.6441C44.1627 22.1261 44.3582 21.5156 44.3702 20.8879L44.2538 20.9741C44.9166 21.1869 45.6327 21.1641 46.2806 20.9094C46.7659 20.7271 47.2006 20.4314 47.5484 20.047C47.7661 19.8067 47.9411 19.5311 48.0659 19.2319C48.11 19.1285 48.1405 19.0198 48.1565 18.9085C47.9974 19.304 47.7664 19.6666 47.4751 19.978C47.1259 20.3334 46.6994 20.6035 46.2288 20.7671C45.6109 20.9949 44.9337 21.004 44.3098 20.793L44.1891 20.7499V20.8749C44.1706 21.462 43.9812 22.0309 43.6442 22.512C43.3071 22.993 42.8371 23.3653 42.2916 23.5831C41.979 23.6958 41.645 23.7368 41.3144 23.7032C40.9838 23.6696 40.6649 23.5623 40.3813 23.3891C39.7419 23.0443 39.1992 22.5446 38.8029 21.9358L38.7382 21.8366L38.6348 21.8927C38.1049 22.2261 37.5213 22.4654 36.9098 22.5999C36.2823 22.7147 35.6345 22.6224 35.0641 22.3368C34.5389 22.097 34.0693 21.7503 33.6855 21.3189C33.3016 20.8875 33.0118 20.3809 32.8346 19.8314L32.7527 19.564L32.6104 19.8098C32.4431 20.0658 32.2167 20.2778 31.9502 20.428C31.6838 20.5781 31.3851 20.6619 31.0795 20.6723C30.784 20.6925 30.488 20.6408 30.217 20.5213C29.9613 20.3771 29.7214 20.2066 29.5011 20.0125C29.0457 19.6781 28.6405 19.2802 28.298 18.8309C27.9903 18.4277 27.854 17.9195 27.9185 17.4164L27.9401 17.2698L27.7978 17.3043C27.0084 17.4933 26.179 17.4207 25.4346 17.0973C24.8623 16.8608 24.3508 16.4982 23.9382 16.0365C23.5952 15.64 23.3251 15.1859 23.1404 14.6953Z" fill="#455A64"/>
<path d="M29.1319 44.7385C29.1319 44.5186 30.5938 44.5617 31.6719 43.3413C32.75 42.1209 32.6422 40.5512 32.8492 40.5469C32.9397 40.5469 33.1209 40.9048 33.1209 41.5646C33.1047 42.4242 32.7855 43.2504 32.2196 43.8976C31.6775 44.5197 30.9155 44.9076 30.0936 44.98C29.4942 45.0145 29.119 44.842 29.1319 44.7385Z" fill="#263238"/>
</g>
<rect x="1" y="1" width="62" height="62" rx="31" stroke="#576CBE" stroke-width="2"/>
<defs>
<clipPath id="clip0_5282_69313">
<rect width="64" height="64" rx="32" fill="white"/>
</clipPath>
</defs>
</svg>
