<svg width="64" height="64" viewBox="0 0 64 64" fill="none" xmlns="http://www.w3.org/2000/svg">
<g clip-path="url(#clip0_5282_69309)">
<rect width="64" height="64" rx="32" fill="#E8EBF6"/>
<path d="M22.9377 19.5742C23.9556 20.1367 24.7669 21.0101 25.2529 22.0666C25.739 23.1231 25.8743 24.3074 25.6392 25.4464C25.404 26.5853 24.8107 27.6192 23.946 28.3968C23.0813 29.1745 21.9904 29.6551 20.833 29.7685C18.9415 29.978 16.7415 28.7699 16.6175 26.8665C16.6 27.7514 16.3516 28.6164 15.897 29.3757C15.4423 30.1351 14.7971 30.7625 14.0253 31.1957C13.2373 31.6012 12.3381 31.7367 11.4656 31.5814C10.5932 31.4261 9.7959 30.9887 9.19624 30.3363C8.06879 28.9818 8.23599 26.6726 9.66418 25.6356C8.70178 25.8449 7.70413 25.8298 6.74848 25.5916C5.79283 25.3534 4.90482 24.8985 4.15323 24.262C3.41508 23.6063 2.87007 22.7615 2.57705 21.8187C2.28402 20.8759 2.25412 19.871 2.49057 18.9124C2.76092 17.963 3.32436 17.1233 4.10043 16.5132C4.8765 15.9031 5.82551 15.5538 6.81192 15.5153C6.24372 14.356 6.13534 13.0247 6.50853 11.7888C6.88173 10.5529 7.70886 9.50407 8.82369 8.85305C9.93853 8.20203 11.2585 7.99706 12.5182 8.27936C13.778 8.56166 14.8842 9.31029 15.6146 10.3748C16.1466 9.3347 17.0205 8.50949 18.0894 8.03797C19.1582 7.56645 20.3569 7.47739 21.4837 7.78576C22.6105 8.09413 23.5968 8.78111 24.2766 9.73119C24.9565 10.6813 25.2884 11.8365 25.2166 13.0025C26.1272 13.3223 26.8949 13.9545 27.3835 14.7867C27.8721 15.6189 28.05 16.5974 27.8856 17.5483C27.7211 18.4993 27.225 19.3612 26.4854 19.981C25.7457 20.6009 24.8103 20.9386 23.8452 20.9341" fill="#263238"/>
<path d="M17.7189 26.643C16.6434 23.9305 17.0755 23.209 18.3223 21.4691C18.8563 20.7091 19.6066 20.1272 20.4756 19.799C21.3445 19.4708 22.2921 19.4115 23.1952 19.6287C23.1824 17.3994 22.97 15.8412 24.8004 14.4846C26.7382 13.0466 27.719 13.1719 30.1219 13.245C31.7448 11.8708 33.808 11.1263 35.9344 11.1476C38.0105 11.1534 40.0077 11.9431 41.5263 13.3587C44.1594 12.9221 46.9634 14.1047 48.2757 16.2042C48.8907 17.1872 49.2183 18.3627 50.1062 19.1456C50.7615 19.6668 51.2972 20.3226 51.6771 21.0687C52.3071 22.4976 52.2508 23.2185 51.893 24.8807C51.6461 26.0293 51.0185 27.7148 51.8 28.6053C54.8014 32.0372 51.7556 36.7767 50.5736 37.2702L30.1783 47.8627C29.5566 48.603 28.7468 49.1618 27.834 49.4803C26.9213 49.7987 25.9396 49.8651 24.9923 49.6723C24.0922 49.4865 23.2698 49.0316 22.6341 48.3678C21.9984 47.7039 21.5795 46.8626 21.4328 45.9553C18.3156 44.7107 16.54 41.215 17.448 38.1153C14.5259 36.1934 13.9693 30.9377 17.7189 26.643Z" fill="#263238"/>
<path d="M48.2286 25.8679C47.0551 20.6199 40.6476 16.2713 35.6022 17.6712L25.7176 21.3708C23.9504 22.0574 22.4813 23.3443 21.5681 25.0058C20.6549 26.6673 20.3559 28.5972 20.7235 30.4572L23.3539 36.2324L27.4552 61.2889L26.6555 61.7412C26.6555 61.7412 29.9097 72.9032 39.1587 70.6843C47.4673 68.6963 43.8294 58.7854 43.8302 58.7803L42.6665 52.209C42.6665 52.209 50.9287 50.3437 50.8617 41.2672C50.8443 36.7577 49.5341 31.7062 48.2286 25.8679Z" fill="#FFBE9D"/>
<path d="M47.2133 34.9294C47.268 35.221 47.2072 35.5224 47.0437 35.7699C46.8802 36.0174 46.6268 36.1917 46.3372 36.2557C46.1967 36.2897 46.0508 36.2948 45.9082 36.2707C45.7657 36.2467 45.6295 36.1941 45.5079 36.116C45.3862 36.038 45.2816 35.936 45.2005 35.8165C45.1193 35.6969 45.0631 35.5621 45.0354 35.4202C44.9834 35.1297 45.0454 34.8303 45.2084 34.5843C45.3714 34.3382 45.6229 34.1644 45.9107 34.099C46.0509 34.0649 46.1966 34.0595 46.3389 34.0831C46.4812 34.1068 46.6173 34.1589 46.739 34.2365C46.8607 34.3141 46.9654 34.4154 47.0469 34.5345C47.1284 34.6536 47.185 34.7879 47.2133 34.9294Z" fill="#263238"/>
<path d="M47.5228 31.0452C47.414 31.1994 46.601 30.721 45.5428 30.875C44.4846 31.0289 43.769 31.6985 43.6428 31.5785C43.5165 31.4586 43.6939 31.2688 43.9802 30.9561C44.3908 30.56 44.9171 30.3051 45.4825 30.2287C46.0326 30.1476 46.5939 30.255 47.0753 30.5332C47.4377 30.7391 47.5777 30.9656 47.5228 31.0452Z" fill="#263238"/>
<path d="M37.321 36.1785C37.3739 36.4698 37.3117 36.7702 37.1475 37.0165C36.9833 37.2628 36.7299 37.4358 36.4407 37.4989C36.3005 37.533 36.1548 37.5384 36.0125 37.5148C35.8701 37.4911 35.734 37.439 35.6124 37.3614C35.4907 37.2838 35.386 37.1824 35.3045 37.0634C35.223 36.9443 35.1664 36.81 35.1381 36.6685C35.0865 36.3774 35.1492 36.0776 35.3133 35.8316C35.4773 35.5856 35.7299 35.4124 36.0184 35.348C36.1586 35.3147 36.3041 35.3099 36.4461 35.3338C36.5882 35.3578 36.724 35.41 36.8455 35.4875C36.967 35.565 37.0717 35.666 37.1534 35.7847C37.2351 35.9034 37.2921 36.0373 37.321 36.1785Z" fill="#263238"/>
<path d="M36.6174 32.5385C36.5135 32.6935 35.6946 32.2193 34.6373 32.3683C33.5799 32.5172 32.8686 33.1926 32.7331 33.0972C32.6687 33.0449 32.7842 32.7875 33.0705 32.4748C33.482 32.0799 34.0078 31.8252 34.5728 31.7474C35.1247 31.6662 35.6877 31.7738 36.1707 32.0527C36.5306 32.2425 36.6655 32.4682 36.6174 32.5385Z" fill="#263238"/>
<path d="M41.4062 40.3338C42.0128 40.0722 42.6436 39.8706 43.2894 39.7317C43.5888 39.656 43.8713 39.5565 43.8693 39.3788C43.8673 39.2012 43.751 38.9577 43.5636 38.7025L42.4001 37.0291C41.4205 35.5994 40.5156 34.12 39.689 32.5967C39.8192 32.5347 41.2351 34.4167 42.86 36.8025L43.9888 38.4962C44.1407 38.7456 44.3823 39.0201 44.2814 39.4103C44.2425 39.5118 44.1829 39.6041 44.1064 39.6813C44.0299 39.7585 43.9382 39.8189 43.8371 39.8586C43.6741 39.9233 43.5053 39.9723 43.333 40.0049C42.7028 40.176 42.0575 40.2861 41.4062 40.3338Z" fill="#263238"/>
<path d="M42.7287 52.2054C38.6871 52.9453 34.5183 52.518 30.7109 50.9734C30.7109 50.9734 34.6062 56.7957 43.076 54.5265L42.7287 52.2054Z" fill="#EB996E"/>
<path d="M36.4422 29.4729C36.376 29.874 35.2997 29.759 34.0776 30.0529C32.8555 30.3467 31.8859 30.8804 31.6967 30.5415C31.6135 30.3817 31.7855 30.0032 32.1384 29.5712C32.6041 29.0798 33.2051 28.7379 33.8654 28.5886C34.4975 28.4388 35.1611 28.4971 35.7575 28.7548C36.1995 28.9842 36.4741 29.2799 36.4422 29.4729Z" fill="#263238"/>
<path d="M47.2556 27.1731C47.1149 27.5516 46.1722 27.4169 45.1725 27.6587C44.1728 27.9006 43.3444 28.3377 43.0639 28.0462C42.9418 27.9009 43.0005 27.5455 43.3061 27.1473C43.7032 26.6611 44.2557 26.3267 44.8707 26.2006C45.4845 26.0673 46.1258 26.1547 46.6816 26.4473C47.1169 26.686 47.3162 26.9954 47.2556 27.1731Z" fill="#263238"/>
<path d="M23.702 36.6206C23.702 36.6206 17.8209 35.5301 18.8872 40.9221C19.9534 46.3141 24.9679 44.0902 24.9473 43.9303C24.9268 43.7704 23.702 36.6206 23.702 36.6206Z" fill="#FFBE9D"/>
<path d="M22.9486 42.2126C22.9232 42.2084 22.8726 42.2939 22.7349 42.4016C22.5383 42.5405 22.2948 42.5959 22.0574 42.5558C21.4633 42.4578 20.8233 41.6584 20.6009 40.6985C20.4989 40.2414 20.4953 39.7678 20.5902 39.3092C20.6046 39.1327 20.6616 38.9623 20.7562 38.8126C20.8509 38.6629 20.9804 38.5383 21.1337 38.4496C21.2327 38.4005 21.3459 38.388 21.4532 38.4143C21.5606 38.4406 21.6552 38.504 21.7203 38.5933C21.8178 38.7294 21.8044 38.842 21.8349 38.847C21.8653 38.852 21.932 38.7326 21.842 38.5196C21.7876 38.3939 21.6927 38.2901 21.5724 38.2247C21.4102 38.1491 21.225 38.1391 21.0555 38.1968C20.8491 38.2886 20.6694 38.4311 20.533 38.611C20.3966 38.791 20.308 39.0025 20.2753 39.226C20.1449 39.7377 20.1388 40.2733 20.2575 40.7879C20.5063 41.8721 21.2464 42.761 22.0443 42.8249C22.1928 42.8365 22.3421 42.8146 22.481 42.7608C22.6199 42.707 22.7449 42.6226 22.8467 42.5139C22.9632 42.3454 22.9689 42.2159 22.9486 42.2126Z" fill="#EB996E"/>
<path d="M41.1835 43.0378C41.1768 43.0785 40.9724 43.2429 40.5325 43.3164C39.9493 43.412 39.3509 43.3039 38.838 43.0103C38.3251 42.7167 37.9288 42.2554 37.7159 41.7041C37.5613 41.2821 37.5811 41.0037 37.6293 40.9961C37.6775 40.9884 37.7668 41.2378 37.9721 41.5742C38.2262 42.0214 38.5924 42.3947 39.0348 42.6572C39.4855 42.9053 39.9922 43.0338 40.5067 43.0305C40.8951 43.0476 41.1496 42.9905 41.1835 43.0378Z" fill="#263238"/>
<g opacity="0.4">
<path d="M33.3014 39.1971C33.5358 38.8783 33.8717 38.6486 34.2538 38.5458C34.5511 38.4956 34.853 38.4789 35.154 38.4961C35.4576 38.5187 35.7432 38.6491 35.9592 38.8637C36.0634 38.9735 36.133 39.1115 36.1594 39.2605C36.1858 39.4095 36.1679 39.563 36.1077 39.7019C35.9792 39.9028 35.787 40.0548 35.5619 40.1335C35.196 40.2964 34.8038 40.3925 34.4041 40.4171C34.2269 40.4407 34.0467 40.4266 33.8753 40.3759C33.704 40.3251 33.5452 40.2388 33.4094 40.1225C33.2907 40.0025 33.2156 39.8461 33.196 39.6784C33.1764 39.5107 33.2135 39.3413 33.3014 39.1971Z" fill="#FF725E"/>
</g>
<g opacity="0.4">
<path d="M46.3752 37.4476C46.6096 37.1287 46.9455 36.899 47.3277 36.7963C47.6248 36.7455 47.9268 36.7288 48.2278 36.7466C48.5324 36.7684 48.8185 36.901 49.0322 37.1193C49.137 37.2287 49.207 37.3667 49.2334 37.5159C49.2599 37.665 49.2415 37.8187 49.1807 37.9575C49.0516 38.1578 48.8596 38.3096 48.6349 38.389C48.2694 38.5533 47.877 38.6494 47.477 38.6726C47.2998 38.6975 47.1194 38.6841 46.9478 38.6333C46.7762 38.5825 46.6175 38.4955 46.4824 38.3781C46.3627 38.2575 46.2869 38.1002 46.2675 37.9314C46.248 37.7626 46.286 37.5922 46.3752 37.4476Z" fill="#FF725E"/>
</g>
<path d="M19.0736 30.0807C18.9162 28.6032 19.2406 27.1143 19.9984 25.8362C20.7324 24.549 20.8749 22.1366 21.9537 21.1306C24.2667 18.9669 27.8059 18.4451 30.7951 17.4309C33.7843 16.4168 38.3552 14.0362 41.367 15.0027L49.5142 22.0847C49.376 23.4911 47.3614 24.4783 46.4503 23.9941C45.9957 23.746 45.6207 23.3742 45.3686 22.9219C45.1165 22.4695 44.9976 21.955 45.0256 21.4379C43.5186 22.415 40.2604 21.8669 39.4828 20.2572C38.1448 22.6445 35.8374 23.6042 33.3778 22.4837C33.4875 23.2072 33.4089 23.9468 33.1494 24.631C32.89 25.3153 32.4585 25.921 31.8967 26.3899C31.3348 26.8587 30.6616 27.1748 29.942 27.3075C29.2224 27.4403 28.4807 27.3853 27.7885 27.1478C28.683 28.1035 29.17 29.37 29.1462 30.6788C29.0383 31.965 28.0064 33.2239 26.7137 33.2505C27.5111 33.8852 28.129 34.7171 28.5061 35.664C28.6909 36.1374 28.7655 36.6466 28.7244 37.1531C28.6833 37.6596 28.5275 38.1501 28.2688 38.5876C27.9976 39.0184 27.5948 39.3504 27.12 39.5342C26.6453 39.718 26.1239 39.7438 25.6333 39.6079C24.8747 39.2659 24.2398 38.6986 23.815 37.983L21.4696 34.7793C20.4123 33.3478 19.3193 31.8478 19.0736 30.0807Z" fill="#263238"/>
<path d="M15.917 29.7279C15.9424 29.7321 15.9748 29.3776 16.1829 28.7807C16.4954 27.9411 17.0591 27.2182 17.7972 26.7104L17.8674 26.6646L17.8283 26.5851C17.5619 25.9609 17.4233 25.2897 17.4206 24.6111C17.4179 23.9325 17.5512 23.2602 17.8127 22.634C18.1392 21.8721 18.6542 21.2059 19.3092 20.6981C19.9643 20.1902 20.7378 19.8574 21.5569 19.731C22.0855 19.6516 22.6234 19.6576 23.1501 19.7488L23.3786 19.7865L23.3207 19.5683C23.149 18.8613 23.1291 18.1259 23.2625 17.4106C23.3958 16.6953 23.6792 16.0165 24.0942 15.4188C24.773 14.4491 25.7824 13.7606 26.933 13.4826C27.699 13.2861 28.4995 13.2649 29.2748 13.4205C29.8232 13.511 30.1018 13.6561 30.1111 13.6315C30.1203 13.607 30.0509 13.5851 29.9146 13.5261C29.7157 13.4371 29.5092 13.3664 29.2975 13.3147C28.5068 13.1164 27.6804 13.1087 26.8861 13.2924C25.6747 13.5557 24.6046 14.2604 23.8841 15.2694C23.438 15.8949 23.1315 16.6091 22.9854 17.3634C22.8394 18.1177 22.8571 18.8946 23.0374 19.6415L23.208 19.461C22.0551 19.254 20.8661 19.4436 19.8348 19.999C18.8035 20.5544 17.9907 21.4428 17.5291 22.5194C17.2594 23.1782 17.1273 23.8852 17.1409 24.5969C17.1544 25.3086 17.3132 26.0101 17.6076 26.6582L17.6286 26.5313C16.8757 27.0765 16.3183 27.8495 16.039 28.7361C15.9635 28.9723 15.9128 29.2157 15.8878 29.4623C15.8809 29.5519 15.8908 29.642 15.917 29.7279Z" fill="#455A64"/>
</g>
<rect x="1" y="1" width="62" height="62" rx="31" stroke="#576CBE" stroke-width="2"/>
<defs>
<clipPath id="clip0_5282_69309">
<rect width="64" height="64" rx="32" fill="white"/>
</clipPath>
</defs>
</svg>
