<svg width="64" height="64" viewBox="0 0 64 64" fill="none" xmlns="http://www.w3.org/2000/svg">
<g clip-path="url(#clip0_5282_69304)">
<rect width="64" height="64" rx="32" fill="#E8EBF6"/>
<path d="M25.7365 16.9056C26.6686 17.601 27.3538 18.5764 27.6919 19.6891C28.0301 20.8019 28.0034 21.9936 27.6158 23.0901C27.2282 24.1866 26.5001 25.1303 25.5378 25.7834C24.5755 26.4364 23.4295 26.7646 22.2674 26.7198C20.365 26.6705 18.3493 25.175 18.4848 23.2724C18.3474 24.1467 17.9839 24.97 17.4304 25.6606C16.8768 26.3512 16.1524 26.8852 15.329 27.2097C14.4933 27.5044 13.5839 27.5166 12.7407 27.2443C11.8974 26.9721 11.1668 26.4304 10.6613 25.7027C9.72814 24.2077 10.2073 21.9426 11.763 21.109C10.7811 21.1857 9.79473 21.0354 8.88026 20.6696C7.96578 20.3039 7.14776 19.7326 6.48952 19C5.84721 18.2502 5.42192 17.3392 5.25959 16.3654C5.09726 15.3915 5.20405 14.3919 5.56844 13.4743C5.96516 12.5703 6.63737 11.8149 7.48907 11.3158C8.34078 10.8167 9.32841 10.5995 10.3109 10.6952C9.90535 9.46954 9.97869 8.13581 10.5162 6.96202C11.0537 5.78823 12.0156 4.86138 13.2084 4.36772C14.4013 3.87405 15.7369 3.85017 16.9467 4.30086C18.1564 4.75155 19.1508 5.64342 19.7299 6.79724C20.3982 5.83896 21.376 5.14002 22.499 4.81796C23.622 4.4959 24.8216 4.57037 25.8962 5.02885C26.9707 5.48732 27.8546 6.30183 28.3992 7.3354C28.9437 8.36897 29.1158 9.55854 28.8864 10.704C29.7451 11.1445 30.4199 11.875 30.791 12.7659C31.1621 13.6567 31.2055 14.6503 30.9135 15.5701C30.6215 16.4899 30.013 17.2765 29.1961 17.7902C28.3791 18.3039 27.4065 18.5115 26.451 18.376" fill="#263238"/>
<path d="M19.6064 23.2028C18.909 20.3695 19.435 19.7132 20.9065 18.1588C21.5388 17.4783 22.361 17.0036 23.2665 16.7964C24.172 16.5892 25.1189 16.6591 25.9842 16.9969C26.274 14.7864 26.2752 13.2139 28.2728 12.1183C30.3878 10.9566 31.3425 11.2139 33.7133 11.6125C35.5077 10.4713 37.6528 10.0138 39.7567 10.3235C41.8127 10.6111 43.6843 11.6646 44.9966 13.2732C47.6646 13.1982 50.2822 14.7504 51.2973 17.0086C51.7732 18.066 51.9382 19.2751 52.7116 20.1713C53.2901 20.7765 53.7318 21.499 54.0069 22.2898C54.4372 23.791 54.2835 24.4976 53.7034 26.0959C53.3028 27.2002 52.4522 28.785 53.1056 29.7733C55.6134 33.5809 51.9524 37.8631 50.7143 38.1915L29.07 45.9174C28.3536 46.5664 27.4753 47.0102 26.5278 47.2018C25.5803 47.3934 24.5986 47.3259 23.6863 47.0063C22.8197 46.7 22.0667 46.1377 21.527 45.3937C20.9873 44.6498 20.6865 43.7594 20.6644 42.8405C17.7449 41.1843 16.4603 37.4799 17.7806 34.5321C15.1465 32.2315 15.3084 26.9488 19.6064 23.2028Z" fill="#263238"/>
<path d="M49.9387 26.5798C49.4884 21.2212 43.7306 16.043 38.5418 16.745L28.2465 19.0686C26.4025 19.5089 24.7723 20.5845 23.6421 22.1066C22.5118 23.6288 21.9535 25.5003 22.0652 27.3929L23.8873 33.4718L24.5493 58.8531L23.6957 59.1926C23.6957 59.1926 25.4045 70.6931 34.8691 69.7502C43.3707 68.9084 41.1118 58.5954 41.1133 58.5905L40.8524 51.9221C40.8524 51.9221 49.2914 51.1956 50.457 42.194C51.052 37.7239 50.4396 32.5413 49.9387 26.5798Z" fill="#AE7461"/>
<path d="M47.7026 35.417C47.7172 35.7133 47.6161 36.0037 47.4205 36.2267C47.2249 36.4498 46.9502 36.588 46.6546 36.6122C46.5107 36.6267 46.3655 36.6119 46.2275 36.5688C46.0896 36.5257 45.9618 36.455 45.8519 36.3612C45.742 36.2673 45.6522 36.1522 45.588 36.0227C45.5238 35.8932 45.4864 35.752 45.4783 35.6077C45.4662 35.3128 45.5682 35.0246 45.7631 34.8029C45.958 34.5813 46.2308 34.4432 46.5248 34.4175C46.6683 34.4027 46.8134 34.4172 46.9512 34.4599C47.089 34.5026 47.2168 34.5728 47.3268 34.6662C47.4368 34.7595 47.5268 34.8742 47.5914 35.0032C47.656 35.1322 47.6938 35.273 47.7026 35.417Z" fill="#263238"/>
<path d="M48.5374 31.6002C48.4086 31.7381 47.668 31.1538 46.5987 31.1627C45.5294 31.1716 44.7296 31.7378 44.6208 31.6019C44.512 31.4659 44.7135 31.3019 45.0396 31.031C45.5002 30.6943 46.0562 30.5132 46.6268 30.5142C47.1828 30.5086 47.7243 30.6912 48.1635 31.0322C48.4946 31.2853 48.6025 31.5288 48.5374 31.6002Z" fill="#263238"/>
<path d="M37.7328 35.3074C37.7457 35.6031 37.6432 35.8924 37.4471 36.1141C37.251 36.3358 36.9765 36.4728 36.6813 36.4961C36.5378 36.5108 36.3928 36.4964 36.2549 36.4537C36.1171 36.4109 35.9894 36.3408 35.8794 36.2474C35.7693 36.154 35.6793 36.0394 35.6147 35.9104C35.5502 35.7813 35.5123 35.6406 35.5035 35.4965C35.4919 35.2011 35.5948 34.9126 35.7907 34.6912C35.9866 34.4697 36.2603 34.3324 36.555 34.3078C36.6984 34.2938 36.8431 34.3088 36.9806 34.3518C37.1182 34.3948 37.2456 34.465 37.3555 34.5583C37.4653 34.6515 37.5553 34.7658 37.6202 34.8945C37.685 35.0232 37.7233 35.1636 37.7328 35.3074Z" fill="#263238"/>
<path d="M37.5293 31.6136C37.4054 31.7531 36.6584 31.1722 35.5907 31.1762C34.5229 31.1802 33.7265 31.7528 33.6051 31.6399C33.5485 31.5793 33.6978 31.34 34.0239 31.0691C34.4852 30.7336 35.0407 30.5527 35.6111 30.5522C36.1688 30.5468 36.712 30.7298 37.1527 31.0717C37.4835 31.3086 37.5865 31.5505 37.5293 31.6136Z" fill="#263238"/>
<path d="M41.2161 39.9796C41.8526 39.8028 42.5049 39.6886 43.1636 39.6387C43.4705 39.6043 43.7639 39.5441 43.786 39.3678C43.8082 39.1915 43.726 38.9345 43.575 38.6562L42.6494 36.8404C41.8729 35.291 41.1772 33.7024 40.565 32.081C40.7024 32.0373 41.8498 34.094 43.1358 36.6783L44.0243 38.5096C44.1409 38.7772 44.3429 39.0821 44.19 39.4549C44.1377 39.5502 44.0662 39.6336 43.9799 39.6996C43.8936 39.7657 43.7945 39.8131 43.689 39.8388C43.5187 39.8807 43.3448 39.9063 43.1697 39.9153C42.5221 39.9992 41.8679 40.0207 41.2161 39.9796Z" fill="#263238"/>
<path d="M40.9151 51.9194C36.8104 52.1039 32.7382 51.1145 29.1757 49.0674C29.1757 49.0674 32.2447 55.3646 40.944 54.2661L40.9151 51.9194Z" fill="#6F4439"/>
<path d="M37.7722 28.5461C37.6522 28.9346 36.6014 28.6745 35.3507 28.7997C34.1 28.925 33.0669 29.3221 32.9255 28.9606C32.8648 28.791 33.0866 28.4394 33.4949 28.0593C34.0229 27.6357 34.6648 27.3785 35.3392 27.3203C35.9858 27.2576 36.6354 27.4054 37.1912 27.7417C37.598 28.029 37.8299 28.3593 37.7722 28.5461Z" fill="#263238"/>
<path d="M48.7975 27.7382C48.6068 28.094 47.691 27.8326 46.6678 27.9366C45.6445 28.0405 44.7644 28.3611 44.5261 28.0342C44.4249 27.8737 44.5312 27.5295 44.8881 27.1765C45.3474 26.7487 45.9403 26.4925 46.5667 26.451C47.193 26.4022 47.8164 26.5758 48.3274 26.9412C48.7262 27.2368 48.8817 27.5703 48.7975 27.7382Z" fill="#263238"/>
<path d="M24.1795 33.903C24.1795 33.903 18.5008 32.0243 18.8253 37.5111C19.1497 42.9979 24.4197 41.4753 24.421 41.3141C24.4223 41.153 24.1795 33.903 24.1795 33.903Z" fill="#AE7461"/>
<path d="M22.674 39.3393C22.6494 39.3317 22.5877 39.4096 22.4366 39.4975C22.223 39.6085 21.9742 39.6303 21.7445 39.5584C21.1692 39.3806 20.6436 38.5018 20.5536 37.5205C20.5146 37.0538 20.5752 36.5842 20.7315 36.1427C20.7698 35.9698 20.8493 35.8087 20.9634 35.6732C21.0775 35.5377 21.2228 35.4319 21.3867 35.3648C21.4915 35.3296 21.6053 35.3326 21.7081 35.3732C21.8108 35.4138 21.8959 35.4895 21.9483 35.5868C22.0265 35.7349 21.9979 35.8446 22.0274 35.8537C22.0569 35.8628 22.1392 35.7536 22.0789 35.5302C22.0421 35.3984 21.9622 35.2827 21.8519 35.2015C21.7014 35.1046 21.5192 35.0696 21.3435 35.1037C21.1266 35.1666 20.9292 35.2834 20.7696 35.4432C20.6101 35.603 20.4935 35.8005 20.4309 36.0175C20.2322 36.5068 20.1534 37.0365 20.2012 37.5625C20.3005 38.6705 20.9131 39.6516 21.695 39.8232C21.8405 39.8549 21.9913 39.8535 22.1363 39.819C22.2812 39.7845 22.4165 39.7179 22.5322 39.624C22.6705 39.4729 22.6937 39.3454 22.674 39.3393Z" fill="#6F4439"/>
<path d="M40.6289 42.6289C40.6167 42.6683 40.3918 42.8035 39.9461 42.8166C39.3553 42.8321 38.7771 42.6438 38.3088 42.2832C37.8405 41.9227 37.5105 41.4119 37.3744 40.8368C37.2784 40.3978 37.3359 40.1247 37.3847 40.1236C37.4335 40.1225 37.4881 40.3818 37.6458 40.7429C37.8368 41.2205 38.1491 41.64 38.5517 41.9601C38.9645 42.2671 39.4491 42.4633 39.9593 42.5298C40.3417 42.5995 40.6017 42.5775 40.6289 42.6289Z" fill="#263238"/>
<g opacity="0.4">
<path d="M33.3408 37.7513C33.6163 37.4673 33.9803 37.2853 34.3728 37.2354C34.6741 37.2259 34.9756 37.2504 35.2714 37.3083C35.5692 37.3719 35.8344 37.5398 36.0192 37.7818C36.1076 37.9047 36.1578 38.0509 36.1638 38.2021C36.1697 38.3534 36.1311 38.503 36.0526 38.6324C35.898 38.814 35.687 38.9385 35.4532 38.9859C35.0686 39.0977 34.6671 39.1396 34.2677 39.1097C34.0889 39.109 33.9123 39.0706 33.7494 38.9971C33.5865 38.9236 33.441 38.8165 33.3222 38.6829C33.2209 38.5478 33.1677 38.3827 33.1711 38.2139C33.1744 38.0451 33.2342 37.8823 33.3408 37.7513Z" fill="#6F4439"/>
</g>
<g opacity="0.4">
<path d="M46.5305 37.7989C46.806 37.5148 47.17 37.3328 47.5626 37.2829C47.8639 37.2729 48.1654 37.2974 48.4611 37.3559C48.76 37.4188 49.0254 37.589 49.2074 37.8343C49.2964 37.9569 49.3471 38.1031 49.353 38.2545C49.359 38.4059 49.3199 38.5557 49.2408 38.6849C49.0857 38.8659 48.8749 38.9902 48.6415 39.0383C48.2571 39.1515 47.8553 39.1934 47.4559 39.1621C47.2769 39.1628 47.0999 39.125 46.9368 39.0514C46.7737 38.9777 46.6283 38.87 46.5104 38.7353C46.4081 38.5997 46.3545 38.4335 46.3581 38.2636C46.3618 38.0937 46.4225 37.93 46.5305 37.7989Z" fill="#6F4439"/>
</g>
<path d="M20.4815 26.792C20.526 25.3068 21.0495 23.8757 21.9738 22.7123C22.8757 21.5367 23.3444 19.166 24.5498 18.3157C27.1351 16.486 30.7123 16.4495 33.8115 15.8505C36.9108 15.2515 41.7625 13.5134 44.6153 14.8798L51.7257 23.0022C51.3979 24.3768 49.2679 25.0814 48.4309 24.478C48.0143 24.1705 47.6932 23.7513 47.5048 23.2689C47.3164 22.7865 47.2685 22.2606 47.3664 21.7521C45.7408 22.5156 42.5871 21.5302 42.0352 19.8299C40.3855 22.0134 37.9692 22.6511 35.6844 21.2071C35.695 21.9388 35.5167 22.6608 35.1667 23.3035C34.8168 23.9462 34.3071 24.4878 33.6868 24.876C33.0665 25.2642 32.3566 25.486 31.6257 25.5198C30.8947 25.5537 30.1673 25.3985 29.5138 25.0692C30.2703 26.1375 30.5808 27.4584 30.3796 28.7519C30.0981 30.0115 28.9049 31.1187 27.6205 30.9696C28.3244 31.7066 28.8236 32.6147 29.0687 33.604C29.1875 34.0981 29.1923 34.6128 29.0829 35.109C28.9734 35.6053 28.7524 36.0701 28.4368 36.4683C28.1096 36.8584 27.6654 37.1326 27.1701 37.2502C26.6748 37.3679 26.1547 37.3227 25.6871 37.1215C24.9819 36.6797 24.4299 36.0314 24.1062 35.2648L22.2175 31.7724C21.3642 30.2105 20.485 28.576 20.4815 26.792Z" fill="#263238"/>
<path d="M17.4028 26.0077C17.4274 26.0153 17.5076 25.6685 17.7947 25.1054C18.2184 24.316 18.875 23.6763 19.6752 23.2733L19.7509 23.2375L19.723 23.1534C19.5438 22.4989 19.4976 21.8151 19.587 21.1424C19.6765 20.4697 19.8998 19.8217 20.2439 19.2368C20.6708 18.5263 21.2714 17.9362 21.9894 17.5219C22.7073 17.1077 23.5188 16.883 24.3475 16.869C24.882 16.862 25.4141 16.941 25.9236 17.1028L26.1448 17.1712L26.1171 16.9472C26.0429 16.2234 26.1231 15.4921 26.3523 14.8015C26.5814 14.111 26.9544 13.4769 27.4466 12.941C28.2508 12.0725 29.3444 11.5274 30.522 11.4082C31.3076 11.3175 32.1035 11.4051 32.8506 11.6645C33.3816 11.8286 33.6379 12.0102 33.6505 11.9871C33.663 11.964 33.5972 11.9329 33.4701 11.856C33.2852 11.7408 33.0901 11.6427 32.8874 11.5628C32.131 11.259 31.3132 11.1392 30.5014 11.2133C29.2654 11.3098 28.1096 11.8627 27.2588 12.7645C26.7319 13.3237 26.3313 13.9896 26.0842 14.7172C25.8371 15.4447 25.7492 16.2168 25.8265 16.9812L26.02 16.8256C24.9059 16.464 23.7021 16.4904 22.6049 16.9007C21.5078 17.311 20.5819 18.0808 19.9784 19.0847C19.6219 19.7009 19.395 20.3834 19.3118 21.0903C19.2286 21.7973 19.2907 22.5138 19.4944 23.1959L19.5324 23.073C18.7125 23.5109 18.0553 24.2012 17.6582 25.0417C17.5514 25.2654 17.4682 25.4996 17.4099 25.7406C17.3909 25.8284 17.3885 25.919 17.4028 26.0077Z" fill="#455A64"/>
</g>
<rect x="1" y="1" width="62" height="62" rx="31" stroke="#576CBE" stroke-width="2"/>
<defs>
<clipPath id="clip0_5282_69304">
<rect width="64" height="64" rx="32" fill="white"/>
</clipPath>
</defs>
</svg>
