<svg width="64" height="64" viewBox="0 0 64 64" fill="none" xmlns="http://www.w3.org/2000/svg">
<g clip-path="url(#clip0_5282_69307)">
<rect width="64" height="64" rx="32" fill="#E8EBF6"/>
<path d="M40.8796 53.2422L22.6331 53.6676L20.9316 60.4885C20.9316 60.4885 25.8421 64.6826 26.3347 64.8617C26.8272 65.0408 38.2228 67.0035 38.2228 67.0035C38.2228 67.0035 50.7378 61.6303 50.5737 61.6826C50.4095 61.7348 40.8796 53.2422 40.8796 53.2422Z" fill="#AE7461"/>
<path d="M54.103 35.4163C52.991 32.8566 49.6253 32.0805 48.0358 29.7969L14.1027 32.4312C13.043 33.7894 11.4534 35.5283 10.7444 37.1029C9.97962 38.6648 9.79704 40.4483 10.2295 42.1328C10.4679 42.9615 10.9405 43.7037 11.5905 44.2703C12.2405 44.8369 13.0403 45.2038 13.8937 45.3268C13.6624 47.2298 15.3266 48.9761 17.1997 49.394C19.0729 49.812 21.0206 49.1776 22.7072 48.2821C25.058 49.3045 27.4834 50.3493 30.0506 50.4388C32.6177 50.5284 35.3864 49.4239 36.5432 47.1328C38.5553 48.0259 40.6874 48.6193 42.8716 48.894C43.9646 49.022 45.0724 48.91 46.1176 48.5658C47.1629 48.2217 48.1206 47.6537 48.9238 46.9015C50.4164 45.3119 50.8119 42.5731 49.3716 40.9313C50.1048 41.1246 50.8777 41.1076 51.6017 40.8821C52.3257 40.6566 52.9715 40.2317 53.4652 39.6562C53.959 39.0807 54.2806 38.3778 54.3934 37.6279C54.5062 36.8781 54.4056 36.1116 54.103 35.4163Z" fill="#A7A7A7"/>
<path d="M47.9156 22.17C48.5974 20.8119 48.9337 19.3065 48.8946 17.7874C48.8556 16.2683 48.4424 14.7822 47.6917 13.4609L43.1245 40.1925C44.055 40.2794 44.9928 40.1402 45.8579 39.7865C46.723 39.4329 47.4898 38.8754 48.093 38.1616C48.6962 37.4477 49.1179 36.5986 49.3222 35.6866C49.5265 34.7746 49.5073 33.8268 49.2663 32.9238C50.6992 31.2223 51.841 29.1252 51.7738 26.9088C51.7067 24.6924 50.1246 22.4088 47.9156 22.17Z" fill="#A7A7A7"/>
<path d="M48.2682 18.4445C49.4324 15.1311 47.8279 11.2504 44.9995 9.17579C42.1712 7.10115 38.395 6.63099 34.9398 7.25786C32.2233 7.75786 29.3576 9.14594 28.4099 11.7355C26.4098 10.743 22.8874 11.1758 20.9994 12.3773C20.0641 12.9963 19.3002 13.8413 18.7784 14.834C18.2566 15.8267 17.9938 16.9351 18.0143 18.0565C16.5722 18.4643 15.2603 19.2383 14.2059 20.3032C13.1515 21.3681 12.3905 22.6876 11.9969 24.1336C11.6033 25.5796 11.5904 27.1028 11.9596 28.5552C12.3288 30.0076 13.0675 31.3397 14.1038 32.4222C11.6709 35.3178 12.753 40.8775 15.156 43.7955C17.559 46.7134 20.8426 47.2358 24.5665 47.8701C29.6711 48.7358 35.1636 48.1985 39.589 45.5044C42.7653 43.5756 45.2239 40.6612 46.5901 37.2054C47.9562 33.7495 48.1551 29.9418 47.1563 26.3625C46.7539 25.3001 46.5344 24.1773 46.507 23.0416C46.6413 21.4072 47.716 20.0117 48.2682 18.4445Z" fill="#A7A7A7"/>
<path d="M33.8505 63.2609C31.6354 63.5296 29.403 62.9212 27.6306 61.5657C25.8581 60.2102 24.6862 58.2152 24.3653 56.0071L20.3951 28.3501C19.0892 20.9546 22.3056 14.0291 29.731 12.9321L30.4251 12.8649C33.7856 12.5672 37.1352 13.5449 39.8079 15.6037C42.4807 17.6625 44.2808 20.6517 44.8506 23.977C45.9476 30.3949 47.0894 37.4995 47.3356 40.9696C47.8879 48.1563 40.8057 49.9249 40.8057 49.9249C40.8057 49.9249 40.9998 51.5817 41.2834 53.6563C41.4305 54.7775 41.3537 55.9168 41.0573 57.0081C40.7609 58.0994 40.2508 59.121 39.5566 60.0137C38.8625 60.9064 37.998 61.6524 37.0134 62.2085C36.0288 62.7647 34.9435 63.1198 33.8206 63.2534L33.8505 63.2609Z" fill="#AE7461"/>
<path d="M40.8046 49.9072C37.5015 50.2622 34.1673 49.6312 31.2224 48.0938C31.2224 48.0938 33.9538 53.3177 41.0583 52.0191L40.8046 49.9072Z" fill="#946151"/>
<path d="M34.4914 38.9932C34.63 38.8068 34.8087 38.6539 35.0142 38.5457C35.2198 38.4376 35.447 38.3769 35.6791 38.3683C35.9112 38.3596 36.1423 38.4032 36.3554 38.4957C36.5684 38.5882 36.758 38.7274 36.9101 38.903C37.0622 39.0785 37.173 39.286 37.2343 39.51C37.2955 39.7341 37.3057 39.969 37.2641 40.1975C37.2225 40.4261 37.1301 40.6423 36.9938 40.8304C36.8575 41.0185 36.6807 41.1735 36.4765 41.2842C36.094 41.477 35.6591 41.5399 35.2377 41.4633C34.9154 41.4258 34.6141 41.2844 34.3794 41.0603C34.2286 40.8827 34.125 40.6699 34.078 40.4417C34.0311 40.2135 34.0423 39.9771 34.1108 39.7544C34.2084 39.3838 34.4074 39.0478 34.6854 38.7842" fill="#946151"/>
<path d="M42.6692 31.4754C42.6967 31.743 42.6184 32.0107 42.451 32.2213C42.2837 32.4318 42.0406 32.5686 41.7737 32.6023C41.6442 32.6234 41.5117 32.6185 41.3841 32.5877C41.2565 32.5569 41.1363 32.501 41.0306 32.4231C40.9249 32.3452 40.8359 32.247 40.7687 32.1343C40.7015 32.0215 40.6575 31.8964 40.6394 31.7664C40.612 31.4997 40.6906 31.2329 40.8581 31.0235C41.0256 30.8141 41.2687 30.6789 41.5349 30.647C41.664 30.6248 41.7963 30.6287 41.9239 30.6586C42.0514 30.6884 42.1717 30.7436 42.2775 30.8209C42.3834 30.8982 42.4726 30.9959 42.5399 31.1084C42.6071 31.2208 42.6511 31.3456 42.6692 31.4754Z" fill="#263238"/>
<path d="M43.6543 27.65C43.5424 27.7917 42.714 27.2843 41.6095 27.3888C40.505 27.4932 39.7513 28.135 39.617 27.9858C39.4826 27.8365 39.6617 27.6798 39.9901 27.3888C40.4403 27.0195 40.992 26.7956 41.5722 26.747C42.1454 26.6911 42.7213 26.822 43.214 27.1201C43.5722 27.3514 43.7066 27.5828 43.6543 27.65Z" fill="#263238"/>
<path d="M33.1251 32.3096C33.1525 32.5764 33.0739 32.8432 32.9064 33.0526C32.7389 33.262 32.4959 33.3972 32.2296 33.4291C32.1005 33.4513 31.9682 33.4474 31.8406 33.4175C31.713 33.3877 31.5928 33.3324 31.487 33.2552C31.3811 33.1779 31.292 33.0801 31.2247 32.9677C31.1574 32.8553 31.1134 32.7305 31.0953 32.6007C31.0698 32.3335 31.1488 32.0668 31.3158 31.8567C31.4828 31.6465 31.7247 31.5093 31.9908 31.4738C32.1203 31.4527 32.2528 31.4576 32.3804 31.4884C32.508 31.5191 32.6282 31.5751 32.7339 31.653C32.8396 31.7308 32.9286 31.829 32.9958 31.9418C33.063 32.0546 33.107 32.1796 33.1251 32.3096Z" fill="#263238"/>
<path d="M33.0672 28.8453C32.9478 28.9945 32.1194 28.4871 31.0224 28.5841C29.9254 28.6811 29.1567 29.3304 29.0224 29.1886C28.8881 29.0468 29.0672 28.8826 29.403 28.5915C29.8446 28.2165 30.3927 27.9894 30.9702 27.9423C31.5457 27.8864 32.124 28.0173 32.6194 28.3154C32.9851 28.5468 33.1194 28.7781 33.0672 28.8453Z" fill="#263238"/>
<path d="M37.5366 36.713C38.1019 36.4824 38.6934 36.322 39.2978 36.2354C39.574 36.1757 39.8351 36.1011 39.8725 35.8996C39.8689 35.6072 39.7751 35.3231 39.6038 35.0861L38.5814 33.0115C37.156 30.0637 36.0963 27.6234 36.2157 27.5712C36.3351 27.5189 37.5889 29.8622 39.0142 32.7951L40.0068 34.8847C40.2137 35.2079 40.3009 35.5934 40.2531 35.9742C40.2183 36.077 40.1616 36.171 40.0869 36.2496C40.0121 36.3282 39.9211 36.3896 39.8202 36.4294C39.6681 36.4824 39.5103 36.5175 39.3501 36.5339C38.7565 36.6757 38.1464 36.736 37.5366 36.713Z" fill="#263238"/>
<path d="M33.3173 24.6767C33.2128 24.9827 32.1009 24.8558 30.8099 25.0274C29.5188 25.1991 28.4665 25.5722 28.2874 25.3036C28.2128 25.1767 28.3844 24.8931 28.8098 24.5573C29.3701 24.1928 30.0058 23.9604 30.669 23.8777C31.3323 23.7949 32.0056 23.864 32.6382 24.0797C33.1158 24.2961 33.3621 24.5349 33.3173 24.6767Z" fill="#E0E0E0"/>
<path d="M42.4591 24.1479C42.2576 24.3867 41.5039 24.0957 40.5934 24.036C39.6829 23.9763 38.8919 24.1256 38.7277 23.8569C38.6531 23.7226 38.7874 23.4763 39.1382 23.2599C39.6025 22.9886 40.1398 22.8686 40.6755 22.9166C41.2208 22.9478 41.7426 23.1488 42.168 23.4912C42.4591 23.7673 42.5561 24.0285 42.4591 24.1479Z" fill="#E0E0E0"/>
<path d="M21.4616 33.6889C21.3348 33.6889 16.4019 32.674 16.984 37.5621C17.5661 42.4502 22.3646 40.8532 22.3572 40.7114C22.3497 40.5696 21.4616 33.6889 21.4616 33.6889Z" fill="#AE7461"/>
<path d="M20.6503 39.0483C20.6503 39.0483 20.5682 39.1155 20.4338 39.205C20.2402 39.3107 20.0148 39.3426 19.7995 39.2946C19.4594 39.1321 19.1688 38.8819 18.9576 38.5697C18.7464 38.2575 18.6222 37.8946 18.598 37.5185C18.5314 37.1017 18.5621 36.6751 18.6876 36.2722C18.7132 36.1116 18.7775 35.9598 18.8751 35.8298C18.9726 35.6997 19.1003 35.5954 19.2473 35.5259C19.3425 35.4882 19.448 35.4856 19.545 35.5184C19.642 35.5512 19.7243 35.6173 19.7771 35.705C19.8592 35.8319 19.8443 35.9289 19.8667 35.9363C19.8891 35.9438 19.9637 35.8393 19.8667 35.6453C19.8281 35.5271 19.7488 35.4266 19.6428 35.3617C19.5704 35.3189 19.4903 35.291 19.407 35.2794C19.3237 35.2679 19.239 35.273 19.1577 35.2945C18.9615 35.3582 18.785 35.4712 18.6451 35.6228C18.5053 35.7745 18.4068 35.9595 18.3592 36.1602C18.1999 36.6098 18.1537 37.0916 18.2249 37.5632C18.2542 38.0006 18.4113 38.4197 18.6766 38.7686C18.9419 39.1175 19.3038 39.3808 19.7174 39.5259C19.8506 39.5456 19.9865 39.5358 20.1155 39.4971C20.2445 39.4584 20.3633 39.3918 20.4637 39.302C20.6577 39.1453 20.6652 39.0558 20.6503 39.0483Z" fill="#946151"/>
<path d="M33.6186 38.9322C33.7156 38.783 34.6559 39.3128 35.9096 39.5964C37.1634 39.88 38.238 39.8352 38.2679 40.0143C38.2977 40.1934 37.1634 40.5143 35.7753 40.186C34.3872 39.8576 33.5141 39.0516 33.6186 38.9322Z" fill="#263238"/>
<path d="M32.5158 40.6304C32.5158 40.6304 32.374 40.6304 32.1949 40.5632C32.079 40.4923 31.9784 40.3991 31.8989 40.2889C31.8195 40.1787 31.7628 40.0538 31.7322 39.9214C31.6826 39.6646 31.7306 39.3986 31.8665 39.1751C31.9859 39.0035 32.1053 38.9513 32.1277 38.9736C32.1501 38.996 31.9188 39.4065 32.0307 39.8841C32.1426 40.3617 32.5531 40.5707 32.5158 40.6304Z" fill="#946151"/>
<path d="M29.6636 32.6507C29.6636 32.7253 29.3054 32.9193 28.7905 32.8895C28.2755 32.8596 27.9099 32.6283 27.9472 32.5611C27.9845 32.4939 28.3502 32.5611 28.8054 32.5611C29.2606 32.5611 29.6412 32.5686 29.6636 32.6507Z" fill="#946151"/>
<path d="M29.9529 33.0459C29.9529 33.128 29.632 33.2101 29.2813 33.3892C28.9305 33.5683 28.6693 33.7698 28.6021 33.7175C28.535 33.6653 28.729 33.322 29.1469 33.1205C29.5648 32.919 29.9604 32.9638 29.9529 33.0459Z" fill="#946151"/>
<path d="M45.2918 30.4033C45.359 30.448 45.2022 30.7466 44.8366 30.8958C44.4709 31.0451 44.1575 30.963 44.1724 30.8958C44.1873 30.8286 44.4336 30.7615 44.7172 30.6346C45.0008 30.5078 45.2246 30.3436 45.2918 30.4033Z" fill="#946151"/>
<path d="M45.4371 31.4711C45.4371 31.5532 45.1609 31.6428 44.8027 31.6204C44.4445 31.598 44.1759 31.4786 44.1908 31.3965C44.2057 31.3144 44.4893 31.2995 44.8251 31.3219C45.1609 31.3443 45.4296 31.3891 45.4371 31.4711Z" fill="#946151"/>
<path d="M31.9257 41.0303C31.9257 41.105 31.5152 40.993 31.3138 40.59C31.1123 40.187 31.2615 39.8438 31.3138 39.8438C31.366 39.8438 31.4108 40.1572 31.5675 40.4632C31.7242 40.7691 31.963 40.9482 31.9257 41.0303Z" fill="#946151"/>
<path d="M28.019 53.3187C28.1495 52.9681 28.178 52.5877 28.1011 52.2216C28.0509 52.0479 27.9672 51.8857 27.8548 51.744C27.705 51.59 27.5371 51.4547 27.3548 51.341C27.1088 51.1939 26.9235 50.9636 26.8324 50.6918C26.7884 50.386 26.8661 50.0752 27.0488 49.8261C27.1971 49.6368 27.2877 49.4088 27.31 49.1694C27.2966 49.0645 27.261 48.9638 27.2057 48.8737C27.1504 48.7837 27.0765 48.7064 26.9891 48.647C26.8175 48.4903 26.6309 48.3559 26.4742 48.1918C26.3167 48.0314 26.2147 47.8248 26.1831 47.6022C26.182 47.4475 26.2126 47.2942 26.2729 47.1518C26.3332 47.0093 26.422 46.8807 26.5339 46.7738C26.6831 46.6246 26.7727 46.5574 26.7876 46.5723C26.8025 46.5873 26.7354 46.6768 26.6309 46.8485C26.4621 47.0593 26.3771 47.3251 26.3921 47.5947C26.4369 47.9082 26.7876 48.147 27.1384 48.453C27.2591 48.5397 27.3602 48.6511 27.4348 48.7797C27.5094 48.9083 27.5559 49.0513 27.5712 49.1992C27.5573 49.4991 27.4532 49.7878 27.2727 50.0276C27.1294 50.2094 27.0601 50.4386 27.0787 50.6694C27.1567 50.8747 27.3012 51.0481 27.4891 51.1619C27.6839 51.2969 27.8597 51.4576 28.0115 51.6395C28.1683 51.8516 28.2661 52.1015 28.295 52.3637C28.3238 52.6259 28.2827 52.891 28.1757 53.1321C28.1235 53.2664 28.0264 53.3187 28.019 53.3187Z" fill="#946151"/>
<path d="M29.9925 53.0426C29.9851 52.744 29.9111 52.4508 29.7761 52.1844C29.6492 51.9307 29.4477 51.6546 29.2611 51.3038C29.1572 51.1132 29.0865 50.9062 29.0522 50.6919C29.0183 50.4497 29.0572 50.2029 29.1641 49.9829C29.2172 49.9107 29.2552 49.8286 29.2757 49.7414C29.2962 49.6542 29.2989 49.5637 29.2835 49.4754C29.2161 49.3196 29.1012 49.189 28.9551 49.1023C28.7983 48.9931 28.651 48.8708 28.5149 48.7366C28.3686 48.5766 28.2826 48.3706 28.2717 48.1541C28.2608 47.9375 28.3257 47.724 28.4552 47.5501C28.5671 47.4083 28.6567 47.3709 28.6716 47.3859C28.6865 47.4008 28.6193 47.4754 28.5522 47.6098C28.467 47.802 28.446 48.0166 28.4925 48.2217C28.5447 48.4829 28.7835 48.662 29.1193 48.8784C29.319 48.9954 29.4759 49.1732 29.5671 49.3859C29.5988 49.5123 29.6039 49.6439 29.5821 49.7724C29.5602 49.9008 29.5119 50.0233 29.4402 50.1322C29.3633 50.3023 29.3298 50.4889 29.3428 50.6752C29.3559 50.8614 29.415 51.0416 29.5149 51.1993C29.6716 51.5352 29.8582 51.8337 29.9701 52.1173C30.0702 52.3367 30.1113 52.5785 30.0895 52.8187C30.0671 52.968 30.0074 53.0501 29.9925 53.0426Z" fill="#946151"/>
<path d="M45.444 20.0637C45.0195 18.8623 44.347 17.7637 43.4701 16.8393C42.5932 15.9149 41.5317 15.1853 40.3544 14.698C38.026 13.6681 34.72 12.2651 32.1827 12.3472C29.4456 12.5027 26.7736 13.2432 24.3468 14.5188C21.5931 16.0114 19.7423 19.392 18.802 22.3846C17.8617 25.3771 19.1677 28.6607 19.6975 31.7652L20.4886 34.7503C20.8468 35.7504 22.3095 35.9071 23.1752 35.3026C23.9791 34.6023 24.5386 33.6638 24.7722 32.6235C26.2647 27.9593 27.3245 23.0264 26.72 18.1532C29.0509 19.7006 31.6199 20.8552 34.3245 21.5711C34.9502 21.7872 35.621 21.8386 36.2723 21.7204C36.5946 21.6534 36.8858 21.4817 37.1004 21.2319C37.315 20.9822 37.4411 20.6686 37.4589 20.3398C38.5528 21.6383 39.8982 22.7019 41.4141 23.4667C42.3544 23.9518 43.5037 24.3174 44.4515 23.8398C44.7635 23.6644 45.0329 23.4223 45.2406 23.1307C45.4483 22.8392 45.5891 22.5054 45.653 22.1532C45.7544 21.4501 45.6826 20.7328 45.444 20.0637Z" fill="#A7A7A7"/>
<path d="M12.0947 28.1059C12.0947 28.0462 13.147 28.1059 14.7888 27.8745C15.752 27.7112 16.6951 27.446 17.6022 27.0835C18.7049 26.6289 19.7536 26.0532 20.7291 25.367C22.5111 24.1169 24.0006 22.495 25.0948 20.6133C25.9307 19.1729 26.2366 18.1655 26.2963 18.1879C26.2602 18.444 26.1925 18.6946 26.0948 18.9341C25.8754 19.5629 25.6033 20.172 25.2814 20.7551C24.2198 22.704 22.7202 24.3798 20.9008 25.6506C19.9076 26.3533 18.8325 26.9322 17.6992 27.3745C16.7748 27.7373 15.8102 27.9879 14.8261 28.1208C14.1636 28.2122 13.4943 28.2447 12.8261 28.2178C12.579 28.2067 12.3338 28.1692 12.0947 28.1059Z" fill="white"/>
<path d="M12.8271 30.3201C12.8271 30.253 13.8272 30.2231 15.3869 29.85C16.2965 29.623 17.1872 29.3261 18.0511 28.9619C20.1653 28.0546 22.0761 26.7325 23.6705 25.0738C24.3235 24.3966 24.9176 23.6651 25.4467 22.8873C26.3422 21.5589 26.7302 20.6484 26.7899 20.6484C26.7256 20.8746 26.6407 21.0945 26.5362 21.3052C26.4315 21.562 26.3093 21.8113 26.1705 22.0514C26.006 22.3783 25.8216 22.6949 25.6183 22.9992C25.1092 23.7997 24.5245 24.5494 23.872 25.238C23.0713 26.0871 22.1861 26.8522 21.2302 27.5216C20.2647 28.1774 19.2374 28.7373 18.163 29.1933C17.2817 29.5595 16.367 29.8394 15.4316 30.0291C15.0769 30.1098 14.7182 30.172 14.357 30.2157C14.0828 30.2589 13.8061 30.2838 13.5286 30.2903C13.2962 30.3213 13.0614 30.3313 12.8271 30.3201Z" fill="white"/>
<path d="M43.3035 23.1327C43.3035 23.1327 43.4826 23.1328 43.8035 23.0432C44.266 22.9168 44.6812 22.6573 44.9975 22.2969C45.2505 22.0399 45.435 21.7234 45.534 21.3767C45.6331 21.0299 45.6437 20.6637 45.5647 20.3118C45.456 19.8641 45.2186 19.458 44.8818 19.1436C44.5449 18.8293 44.1233 18.6206 43.6691 18.5432H43.4975L43.5647 18.3864C43.9373 17.4078 44.0314 16.345 43.8364 15.3161C43.6414 14.2872 43.1651 13.3325 42.4602 12.558C41.281 11.3035 39.6936 10.5099 37.9825 10.3192C36.5718 10.1602 35.1435 10.3209 33.8034 10.7894C32.8961 11.1083 32.0235 11.5183 31.1989 12.0133C30.9079 12.2132 30.6065 12.3976 30.2959 12.5655C30.2959 12.5655 30.3556 12.4983 30.4974 12.3864C30.6392 12.2745 30.8556 12.1103 31.1392 11.9162C31.9464 11.3739 32.8158 10.9305 33.7288 10.5953C35.0942 10.0803 36.561 9.89121 38.0124 10.0431C39.8135 10.2188 41.4883 11.0469 42.7214 12.3715C43.464 13.1863 43.9632 14.1931 44.1624 15.2774C44.3616 16.3618 44.2528 17.4803 43.8482 18.5058L43.7438 18.3267C44.2476 18.4142 44.714 18.6497 45.0835 19.0032C45.453 19.3568 45.7088 19.8123 45.8184 20.3118C45.8975 20.6953 45.8774 21.0927 45.7598 21.4662C45.6423 21.8398 45.4312 22.1771 45.1468 22.4462C44.7992 22.8063 44.3478 23.049 43.8557 23.1402C43.7291 23.153 43.6017 23.153 43.4751 23.1402C43.3482 23.1477 43.3035 23.1402 43.3035 23.1327Z" fill="white"/>
</g>
<rect x="1" y="1" width="62" height="62" rx="31" stroke="#576CBE" stroke-width="2"/>
<defs>
<clipPath id="clip0_5282_69307">
<rect width="64" height="64" rx="32" fill="white"/>
</clipPath>
</defs>
</svg>
