<svg width="64" height="64" viewBox="0 0 64 64" fill="none" xmlns="http://www.w3.org/2000/svg">
<g clip-path="url(#clip0_5282_69303)">
<rect width="64" height="64" rx="32" fill="#E8EBF6"/>
<path d="M40.8796 54.2422L22.6331 54.6676L20.9316 61.4885C20.9316 61.4885 25.8421 65.6826 26.3347 65.8617C26.8272 66.0408 38.2228 68.0035 38.2228 68.0035C38.2228 68.0035 50.7378 62.6303 50.5737 62.6826C50.4095 62.7348 40.8796 54.2422 40.8796 54.2422Z" fill="#FFBF9D"/>
<path d="M54.103 36.4163C52.991 33.8566 49.6253 33.0805 48.0358 30.7969L14.1027 33.4312C13.043 34.7894 11.4534 36.5283 10.7444 38.1029C9.97962 39.6648 9.79704 41.4483 10.2295 43.1328C10.4679 43.9615 10.9405 44.7037 11.5905 45.2703C12.2405 45.8369 13.0403 46.2038 13.8937 46.3268C13.6624 48.2298 15.3266 49.9761 17.1997 50.394C19.0729 50.812 21.0206 50.1776 22.7072 49.2821C25.058 50.3045 27.4834 51.3493 30.0506 51.4388C32.6177 51.5284 35.3864 50.4239 36.5432 48.1328C38.5553 49.0259 40.6874 49.6193 42.8716 49.894C43.9646 50.022 45.0724 49.91 46.1176 49.5658C47.1629 49.2217 48.1206 48.6537 48.9238 47.9015C50.4164 46.3119 50.8119 43.5731 49.3716 41.9313C50.1048 42.1246 50.8777 42.1076 51.6017 41.8821C52.3257 41.6566 52.9715 41.2317 53.4652 40.6562C53.959 40.0807 54.2806 39.3778 54.3934 38.6279C54.5062 37.8781 54.4056 37.1116 54.103 36.4163Z" fill="#A7A7A7"/>
<path d="M47.9156 23.17C48.5974 21.8119 48.9337 20.3065 48.8946 18.7874C48.8556 17.2683 48.4424 15.7822 47.6917 14.4609L43.1245 41.1925C44.055 41.2794 44.9928 41.1402 45.8579 40.7865C46.723 40.4329 47.4898 39.8754 48.093 39.1616C48.6962 38.4477 49.1179 37.5986 49.3222 36.6866C49.5265 35.7746 49.5073 34.8268 49.2663 33.9238C50.6992 32.2223 51.841 30.1252 51.7738 27.9088C51.7067 25.6924 50.1246 23.4088 47.9156 23.17Z" fill="#A7A7A7"/>
<path d="M48.2682 19.4445C49.4324 16.1311 47.8279 12.2504 44.9995 10.1758C42.1712 8.10115 38.395 7.63099 34.9398 8.25786C32.2233 8.75786 29.3576 10.1459 28.4099 12.7355C26.4098 11.743 22.8874 12.1758 20.9994 13.3773C20.0641 13.9963 19.3002 14.8413 18.7784 15.834C18.2566 16.8267 17.9938 17.9351 18.0143 19.0565C16.5722 19.4643 15.2603 20.2383 14.2059 21.3032C13.1515 22.3681 12.3905 23.6876 11.9969 25.1336C11.6033 26.5796 11.5904 28.1028 11.9596 29.5552C12.3288 31.0076 13.0675 32.3397 14.1038 33.4222C11.6709 36.3178 12.753 41.8775 15.156 44.7955C17.559 47.7134 20.8426 48.2358 24.5665 48.8701C29.6711 49.7358 35.1636 49.1985 39.589 46.5044C42.7653 44.5756 45.2239 41.6612 46.5901 38.2054C47.9562 34.7495 48.1551 30.9418 47.1563 27.3625C46.7539 26.3001 46.5344 25.1773 46.507 24.0416C46.6413 22.4072 47.716 21.0117 48.2682 19.4445Z" fill="#A7A7A7"/>
<path d="M33.8505 64.2609C31.6354 64.5296 29.403 63.9212 27.6306 62.5657C25.8581 61.2102 24.6862 59.2152 24.3653 57.0071L20.3951 29.3501C19.0892 21.9546 22.3056 15.0291 29.731 13.9321L30.4251 13.8649C33.7856 13.5672 37.1352 14.5449 39.8079 16.6037C42.4807 18.6625 44.2808 21.6517 44.8506 24.977C45.9476 31.3949 47.0894 38.4995 47.3356 41.9696C47.8879 49.1563 40.8057 50.9249 40.8057 50.9249C40.8057 50.9249 40.9998 52.5817 41.2834 54.6563C41.4305 55.7775 41.3537 56.9168 41.0573 58.0081C40.7609 59.0994 40.2508 60.121 39.5566 61.0137C38.8625 61.9064 37.998 62.6524 37.0134 63.2085C36.0288 63.7647 34.9435 64.1198 33.8206 64.2534L33.8505 64.2609Z" fill="#FFBF9D"/>
<path d="M40.8046 50.9072C37.5015 51.2622 34.1673 50.6312 31.2224 49.0938C31.2224 49.0938 33.9538 54.3177 41.0583 53.0191L40.8046 50.9072Z" fill="#FF9A6C"/>
<path d="M34.4914 39.9932C34.63 39.8068 34.8087 39.6539 35.0142 39.5457C35.2198 39.4376 35.447 39.3769 35.6791 39.3683C35.9112 39.3596 36.1423 39.4032 36.3554 39.4957C36.5684 39.5882 36.758 39.7274 36.9101 39.903C37.0622 40.0785 37.173 40.286 37.2343 40.51C37.2955 40.7341 37.3057 40.969 37.2641 41.1975C37.2225 41.4261 37.1301 41.6423 36.9938 41.8304C36.8575 42.0185 36.6807 42.1735 36.4765 42.2842C36.094 42.477 35.6591 42.5399 35.2377 42.4633C34.9154 42.4258 34.6141 42.2844 34.3794 42.0603C34.2286 41.8827 34.125 41.6699 34.078 41.4417C34.0311 41.2135 34.0423 40.9771 34.1108 40.7544C34.2084 40.3838 34.4074 40.0478 34.6854 39.7842" fill="#FF9A6C"/>
<path d="M42.6692 32.4754C42.6967 32.743 42.6184 33.0107 42.451 33.2213C42.2837 33.4318 42.0406 33.5686 41.7737 33.6023C41.6442 33.6234 41.5117 33.6185 41.3841 33.5877C41.2565 33.5569 41.1363 33.501 41.0306 33.4231C40.9249 33.3452 40.8359 33.247 40.7687 33.1343C40.7015 33.0215 40.6575 32.8964 40.6394 32.7664C40.612 32.4997 40.6906 32.2329 40.8581 32.0235C41.0256 31.8141 41.2687 31.6789 41.5349 31.647C41.664 31.6248 41.7963 31.6287 41.9239 31.6586C42.0514 31.6884 42.1717 31.7436 42.2775 31.8209C42.3834 31.8982 42.4726 31.9959 42.5399 32.1084C42.6071 32.2208 42.6511 32.3456 42.6692 32.4754Z" fill="#263238"/>
<path d="M43.6543 28.65C43.5424 28.7917 42.714 28.2843 41.6095 28.3888C40.505 28.4932 39.7513 29.135 39.617 28.9858C39.4826 28.8365 39.6617 28.6798 39.9901 28.3888C40.4403 28.0195 40.992 27.7956 41.5722 27.747C42.1454 27.6911 42.7213 27.822 43.214 28.1201C43.5722 28.3514 43.7066 28.5828 43.6543 28.65Z" fill="#263238"/>
<path d="M33.1251 33.3096C33.1525 33.5764 33.0739 33.8432 32.9064 34.0526C32.7389 34.262 32.4959 34.3972 32.2296 34.4291C32.1005 34.4513 31.9682 34.4474 31.8406 34.4175C31.713 34.3877 31.5928 34.3324 31.487 34.2552C31.3811 34.1779 31.292 34.0801 31.2247 33.9677C31.1574 33.8553 31.1134 33.7305 31.0953 33.6007C31.0698 33.3335 31.1488 33.0668 31.3158 32.8567C31.4828 32.6465 31.7247 32.5093 31.9908 32.4738C32.1203 32.4527 32.2528 32.4576 32.3804 32.4884C32.508 32.5191 32.6282 32.5751 32.7339 32.653C32.8396 32.7308 32.9286 32.829 32.9958 32.9418C33.063 33.0546 33.107 33.1796 33.1251 33.3096Z" fill="#263238"/>
<path d="M33.0672 29.8453C32.9478 29.9945 32.1194 29.4871 31.0224 29.5841C29.9254 29.6811 29.1567 30.3304 29.0224 30.1886C28.8881 30.0468 29.0672 29.8826 29.403 29.5915C29.8446 29.2165 30.3927 28.9894 30.9702 28.9423C31.5457 28.8864 32.124 29.0173 32.6194 29.3154C32.9851 29.5468 33.1194 29.7781 33.0672 29.8453Z" fill="#263238"/>
<path d="M37.5366 37.713C38.1019 37.4824 38.6934 37.322 39.2978 37.2354C39.574 37.1757 39.8351 37.1011 39.8725 36.8996C39.8689 36.6072 39.7751 36.3231 39.6038 36.0861L38.5814 34.0115C37.156 31.0637 36.0963 28.6234 36.2157 28.5712C36.3351 28.5189 37.5889 30.8622 39.0142 33.7951L40.0068 35.8847C40.2137 36.2079 40.3009 36.5934 40.2531 36.9742C40.2183 37.077 40.1616 37.171 40.0869 37.2496C40.0121 37.3282 39.9211 37.3896 39.8202 37.4294C39.6681 37.4824 39.5103 37.5175 39.3501 37.5339C38.7565 37.6757 38.1464 37.736 37.5366 37.713Z" fill="#263238"/>
<path d="M33.3173 25.6767C33.2128 25.9827 32.1009 25.8558 30.8099 26.0274C29.5188 26.1991 28.4665 26.5722 28.2874 26.3036C28.2128 26.1767 28.3844 25.8931 28.8098 25.5573C29.3701 25.1928 30.0058 24.9604 30.669 24.8777C31.3323 24.7949 32.0056 24.864 32.6382 25.0797C33.1158 25.2961 33.3621 25.5349 33.3173 25.6767Z" fill="#E0E0E0"/>
<path d="M42.4591 25.1479C42.2576 25.3867 41.5039 25.0957 40.5934 25.036C39.6829 24.9763 38.8919 25.1256 38.7277 24.8569C38.6531 24.7226 38.7874 24.4763 39.1382 24.2599C39.6025 23.9886 40.1398 23.8686 40.6755 23.9166C41.2208 23.9478 41.7426 24.1488 42.168 24.4912C42.4591 24.7673 42.5561 25.0285 42.4591 25.1479Z" fill="#E0E0E0"/>
<path d="M21.4616 34.6889C21.3348 34.6889 16.4019 33.674 16.984 38.5621C17.5661 43.4502 22.3646 41.8532 22.3572 41.7114C22.3497 41.5696 21.4616 34.6889 21.4616 34.6889Z" fill="#FFBF9D"/>
<path d="M20.6503 40.0483C20.6503 40.0483 20.5682 40.1155 20.4338 40.205C20.2402 40.3107 20.0148 40.3426 19.7995 40.2946C19.4594 40.1321 19.1688 39.8819 18.9576 39.5697C18.7464 39.2575 18.6222 38.8946 18.598 38.5185C18.5314 38.1017 18.5621 37.6751 18.6876 37.2722C18.7132 37.1116 18.7775 36.9598 18.8751 36.8298C18.9726 36.6997 19.1003 36.5954 19.2473 36.5259C19.3425 36.4882 19.448 36.4856 19.545 36.5184C19.642 36.5512 19.7243 36.6173 19.7771 36.705C19.8592 36.8319 19.8443 36.9289 19.8667 36.9363C19.8891 36.9438 19.9637 36.8393 19.8667 36.6453C19.8281 36.5271 19.7488 36.4266 19.6428 36.3617C19.5704 36.3189 19.4903 36.291 19.407 36.2794C19.3237 36.2679 19.239 36.273 19.1577 36.2945C18.9615 36.3582 18.785 36.4712 18.6451 36.6228C18.5053 36.7745 18.4068 36.9595 18.3592 37.1602C18.1999 37.6098 18.1537 38.0916 18.2249 38.5632C18.2542 39.0006 18.4113 39.4197 18.6766 39.7686C18.9419 40.1175 19.3038 40.3808 19.7174 40.5259C19.8506 40.5456 19.9865 40.5358 20.1155 40.4971C20.2445 40.4584 20.3633 40.3918 20.4637 40.302C20.6577 40.1453 20.6652 40.0558 20.6503 40.0483Z" fill="#FF9A6C"/>
<path d="M33.6186 39.9322C33.7156 39.783 34.6559 40.3128 35.9096 40.5964C37.1634 40.88 38.238 40.8352 38.2679 41.0143C38.2977 41.1934 37.1634 41.5143 35.7753 41.186C34.3872 40.8576 33.5141 40.0516 33.6186 39.9322Z" fill="#263238"/>
<path d="M32.5158 41.6304C32.5158 41.6304 32.374 41.6304 32.1949 41.5632C32.079 41.4923 31.9784 41.3991 31.8989 41.2889C31.8195 41.1787 31.7628 41.0538 31.7322 40.9214C31.6826 40.6646 31.7306 40.3986 31.8665 40.1751C31.9859 40.0035 32.1053 39.9513 32.1277 39.9736C32.1501 39.996 31.9188 40.4065 32.0307 40.8841C32.1426 41.3617 32.5531 41.5707 32.5158 41.6304Z" fill="#FF9A6C"/>
<path d="M29.6636 33.6507C29.6636 33.7253 29.3054 33.9193 28.7905 33.8895C28.2755 33.8596 27.9099 33.6283 27.9472 33.5611C27.9845 33.4939 28.3502 33.5611 28.8054 33.5611C29.2606 33.5611 29.6412 33.5686 29.6636 33.6507Z" fill="#FF9A6C"/>
<path d="M29.9529 34.0459C29.9529 34.128 29.632 34.2101 29.2813 34.3892C28.9305 34.5683 28.6693 34.7698 28.6021 34.7175C28.535 34.6653 28.729 34.322 29.1469 34.1205C29.5648 33.919 29.9604 33.9638 29.9529 34.0459Z" fill="#FF9A6C"/>
<path d="M45.2918 31.4033C45.359 31.448 45.2022 31.7466 44.8366 31.8958C44.4709 32.0451 44.1575 31.963 44.1724 31.8958C44.1873 31.8286 44.4336 31.7615 44.7172 31.6346C45.0008 31.5078 45.2246 31.3436 45.2918 31.4033Z" fill="#FF9A6C"/>
<path d="M45.4371 32.4711C45.4371 32.5532 45.1609 32.6428 44.8027 32.6204C44.4445 32.598 44.1759 32.4786 44.1908 32.3965C44.2057 32.3144 44.4893 32.2995 44.8251 32.3219C45.1609 32.3443 45.4296 32.3891 45.4371 32.4711Z" fill="#FF9A6C"/>
<path d="M31.9257 42.0303C31.9257 42.105 31.5152 41.993 31.3138 41.59C31.1123 41.187 31.2615 40.8438 31.3138 40.8438C31.366 40.8438 31.4108 41.1572 31.5675 41.4632C31.7242 41.7691 31.963 41.9482 31.9257 42.0303Z" fill="#FF9A6C"/>
<path d="M28.019 54.3187C28.1495 53.9681 28.178 53.5877 28.1011 53.2216C28.0509 53.0479 27.9672 52.8857 27.8548 52.744C27.705 52.59 27.5371 52.4547 27.3548 52.341C27.1088 52.1939 26.9235 51.9636 26.8324 51.6918C26.7884 51.386 26.8661 51.0752 27.0488 50.8261C27.1971 50.6368 27.2877 50.4088 27.31 50.1694C27.2966 50.0645 27.261 49.9638 27.2057 49.8737C27.1504 49.7837 27.0765 49.7064 26.9891 49.647C26.8175 49.4903 26.6309 49.3559 26.4742 49.1918C26.3167 49.0314 26.2147 48.8248 26.1831 48.6022C26.182 48.4475 26.2126 48.2942 26.2729 48.1518C26.3332 48.0093 26.422 47.8807 26.5339 47.7738C26.6831 47.6246 26.7727 47.5574 26.7876 47.5723C26.8025 47.5873 26.7354 47.6768 26.6309 47.8485C26.4621 48.0593 26.3771 48.3251 26.3921 48.5947C26.4369 48.9082 26.7876 49.147 27.1384 49.453C27.2591 49.5397 27.3602 49.6511 27.4348 49.7797C27.5094 49.9083 27.5559 50.0513 27.5712 50.1992C27.5573 50.4991 27.4532 50.7878 27.2727 51.0276C27.1294 51.2094 27.0601 51.4386 27.0787 51.6694C27.1567 51.8747 27.3012 52.0481 27.4891 52.1619C27.6839 52.2969 27.8597 52.4576 28.0115 52.6395C28.1683 52.8516 28.2661 53.1015 28.295 53.3637C28.3238 53.6259 28.2827 53.891 28.1757 54.1321C28.1235 54.2664 28.0264 54.3187 28.019 54.3187Z" fill="#FF9A6C"/>
<path d="M29.9925 54.0426C29.9851 53.744 29.9111 53.4508 29.7761 53.1844C29.6492 52.9307 29.4477 52.6546 29.2611 52.3038C29.1572 52.1132 29.0865 51.9062 29.0522 51.6919C29.0183 51.4497 29.0572 51.2029 29.1641 50.9829C29.2172 50.9107 29.2552 50.8286 29.2757 50.7414C29.2962 50.6542 29.2989 50.5637 29.2835 50.4754C29.2161 50.3196 29.1012 50.189 28.9551 50.1023C28.7983 49.9931 28.651 49.8708 28.5149 49.7366C28.3686 49.5766 28.2826 49.3706 28.2717 49.1541C28.2608 48.9375 28.3257 48.724 28.4552 48.5501C28.5671 48.4083 28.6567 48.3709 28.6716 48.3859C28.6865 48.4008 28.6193 48.4754 28.5522 48.6098C28.467 48.802 28.446 49.0166 28.4925 49.2217C28.5447 49.4829 28.7835 49.662 29.1193 49.8784C29.319 49.9954 29.4759 50.1732 29.5671 50.3859C29.5988 50.5123 29.6039 50.6439 29.5821 50.7724C29.5602 50.9008 29.5119 51.0233 29.4402 51.1322C29.3633 51.3023 29.3298 51.4889 29.3428 51.6752C29.3559 51.8614 29.415 52.0416 29.5149 52.1993C29.6716 52.5352 29.8582 52.8337 29.9701 53.1173C30.0702 53.3367 30.1113 53.5785 30.0895 53.8187C30.0671 53.968 30.0074 54.0501 29.9925 54.0426Z" fill="#FF9A6C"/>
<path d="M45.444 21.0637C45.0195 19.8623 44.347 18.7637 43.4701 17.8393C42.5932 16.9149 41.5317 16.1853 40.3544 15.698C38.026 14.6681 34.72 13.2651 32.1827 13.3472C29.4456 13.5027 26.7736 14.2432 24.3468 15.5188C21.5931 17.0114 19.7423 20.392 18.802 23.3846C17.8617 26.3771 19.1677 29.6607 19.6975 32.7652L20.4886 35.7503C20.8468 36.7504 22.3095 36.9071 23.1752 36.3026C23.9791 35.6023 24.5386 34.6638 24.7722 33.6235C26.2647 28.9593 27.3245 24.0264 26.72 19.1532C29.0509 20.7006 31.6199 21.8552 34.3245 22.5711C34.9502 22.7872 35.621 22.8386 36.2723 22.7204C36.5946 22.6534 36.8858 22.4817 37.1004 22.2319C37.315 21.9822 37.4411 21.6686 37.4589 21.3398C38.5528 22.6383 39.8982 23.7019 41.4141 24.4667C42.3544 24.9518 43.5037 25.3174 44.4515 24.8398C44.7635 24.6644 45.0329 24.4223 45.2406 24.1307C45.4483 23.8392 45.5891 23.5054 45.653 23.1532C45.7544 22.4501 45.6826 21.7328 45.444 21.0637Z" fill="#A7A7A7"/>
<path d="M12.0947 29.1059C12.0947 29.0462 13.147 29.1059 14.7888 28.8745C15.752 28.7112 16.6951 28.446 17.6022 28.0835C18.7049 27.6289 19.7536 27.0532 20.7291 26.367C22.5111 25.1169 24.0006 23.495 25.0948 21.6133C25.9307 20.1729 26.2366 19.1655 26.2963 19.1879C26.2602 19.444 26.1925 19.6946 26.0948 19.9341C25.8754 20.5629 25.6033 21.172 25.2814 21.7551C24.2198 23.704 22.7202 25.3798 20.9008 26.6506C19.9076 27.3533 18.8325 27.9322 17.6992 28.3745C16.7748 28.7373 15.8102 28.9879 14.8261 29.1208C14.1636 29.2122 13.4943 29.2447 12.8261 29.2178C12.579 29.2067 12.3338 29.1692 12.0947 29.1059Z" fill="white"/>
<path d="M12.8271 31.3201C12.8271 31.253 13.8272 31.2231 15.3869 30.85C16.2965 30.623 17.1872 30.3261 18.0511 29.9619C20.1653 29.0546 22.0761 27.7325 23.6705 26.0738C24.3235 25.3966 24.9176 24.6651 25.4467 23.8873C26.3422 22.5589 26.7302 21.6484 26.7899 21.6484C26.7256 21.8746 26.6407 22.0945 26.5362 22.3052C26.4315 22.562 26.3093 22.8113 26.1705 23.0514C26.006 23.3783 25.8216 23.6949 25.6183 23.9992C25.1092 24.7997 24.5245 25.5494 23.872 26.238C23.0713 27.0871 22.1861 27.8522 21.2302 28.5216C20.2647 29.1774 19.2374 29.7373 18.163 30.1933C17.2817 30.5595 16.367 30.8394 15.4316 31.0291C15.0769 31.1098 14.7182 31.172 14.357 31.2157C14.0828 31.2589 13.8061 31.2838 13.5286 31.2903C13.2962 31.3213 13.0614 31.3313 12.8271 31.3201Z" fill="white"/>
<path d="M43.3035 24.1327C43.3035 24.1327 43.4826 24.1328 43.8035 24.0432C44.266 23.9168 44.6812 23.6573 44.9975 23.2969C45.2505 23.0399 45.435 22.7234 45.534 22.3767C45.6331 22.0299 45.6437 21.6637 45.5647 21.3118C45.456 20.8641 45.2186 20.458 44.8818 20.1436C44.5449 19.8293 44.1233 19.6206 43.6691 19.5432H43.4975L43.5647 19.3864C43.9373 18.4078 44.0314 17.345 43.8364 16.3161C43.6414 15.2872 43.1651 14.3325 42.4602 13.558C41.281 12.3035 39.6936 11.5099 37.9825 11.3192C36.5718 11.1602 35.1435 11.3209 33.8034 11.7894C32.8961 12.1083 32.0235 12.5183 31.1989 13.0133C30.9079 13.2132 30.6065 13.3976 30.2959 13.5655C30.2959 13.5655 30.3556 13.4983 30.4974 13.3864C30.6392 13.2745 30.8556 13.1103 31.1392 12.9162C31.9464 12.3739 32.8158 11.9305 33.7288 11.5953C35.0942 11.0803 36.561 10.8912 38.0124 11.0431C39.8135 11.2188 41.4883 12.0469 42.7214 13.3715C43.464 14.1863 43.9632 15.1931 44.1624 16.2774C44.3616 17.3618 44.2528 18.4803 43.8482 19.5058L43.7438 19.3267C44.2476 19.4142 44.714 19.6497 45.0835 20.0032C45.453 20.3568 45.7088 20.8123 45.8184 21.3118C45.8975 21.6953 45.8774 22.0927 45.7598 22.4662C45.6423 22.8398 45.4312 23.1771 45.1468 23.4462C44.7992 23.8063 44.3478 24.049 43.8557 24.1402C43.7291 24.153 43.6017 24.153 43.4751 24.1402C43.3482 24.1477 43.3035 24.1402 43.3035 24.1327Z" fill="white"/>
</g>
<rect x="1" y="1" width="62" height="62" rx="31" stroke="#576CBE" stroke-width="2"/>
<defs>
<clipPath id="clip0_5282_69303">
<rect width="64" height="64" rx="32" fill="white"/>
</clipPath>
</defs>
</svg>
