<svg width="64" height="64" viewBox="0 0 64 64" fill="none" xmlns="http://www.w3.org/2000/svg">
<g clip-path="url(#clip0_5282_69306)">
<rect width="64" height="64" rx="32" fill="#E8EBF6"/>
<path d="M30.0033 9.13281L29.1399 9.17449C24.9613 9.38294 21.0137 11.1549 18.0808 14.1385C15.1478 17.1222 13.4439 21.0996 13.3071 25.2812C13.0451 33.3435 12.8665 42.2751 13.1285 46.5742C13.6763 55.5058 22.6556 56.4526 22.6556 56.4526L22.6972 57.8221C22.7494 59.3654 23.1099 60.8826 23.7576 62.2843C24.4053 63.6861 25.3271 64.944 26.4685 65.9839C27.61 67.0239 28.9481 67.8248 30.404 68.3394C31.8599 68.8541 33.404 69.0721 34.9455 68.9807C37.9201 68.8031 40.7113 67.484 42.737 65.2985C44.7627 63.1131 45.8665 60.2299 45.8182 57.2505L45.33 26.4006C45.6932 17.0879 39.316 9.22213 30.0033 9.13281Z" fill="#AE7461"/>
<path d="M17.8081 32.0758C17.8205 32.4086 17.9627 32.7232 18.2042 32.9525C18.4457 33.1817 18.7673 33.3074 19.1002 33.3025C19.262 33.3114 19.4239 33.2872 19.5761 33.2313C19.7282 33.1755 19.8674 33.0892 19.985 32.9777C20.1026 32.8662 20.1962 32.7319 20.2601 32.583C20.324 32.434 20.3568 32.2736 20.3566 32.1116C20.3472 31.7788 20.2068 31.4633 19.966 31.2336C19.7251 31.0038 19.4032 30.8785 19.0704 30.885C18.9081 30.8752 18.7456 30.8988 18.5927 30.9543C18.4399 31.0097 18.3001 31.0959 18.1818 31.2075C18.0635 31.319 17.9694 31.4536 17.9051 31.603C17.8408 31.7523 17.8078 31.9133 17.8081 32.0758Z" fill="#263238"/>
<path d="M15.2775 29.0899C15.4443 29.2506 16.3791 28.4944 17.7486 28.423C19.1181 28.3515 20.1602 29.0184 20.3031 28.8219C20.3686 28.7445 20.1959 28.4527 19.7374 28.155C19.1257 27.7716 18.4097 27.5885 17.6891 27.631C16.9741 27.6621 16.2877 27.9208 15.7301 28.3694C15.3252 28.7147 15.2001 29.0184 15.2775 29.0899Z" fill="#263238"/>
<path d="M30.7241 31.9192C30.7365 32.252 30.8787 32.5667 31.1202 32.7959C31.3617 33.0251 31.6833 33.1508 32.0162 33.1459C32.178 33.1548 32.34 33.1306 32.4921 33.0747C32.6442 33.0189 32.7834 32.9326 32.901 32.8211C33.0186 32.7096 33.1122 32.5753 33.1761 32.4264C33.24 32.2774 33.2729 32.117 33.2726 31.955C33.2587 31.6228 33.1161 31.309 32.8749 31.08C32.6338 30.8511 32.313 30.725 31.9805 30.7284C31.8187 30.7195 31.6568 30.7437 31.5046 30.7995C31.3525 30.8553 31.2134 30.9417 31.0957 31.0531C30.9781 31.1646 30.8845 31.2989 30.8206 31.4479C30.7567 31.5968 30.7239 31.7572 30.7241 31.9192Z" fill="#263238"/>
<path d="M28.9313 28.0331C29.0802 28.2118 30.0865 27.5568 31.456 27.6401C32.8255 27.7235 33.7961 28.4737 33.9509 28.313C34.1057 28.1522 33.8854 27.9319 33.4686 27.5865C32.9043 27.1448 32.2189 26.8852 31.5036 26.8422C30.7904 26.7986 30.0816 26.9821 29.4791 27.3662C29.0206 27.664 28.8598 27.9795 28.9313 28.0331Z" fill="#263238"/>
<path d="M24.448 39.5722C23.7149 39.3806 22.9609 39.2806 22.2032 39.2744C21.8519 39.2744 21.5184 39.203 21.447 38.9708C21.3976 38.6095 21.4599 38.2417 21.6256 37.9168C21.9174 37.0535 22.2211 36.1305 22.5367 35.2016C23.7871 31.3313 24.6802 28.1576 24.5195 28.1099C24.3587 28.0623 23.2214 31.1586 21.971 35.023C21.6693 35.9757 21.3815 36.8867 21.1076 37.7561C20.9065 38.1884 20.8664 38.6783 20.9945 39.1375C21.0503 39.2586 21.1329 39.3655 21.236 39.4501C21.3392 39.5347 21.4602 39.5947 21.5899 39.6258C21.786 39.6643 21.9855 39.6823 22.1853 39.6793C22.9411 39.7389 23.7013 39.7029 24.448 39.5722Z" fill="#263238"/>
<path d="M28.5277 40.3206C28.3074 40.3206 28.3729 41.8092 27.1522 42.9286C25.9316 44.0481 24.3596 43.9587 24.3596 44.1672C24.3596 44.2624 24.7228 44.4411 25.3957 44.4291C26.2773 44.4034 27.1212 44.0658 27.7774 43.4764C28.3978 42.9108 28.7772 42.1285 28.8373 41.2912C28.8195 40.666 28.6349 40.3087 28.5277 40.3206Z" fill="#263238"/>
<path d="M28.8773 23.5086C29.0023 23.8896 30.3778 23.7586 31.9795 24.0087C33.5812 24.2588 34.8734 24.7471 35.0996 24.4196C35.2008 24.2648 34.9865 23.9016 34.4744 23.5264C33.7855 23.056 32.9985 22.7488 32.1731 22.6281C31.3477 22.5074 30.5056 22.5764 29.7109 22.8298C29.1214 23.0501 28.8237 23.3299 28.8773 23.5086Z" fill="#A7A7A7"/>
<path d="M15.748 25.5561C16.004 25.8538 16.9389 25.4846 18.0702 25.4132C19.2016 25.3417 20.1781 25.5204 20.3805 25.1869C20.4699 25.0202 20.3031 24.7165 19.8685 24.4426C19.2863 24.1182 18.6211 23.9733 17.9567 24.0263C17.2923 24.0793 16.6585 24.3277 16.135 24.7403C15.748 25.0797 15.6349 25.4072 15.748 25.5561Z" fill="#A7A7A7"/>
<path d="M39.7289 12.7308C40.1576 12.4927 42.0451 14.4636 42.4084 14.7911C44.54 16.7084 45.3856 20.287 45.6595 23.1273C45.9813 25.8498 45.9393 28.6031 45.5344 31.3146C45.4749 31.6599 45.2665 33.1366 45.2665 33.1366C44.8854 33.4701 44.4686 36.6557 43.9625 36.7093C43.242 36.7569 42.5929 31.8862 42.456 31.5111C42.3521 30.4026 42.163 29.3037 41.8903 28.2242C41.4013 26.4953 41.0705 24.7255 40.9019 22.9367C40.7947 20.4597 39.8837 16.7679 39.7765 14.2909C39.7586 13.8146 39.324 12.9571 39.7289 12.7308Z" fill="#A7A7A7"/>
<path d="M41.6863 16.4059C38.9662 12.8707 35.0414 10.4591 30.6587 9.62973C29.6722 9.3659 28.6263 9.43283 27.6815 9.82027C27.1668 10.1353 26.686 10.5025 26.2465 10.9159C25.7964 11.3313 25.2036 11.5573 24.5911 11.5471C24.442 11.5358 24.2968 11.4937 24.1648 11.4233C24.0328 11.3529 23.9169 11.2558 23.8245 11.1382C23.7321 11.0206 23.6652 10.885 23.628 10.7401C23.5909 10.5952 23.5843 10.4442 23.6087 10.2966C27.0273 8.81096 30.864 8.59445 34.4281 9.68605C37.9922 10.7777 41.0496 13.1057 43.0498 16.251" fill="#A7A7A7"/>
<path d="M39.9414 16.0234L45.092 19.7985C45.3343 20.7537 45.5094 21.7247 45.616 22.7043L40.4892 19.5306L39.9414 16.0234Z" fill="#FAFAFA"/>
<path d="M43.9294 33.0245C44.0783 32.953 49.9732 30.9106 50.0804 37.0258C50.1875 43.141 44.0188 41.9799 44.0069 41.7894C43.9949 41.5988 43.9294 33.0245 43.9294 33.0245Z" fill="#AE7461"/>
<path d="M45.8349 39.4518C45.8647 39.4518 45.9421 39.5233 46.1267 39.6066C46.3826 39.7099 46.6686 39.7099 46.9246 39.6066C47.5617 39.3625 48.1154 38.3264 48.1154 37.2249C48.1232 36.7004 48.0112 36.1811 47.788 35.7065C47.7316 35.5161 47.6285 35.3428 47.4881 35.2025C47.3478 35.0621 47.1745 34.959 46.9841 34.9026C46.8615 34.8703 46.7314 34.8824 46.6169 34.937C46.5025 34.9915 46.411 35.0848 46.3589 35.2004C46.2815 35.373 46.3172 35.4981 46.2874 35.51C46.2577 35.5219 46.1564 35.4088 46.1981 35.1527C46.2316 35.0005 46.3155 34.8641 46.4363 34.7657C46.6055 34.6347 46.8191 34.5749 47.0317 34.599C47.2829 34.6453 47.518 34.7548 47.715 34.9174C47.9119 35.0799 48.0641 35.2901 48.1571 35.5279C48.4292 36.0537 48.5662 36.6389 48.5561 37.2308C48.5561 38.4574 47.9249 39.6126 47.0496 39.8924C46.8866 39.9439 46.7141 39.9578 46.5449 39.9331C46.3758 39.9083 46.2145 39.8456 46.0731 39.7495C45.8528 39.6007 45.7932 39.4637 45.8349 39.4518Z" fill="#946151"/>
<path d="M22.5725 56.437C26.8349 56.3102 30.9626 54.9149 34.4278 52.4297C34.4278 52.4297 31.9805 59.307 22.7333 58.926L22.5725 56.437Z" fill="#946151"/>
<path d="M37.6736 57.8264C37.6736 57.8264 37.5367 57.7847 37.4414 57.5704C37.3544 57.2604 37.3863 56.9292 37.5307 56.6415C37.7528 56.2861 37.9063 55.8923 37.9832 55.4804C37.9783 55.367 37.9505 55.2557 37.9013 55.1534C37.8522 55.051 37.7829 54.9597 37.6974 54.8849C37.4555 54.6852 37.2826 54.4144 37.2032 54.1109C37.1985 54.0198 37.2119 53.9288 37.2425 53.8429C37.2732 53.7571 37.3205 53.6782 37.3818 53.6107C37.4831 53.4857 37.5962 53.4023 37.6736 53.313C37.7112 53.281 37.7422 53.2419 37.7646 53.1979C37.7871 53.1539 37.8007 53.1059 37.8045 53.0567C37.8084 53.0074 37.8025 52.9579 37.7872 52.9109C37.7719 52.864 37.7474 52.8205 37.7153 52.783C37.6022 52.5925 37.4235 52.4258 37.3044 52.1876C37.2038 51.9878 37.1489 51.7681 37.1437 51.5445C37.1395 51.2254 37.2446 50.9145 37.4414 50.6633C37.5843 50.4906 37.6974 50.4429 37.7094 50.4549C37.4805 50.7672 37.3593 51.1454 37.364 51.5326C37.3781 51.7197 37.4351 51.9011 37.5307 52.0625C37.626 52.2293 37.8046 52.3841 37.9594 52.6104C38.0509 52.7392 38.1008 52.893 38.1023 53.051C38.0901 53.2192 38.0184 53.3775 37.8999 53.4976C37.6974 53.7179 37.4831 53.8727 37.5128 54.093C37.5605 54.4919 38.3048 54.8194 38.269 55.4804C38.182 55.9318 37.9971 56.3586 37.7272 56.7308C37.587 56.9718 37.5285 57.2517 37.5605 57.5287C37.6022 57.755 37.6915 57.8086 37.6736 57.8264Z" fill="#946151"/>
<path d="M39.2888 57.6427C39.2888 57.6427 39.1459 57.607 39.0566 57.3867C38.9699 57.0792 38.9996 56.7506 39.14 56.4637C39.369 56.1005 39.5247 55.6959 39.5985 55.2728C39.5931 55.1589 39.5645 55.0473 39.5143 54.9449C39.4641 54.8424 39.3935 54.7514 39.3067 54.6774C39.0654 54.4782 38.8943 54.2069 38.8184 53.9033C38.8137 53.8123 38.8271 53.7212 38.8578 53.6354C38.8884 53.5495 38.9357 53.4706 38.9971 53.4032C39.0983 53.2841 39.2055 53.1948 39.2888 53.1054C39.3634 53.0399 39.4095 52.9479 39.4173 52.8489C39.4251 52.75 39.394 52.6519 39.3305 52.5755C39.2174 52.385 39.0388 52.2182 38.9197 51.9801C38.8149 51.7818 38.7597 51.5612 38.7589 51.337C38.7518 51.0174 38.8571 50.7055 39.0566 50.4557C39.1995 50.289 39.3127 50.2354 39.3246 50.2533C39.0904 50.5606 38.9685 50.9388 38.9792 51.3251C38.9904 51.5119 39.0455 51.6934 39.14 51.855C39.2412 52.0217 39.4198 52.1765 39.5746 52.4088C39.6632 52.5365 39.711 52.688 39.7116 52.8434C39.7029 53.0131 39.6332 53.1738 39.5151 53.296C39.3067 53.5103 39.0983 53.6652 39.1281 53.8914C39.1697 54.2963 39.92 54.6238 39.8843 55.2788C39.7986 55.7306 39.6135 56.1577 39.3424 56.5292C39.1971 56.7682 39.1382 57.0499 39.1757 57.3271C39.2114 57.5415 39.3067 57.6248 39.2888 57.6427Z" fill="#946151"/>
<path d="M20.5893 33.0156C20.5893 33.0156 20.4405 33.2776 20.0594 33.5396C19.5517 33.8814 18.97 34.0977 18.3624 34.1708C17.7598 34.2484 17.1474 34.181 16.576 33.9743C16.1354 33.8135 15.9091 33.6289 15.927 33.5992C16.6999 33.8229 17.5057 33.9116 18.3088 33.8612C19.1133 33.7174 19.8856 33.4311 20.5893 33.0156Z" fill="#946151"/>
<path d="M33.4264 32.8828C33.4264 32.8828 33.2478 33.121 32.831 33.3532C32.2875 33.6446 31.6897 33.8209 31.0751 33.8711C30.4604 33.9213 29.842 33.8443 29.2583 33.645C28.8118 33.4842 28.5795 33.3115 28.5974 33.2758C29.3981 33.4835 30.2236 33.5796 31.0506 33.5616C31.8696 33.4438 32.6688 33.2154 33.4264 32.8828Z" fill="#946151"/>
<path d="M30.8075 40.3239C30.7241 40.3239 30.5217 39.9131 30.093 39.5439C29.6643 39.1747 29.2236 39.008 29.2415 38.9484C29.2594 38.8889 29.8369 38.8949 30.3014 39.3414C30.7658 39.788 30.9087 40.312 30.8075 40.3239Z" fill="#946151"/>
<path d="M29.8723 40.7573C29.8008 40.8109 29.4614 40.412 28.8838 40.1619C28.3063 39.9118 27.7882 39.9654 27.7763 39.882C27.7644 39.7987 28.3301 39.5962 29.0029 39.882C29.6758 40.1678 29.9497 40.7276 29.8723 40.7573Z" fill="#946151"/>
<path d="M15.7797 31.1021C15.8273 31.1735 15.4165 31.4236 14.8984 31.2509C14.3804 31.0783 14.1839 30.6555 14.2673 30.6138C14.3506 30.5721 14.5888 30.8341 14.9937 30.9592C15.3986 31.0842 15.7499 31.0187 15.7797 31.1021Z" fill="#946151"/>
<path d="M15.5345 31.7602C15.5345 31.8496 15.2427 31.8734 14.939 31.9627C14.6353 32.052 14.3436 32.1592 14.3079 32.0877C14.2721 32.0163 14.4686 31.7662 14.8557 31.665C15.2427 31.5637 15.5523 31.6769 15.5345 31.7602Z" fill="#946151"/>
<path d="M35.8528 29.6978C35.9183 29.7514 35.6325 30.1503 35.0847 30.3706C34.5369 30.5909 34.0486 30.4957 34.0605 30.4123C34.0724 30.3289 34.4892 30.2753 34.9656 30.0848C35.4419 29.8943 35.7873 29.6323 35.8528 29.6978Z" fill="#946151"/>
<path d="M36.1743 31.2582C36.1088 31.3237 35.829 31.1093 35.436 30.9783C35.043 30.8473 34.6976 30.8295 34.6798 30.7461C34.6619 30.6628 35.0609 30.5198 35.5372 30.6866C36.0136 30.8533 36.2696 31.2106 36.1743 31.2582Z" fill="#946151"/>
<path d="M30.381 19.8897C29.9433 20.1164 29.4422 20.1898 28.9579 20.0981C28.5053 20.0981 27.9873 19.9552 27.4157 19.8658C26.8147 19.7411 26.1946 19.7411 25.5936 19.8658C24.9565 20.0147 24.3551 20.2529 23.7775 20.4017C23.2624 20.5447 22.7239 20.5832 22.1936 20.5149C21.8325 20.4652 21.4902 20.3237 21.1993 20.104C21.0028 19.9373 20.9313 19.8123 20.9492 19.8003C21.3229 20.0747 21.7625 20.2452 22.2234 20.2946C22.7241 20.3307 23.2271 20.2721 23.7061 20.1219C24.2539 19.9671 24.8493 19.7229 25.5222 19.5681C26.1613 19.4252 26.8242 19.4252 27.4633 19.5681C28.0588 19.6753 28.553 19.8123 28.9817 19.8718C29.4459 19.9316 29.9154 19.9376 30.381 19.8897Z" fill="#946151"/>
<path d="M29.1231 17.954C26.5314 18.4266 23.8745 18.4145 21.2871 17.9183C21.2871 17.829 23.0734 17.9838 25.2051 17.9898C27.3368 17.9957 29.1231 17.8528 29.1231 17.954Z" fill="#946151"/>
</g>
<rect x="1" y="1" width="62" height="62" rx="31" stroke="#576CBE" stroke-width="2"/>
<defs>
<clipPath id="clip0_5282_69306">
<rect width="64" height="64" rx="32" fill="white"/>
</clipPath>
</defs>
</svg>
