<svg width="64" height="64" viewBox="0 0 64 64" fill="none" xmlns="http://www.w3.org/2000/svg">
<g clip-path="url(#clip0_5282_69305)">
<rect width="64" height="64" rx="32" fill="#E8EBF6"/>
<path d="M17.4284 65.2196L17.0189 32.0264C16.6504 23.771 21.1138 16.6705 29.4101 16.5312H30.1718C33.8826 16.6772 37.4017 18.2183 40.0254 20.8466C42.6492 23.4749 44.1842 26.9967 44.3237 30.7078C44.6104 37.8657 44.8233 45.777 44.6186 49.6017C44.1927 57.5212 36.224 58.4221 36.224 58.4221C36.224 58.4221 36.1749 63.2459 36.1749 65.5718L38.034 71.0016L31.4821 69.4128L17.4284 65.2196Z" fill="#AE7461"/>
<path d="M36.264 58.4569C32.6055 58.2991 29.0692 57.0939 26.0759 54.9844C26.0759 54.9844 28.3117 61.0366 36.2395 60.6517L36.264 58.4569Z" fill="#6F4439"/>
<path d="M40.736 37.5815C40.7328 37.7277 40.7008 37.8719 40.6419 38.0059C40.5829 38.1398 40.4982 38.2608 40.3924 38.3619C40.2867 38.4631 40.1621 38.5424 40.0257 38.5954C39.8894 38.6484 39.7439 38.674 39.5976 38.6707C39.4536 38.6762 39.3099 38.6528 39.1751 38.602C39.0403 38.5511 38.9169 38.4738 38.8124 38.3746C38.7079 38.2754 38.6242 38.1563 38.5664 38.0243C38.5085 37.8923 38.4777 37.7501 38.4756 37.606C38.4841 37.3106 38.6081 37.0302 38.8209 36.8251C39.0337 36.6199 39.3184 36.5063 39.614 36.5086C39.7587 36.5031 39.903 36.5267 40.0384 36.5781C40.1737 36.6294 40.2974 36.7075 40.4021 36.8075C40.5067 36.9076 40.5902 37.0277 40.6476 37.1606C40.7049 37.2936 40.735 37.4367 40.736 37.5815Z" fill="#263238"/>
<path d="M42.5077 34.1728C42.3603 34.312 41.5332 33.6405 40.3129 33.5995C39.0926 33.5586 38.1753 34.1237 38.0525 33.9681C37.9296 33.8125 38.1426 33.6405 38.5439 33.3702C39.0856 33.0263 39.7213 32.8602 40.362 32.8952C40.9947 32.9146 41.6039 33.1388 42.0983 33.534C42.4668 33.837 42.5815 34.0909 42.5077 34.1728Z" fill="#263238"/>
<path d="M29.7133 37.5814C29.7026 37.8755 29.5777 38.1537 29.3652 38.3571C29.1526 38.5605 28.8691 38.673 28.5749 38.6707C28.4306 38.6773 28.2865 38.6547 28.1511 38.6043C28.0158 38.5539 27.892 38.4766 27.7872 38.3772C27.6825 38.2778 27.5988 38.1582 27.5414 38.0257C27.4839 37.8932 27.4538 37.7504 27.4529 37.606C27.4593 37.3113 27.5815 37.031 27.793 36.8256C28.0045 36.6202 28.2883 36.5064 28.5831 36.5086C28.7281 36.5031 28.8729 36.5267 29.0087 36.578C29.1445 36.6292 29.2687 36.7071 29.374 36.8071C29.4793 36.907 29.5636 37.027 29.6218 37.16C29.6801 37.293 29.7112 37.4363 29.7133 37.5814Z" fill="#263238"/>
<path d="M30.5329 33.9687C30.3855 34.1079 29.5501 33.4446 28.338 33.3954C27.1259 33.3463 26.2005 33.9196 26.0776 33.764C25.9548 33.6084 26.1677 33.4364 26.569 33.1661C27.1125 32.8262 27.7469 32.6604 28.3872 32.6911C29.0188 32.7156 29.6265 32.9392 30.1234 33.3299C30.5329 33.6329 30.6312 33.9032 30.5329 33.9687Z" fill="#263238"/>
<path d="M34.5435 43.4999C35.1936 43.3302 35.8618 43.2395 36.5336 43.2297C36.8448 43.2297 37.1396 43.156 37.2051 42.9512C37.2412 42.6298 37.1814 42.305 37.0332 42.0176C36.7711 41.2559 36.5008 40.4533 36.2142 39.6098C35.0758 36.1864 34.265 33.3773 34.4042 33.3364C34.5435 33.2954 35.5754 36.0308 36.7138 39.4542L37.4918 41.9111C37.6755 42.2938 37.7162 42.7295 37.6064 43.1396C37.5544 43.2462 37.4799 43.3402 37.388 43.4151C37.2961 43.4901 37.189 43.5441 37.0741 43.5736C36.8994 43.6122 36.7206 43.6287 36.5418 43.6228C35.8732 43.6714 35.2011 43.6301 34.5435 43.4999Z" fill="#263238"/>
<path d="M31.1138 30.1679C30.9336 30.4709 29.7706 30.0942 28.3292 30.0041C26.8878 29.914 25.6839 30.086 25.5529 29.7666C25.4956 29.611 25.7494 29.3407 26.2654 29.1114C26.9452 28.8255 27.6847 28.7102 28.4193 28.7756C29.1536 28.8202 29.8668 29.0392 30.4995 29.4145C30.9827 29.7175 31.1957 29.9959 31.1138 30.1679Z" fill="#263238"/>
<path d="M42.7095 30.5947C42.4474 30.865 41.4646 30.5947 40.2525 30.5046C39.0405 30.4145 38.0495 30.6357 37.7956 30.3408C37.6973 30.1934 37.8693 29.9232 38.3116 29.6693C38.9302 29.3608 39.6205 29.225 40.3099 29.2762C40.9951 29.2965 41.6612 29.5063 42.2345 29.8822C42.6931 30.177 42.8159 30.4637 42.7095 30.5947Z" fill="#263238"/>
<path d="M17.4294 37.9208C17.2984 37.8553 12.0487 36.0863 11.9996 41.508C11.9505 46.9296 17.4049 45.8649 17.4131 45.7093C17.4212 45.5537 17.4294 37.9208 17.4294 37.9208Z" fill="#AE7461"/>
<path d="M15.7919 43.6346C15.7919 43.6346 15.7018 43.7002 15.538 43.7739C15.3122 43.8658 15.0595 43.8658 14.8337 43.7739C14.4847 43.5498 14.2019 43.2365 14.0147 42.8664C13.8275 42.4964 13.7427 42.083 13.769 41.6691C13.7587 41.2034 13.8539 40.7414 14.0475 40.3178C14.1003 40.1483 14.1935 39.9942 14.3191 39.8687C14.4446 39.7431 14.5987 39.6499 14.7682 39.5971C14.8758 39.5697 14.9897 39.5809 15.09 39.6288C15.1902 39.6767 15.2705 39.7582 15.3169 39.8591C15.3906 40.0147 15.3578 40.1212 15.3824 40.1294C15.407 40.1376 15.5053 40.0393 15.4643 39.8182C15.4309 39.6842 15.3564 39.5639 15.2514 39.4742C15.1778 39.4171 15.0934 39.3754 15.0034 39.3515C14.9134 39.3275 14.8195 39.3219 14.7272 39.335C14.5059 39.3756 14.2986 39.4722 14.1252 39.6155C13.9517 39.7589 13.8178 39.9442 13.7363 40.154C13.5009 40.6209 13.3828 41.1381 13.3923 41.6609C13.3612 42.1443 13.4736 42.6261 13.7155 43.0457C13.9574 43.4654 14.3179 43.8042 14.7518 44.0195C14.8961 44.0646 15.0489 44.0755 15.1982 44.0514C15.3474 44.0272 15.489 43.9686 15.6117 43.8803C15.7919 43.7657 15.7919 43.651 15.7919 43.6346Z" fill="#6F4439"/>
<path d="M30.7211 44.2502C30.9013 44.2502 30.9095 45.4868 31.9824 46.3631C33.0552 47.2394 34.3738 47.1002 34.3902 47.2722C34.4066 47.4442 34.0953 47.5179 33.5303 47.5343C32.8008 47.5513 32.0893 47.3073 31.5238 46.8463C30.9825 46.4048 30.6332 45.7708 30.5492 45.0773C30.5328 44.5532 30.6311 44.242 30.7211 44.2502Z" fill="#263238"/>
<path d="M55.2806 23.6132C55.1878 23.2934 54.9731 23.0228 54.6827 22.8597C54.0521 22.5633 53.3535 22.4417 52.6598 22.5076C50.9451 22.4467 49.2658 22.0017 47.7459 21.2054C48.2832 20.9466 48.7776 20.6068 49.2119 20.1981C49.6741 19.7825 50.0138 19.2485 50.1942 18.6537C50.3747 18.059 50.389 17.4262 50.2356 16.8239C50.2103 16.7094 50.1586 16.6024 50.0847 16.5114C50.0108 16.4204 49.9166 16.3479 49.8098 16.2997C49.4658 16.1851 49.1464 16.529 48.9007 16.7993C48.5835 17.2195 48.1593 17.5468 47.6723 17.7471C47.1854 17.9473 46.6536 18.0132 46.1326 17.9377C45.4072 17.8866 44.7035 17.6679 44.0769 17.2989L44.0114 17.2252L43.1924 16.4062C41.1777 14.3587 39.4415 12.9337 37.6397 12.1884C34.5058 11.0028 31.1072 10.6969 27.812 11.3039C25.0438 11.9919 22.5459 14.2031 22.1282 17.0368C20.5968 15.7101 18.2709 15.6937 16.3954 16.4307C14.2824 17.1515 13.0703 19.3545 12.4233 21.4921L12.3251 21.8442C11.6041 22.9687 10.6239 23.9039 9.46681 24.5714C9.26207 24.6861 9.02457 24.8253 9 25.0628C9.00607 25.1791 9.04155 25.292 9.10315 25.3908C9.16474 25.4896 9.25042 25.5712 9.35216 25.6279C9.85816 25.9885 10.4367 26.2344 11.0475 26.3486C10.8515 26.8564 10.6132 27.3468 10.3349 27.8146C10.0892 28.2159 9.8026 28.6909 10.0073 29.1168C10.102 29.2707 10.2412 29.3922 10.4064 29.4653C10.5717 29.5384 10.7552 29.5597 10.9328 29.5262C11.2836 29.4533 11.6155 29.3083 11.9074 29.1004C11.6699 29.6573 11.4324 30.2142 11.1867 30.7383C11.9476 30.8741 12.7296 30.8321 13.4716 30.6155C13.8975 32.622 14.1923 36.3483 14.6919 37.6997C16.1333 37.7406 16.4855 37.585 17.2062 37.8307C18.1398 38.1583 17.7631 39.8126 18.9916 39.354C19.614 39.1247 20.6295 36.7742 20.8179 36.1436C22.2464 31.9326 22.7519 27.4636 22.3002 23.0399C23.1868 22.1207 24.2402 21.3786 25.4042 20.8532L25.3059 20.9351C27.5335 20.1899 30.0478 19.461 32.1444 20.5257C33.7823 21.3446 34.7078 23.0563 35.9117 24.424C36.9255 25.6692 38.1923 26.6847 39.6282 27.4033C41.0641 28.122 42.6363 28.5274 44.2407 28.5926C44.5192 30.9922 44.5683 34.9069 44.6584 37.1428L46.6239 32.6957C46.7795 32.4336 46.9106 32.1715 47.0334 31.8767V31.7948C47.2278 31.3638 47.4438 30.9429 47.6804 30.5336C47.9368 30.7535 48.2643 30.8726 48.6021 30.8689C48.9398 30.8652 49.2646 30.7389 49.5161 30.5135C49.7676 30.288 49.9286 29.9789 49.969 29.6436C50.0095 29.3083 49.9267 28.9697 49.7361 28.6909C49.5498 28.4304 49.3263 28.1986 49.0727 28.0029C49.3437 28.2703 49.6788 28.4634 50.046 28.5638C50.4132 28.6642 50.8 28.6685 51.1693 28.5762C51.535 28.4684 51.8551 28.2431 52.0801 27.9353C52.3051 27.6274 52.4225 27.254 52.4141 26.8727C52.3869 26.6159 52.2922 26.3708 52.1398 26.1622C51.9873 25.9537 51.7825 25.7891 51.546 25.6852C52.5306 25.7713 53.5188 25.5662 54.3879 25.0956C54.9038 24.8335 55.4607 24.3175 55.2806 23.6132Z" fill="#263238"/>
<path d="M24.5696 17.9531C24.2779 18.1712 24.004 18.4122 23.7506 18.6738C23.1134 19.4233 22.6841 20.3271 22.5058 21.2946C22.3614 21.9566 22.2846 22.6317 22.2765 23.3093C22.2765 24.0382 22.3174 24.8244 22.3666 25.6433C22.4201 26.5106 22.4201 27.3804 22.3666 28.2477C22.3354 28.7101 22.2725 29.1698 22.1782 29.6236C22.1027 30.1063 21.9022 30.5609 21.5967 30.9421C21.4581 31.0961 21.2816 31.2111 21.0848 31.2758C20.8879 31.3404 20.6776 31.3525 20.4747 31.3107C20.0868 31.2319 19.7357 31.0275 19.4756 30.7292C19.0495 30.1312 18.7921 29.4297 18.7303 28.6981H18.8941C18.647 29.2886 18.316 29.8403 17.9113 30.3361C17.5206 30.799 16.9659 31.0925 16.3634 31.1551C16.0821 31.182 15.7987 31.131 15.5444 31.0077C15.3115 30.879 15.1209 30.6855 14.9957 30.4508C14.8782 30.2352 14.8215 29.9917 14.8319 29.7464C14.8463 29.5177 14.9388 29.3008 15.094 29.1322L15.1759 29.2059C14.6974 29.7422 14.1114 30.1719 13.456 30.4671C13.2864 30.5454 13.1112 30.6111 12.9319 30.6637C12.8681 30.6863 12.8023 30.7027 12.7354 30.7128L12.9155 30.6391C13.76 30.339 14.5208 29.8421 15.135 29.1895L15.2169 29.2632C15.0855 29.429 15.0086 29.6313 14.9969 29.8425C14.9851 30.0537 15.0391 30.2633 15.1513 30.4426C15.2629 30.6542 15.4375 30.8259 15.6509 30.934C15.8786 31.0484 16.1348 31.0939 16.388 31.065C16.9562 30.9884 17.4728 30.6949 17.8294 30.246C18.2261 29.7505 18.5463 29.1984 18.7794 28.6081L18.8941 28.3542L18.9432 28.6326C19.0051 29.3287 19.251 29.9957 19.6557 30.5654C19.8864 30.8349 20.2007 31.0194 20.5484 31.0896C20.7197 31.133 20.8993 31.1317 21.0699 31.0858C21.2406 31.0399 21.3966 30.951 21.523 30.8275C21.8001 30.4657 21.983 30.0408 22.0553 29.5908C22.1496 29.1481 22.2126 28.6993 22.2437 28.2477C22.2972 27.3859 22.2972 26.5216 22.2437 25.6597C22.2028 24.8407 22.1536 24.0218 22.17 23.3093C22.1863 22.6227 22.2713 21.9396 22.4239 21.27C22.6205 20.2875 23.0789 19.3763 23.7506 18.6329C23.9838 18.3622 24.2606 18.1324 24.5696 17.9531Z" fill="#455A64"/>
<path d="M49.0409 25.9506L48.9754 25.9998L48.7707 26.1472C48.6634 26.2253 48.5513 26.2964 48.4349 26.3601C48.2957 26.4338 48.14 26.5239 47.9517 26.6058C46.8805 27.0742 45.7102 27.2711 44.5447 27.1791C42.8124 27.0454 41.1564 26.4108 39.7783 25.3528C38.0988 24.0538 36.7049 22.423 35.6834 20.5617C35.1183 19.5953 34.6596 18.6044 34.1437 17.6871C33.6859 16.787 33.0981 15.9592 32.3992 15.2302C31.7741 14.5748 30.9939 14.0875 30.1307 13.8133C29.7398 13.7005 29.3334 13.6507 28.9268 13.6659C28.5513 13.6832 28.1796 13.7493 27.8211 13.8625C27.2145 14.0725 26.6572 14.4041 26.1832 14.8371C25.4941 15.4496 25.0275 16.2734 24.8564 17.1794C24.8564 17.1794 24.8564 17.1794 24.8564 17.0975C24.8564 17.0156 24.8564 16.95 24.8564 16.8518C24.9222 16.5423 25.0268 16.2424 25.1676 15.9591C25.3974 15.512 25.7021 15.1075 26.0685 14.7634C26.836 14.0261 27.8401 13.585 28.9022 13.5185C29.325 13.5026 29.7477 13.5524 30.1552 13.6659C31.047 13.9421 31.8552 14.4377 32.5057 15.1073C33.2152 15.8368 33.8164 16.6642 34.2911 17.5643C34.807 18.4815 35.2657 19.4725 35.8226 20.4307C36.8276 22.2628 38.1893 23.8752 39.8274 25.1726C41.1775 26.2208 42.8011 26.8577 44.5038 27.0071C45.6503 27.1104 46.8048 26.9362 47.8698 26.4994C48.6642 26.2127 49.0245 25.9097 49.0409 25.9506Z" fill="#455A64"/>
<path d="M49.7994 22.4638C49.7109 22.539 49.6148 22.6049 49.5127 22.6603C49.2485 22.816 48.975 22.9555 48.6938 23.078C48.2583 23.256 47.8091 23.3985 47.3506 23.5039C46.79 23.6223 46.2199 23.6908 45.6472 23.7087C45.0708 23.7148 44.4951 23.6682 43.9273 23.5694C43.4664 23.4886 43.0141 23.3652 42.576 23.2009C42.2785 23.0949 41.9884 22.9691 41.7079 22.8242C41.5113 22.7095 41.4048 22.6522 41.413 22.6358C41.4212 22.6194 41.8635 22.8405 42.6169 23.078C43.0564 23.2186 43.5052 23.3281 43.9601 23.4056C44.5023 23.4856 45.0499 23.5239 45.598 23.5203C46.1619 23.5036 46.7234 23.4406 47.2769 23.3319C47.7281 23.2401 48.1716 23.1142 48.6037 22.9552C49.3653 22.6849 49.783 22.431 49.7994 22.4638Z" fill="#455A64"/>
</g>
<rect x="1" y="1" width="62" height="62" rx="31" stroke="#576CBE" stroke-width="2"/>
<defs>
<clipPath id="clip0_5282_69305">
<rect width="64" height="64" rx="32" fill="white"/>
</clipPath>
</defs>
</svg>
