<svg width="64" height="64" viewBox="0 0 64 64" fill="none" xmlns="http://www.w3.org/2000/svg">
<g clip-path="url(#clip0_5282_69301)">
<rect width="64" height="64" rx="32" fill="#E8EBF6"/>
<path d="M17.4284 64.2196L17.0189 31.0264C16.6504 22.771 21.1138 15.6705 29.4101 15.5312H30.1718C33.8826 15.6772 37.4017 17.2183 40.0254 19.8466C42.6492 22.4749 44.1842 25.9967 44.3237 29.7078C44.6104 36.8657 44.8233 44.777 44.6186 48.6017C44.1927 56.5212 36.224 57.4221 36.224 57.4221C36.224 57.4221 36.1749 62.2459 36.1749 64.5718L38.034 70.0016L31.4821 68.4128L17.4284 64.2196Z" fill="#FFBE9D"/>
<path d="M36.264 57.4569C32.6055 57.2991 29.0692 56.0939 26.0759 53.9844C26.0759 53.9844 28.3117 60.0366 36.2395 59.6517L36.264 57.4569Z" fill="#EB996E"/>
<path d="M40.736 36.5815C40.7328 36.7277 40.7008 36.8719 40.6419 37.0059C40.5829 37.1398 40.4982 37.2608 40.3924 37.3619C40.2867 37.4631 40.1621 37.5424 40.0257 37.5954C39.8894 37.6484 39.7439 37.674 39.5976 37.6707C39.4536 37.6762 39.3099 37.6528 39.1751 37.602C39.0403 37.5511 38.9169 37.4738 38.8124 37.3746C38.7079 37.2754 38.6242 37.1563 38.5664 37.0243C38.5085 36.8923 38.4777 36.7501 38.4756 36.606C38.4841 36.3106 38.6081 36.0302 38.8209 35.8251C39.0337 35.6199 39.3184 35.5063 39.614 35.5086C39.7587 35.5031 39.903 35.5267 40.0384 35.5781C40.1737 35.6294 40.2974 35.7075 40.4021 35.8075C40.5067 35.9076 40.5902 36.0277 40.6476 36.1606C40.7049 36.2936 40.735 36.4367 40.736 36.5815Z" fill="#263238"/>
<path d="M42.5077 33.1728C42.3603 33.312 41.5332 32.6405 40.3129 32.5995C39.0926 32.5586 38.1753 33.1237 38.0525 32.9681C37.9296 32.8125 38.1426 32.6405 38.5439 32.3702C39.0856 32.0263 39.7213 31.8602 40.362 31.8952C40.9947 31.9146 41.6039 32.1388 42.0983 32.534C42.4668 32.837 42.5815 33.0909 42.5077 33.1728Z" fill="#263238"/>
<path d="M29.7133 36.5814C29.7026 36.8755 29.5777 37.1537 29.3652 37.3571C29.1526 37.5605 28.8691 37.673 28.5749 37.6707C28.4306 37.6773 28.2865 37.6547 28.1511 37.6043C28.0158 37.5539 27.892 37.4766 27.7872 37.3772C27.6825 37.2778 27.5988 37.1582 27.5414 37.0257C27.4839 36.8932 27.4538 36.7504 27.4529 36.606C27.4593 36.3113 27.5815 36.031 27.793 35.8256C28.0045 35.6202 28.2883 35.5064 28.5831 35.5086C28.7281 35.5031 28.8729 35.5267 29.0087 35.578C29.1445 35.6292 29.2687 35.7071 29.374 35.8071C29.4793 35.907 29.5636 36.027 29.6218 36.16C29.6801 36.293 29.7112 36.4363 29.7133 36.5814Z" fill="#263238"/>
<path d="M30.5329 32.9687C30.3855 33.1079 29.5501 32.4446 28.338 32.3954C27.1259 32.3463 26.2005 32.9196 26.0776 32.764C25.9548 32.6084 26.1677 32.4364 26.569 32.1661C27.1125 31.8262 27.7469 31.6604 28.3872 31.6911C29.0188 31.7156 29.6265 31.9392 30.1234 32.3299C30.5329 32.6329 30.6312 32.9032 30.5329 32.9687Z" fill="#263238"/>
<path d="M34.5435 42.4999C35.1936 42.3302 35.8618 42.2395 36.5336 42.2297C36.8448 42.2297 37.1396 42.156 37.2051 41.9512C37.2412 41.6298 37.1814 41.305 37.0332 41.0176C36.7711 40.2559 36.5008 39.4533 36.2142 38.6098C35.0758 35.1864 34.265 32.3773 34.4042 32.3364C34.5435 32.2954 35.5754 35.0308 36.7138 38.4542L37.4918 40.9111C37.6755 41.2938 37.7162 41.7295 37.6064 42.1396C37.5544 42.2462 37.4799 42.3402 37.388 42.4151C37.2961 42.4901 37.189 42.5441 37.0741 42.5736C36.8994 42.6122 36.7206 42.6287 36.5418 42.6228C35.8732 42.6714 35.2011 42.6301 34.5435 42.4999Z" fill="#263238"/>
<path d="M31.1138 29.1679C30.9336 29.4709 29.7706 29.0942 28.3292 29.0041C26.8878 28.914 25.6839 29.086 25.5529 28.7666C25.4956 28.611 25.7494 28.3407 26.2654 28.1114C26.9452 27.8255 27.6847 27.7102 28.4193 27.7756C29.1536 27.8202 29.8668 28.0392 30.4995 28.4145C30.9827 28.7175 31.1957 28.9959 31.1138 29.1679Z" fill="#263238"/>
<path d="M42.7095 29.5947C42.4474 29.865 41.4646 29.5947 40.2525 29.5046C39.0405 29.4145 38.0495 29.6357 37.7956 29.3408C37.6973 29.1934 37.8693 28.9232 38.3116 28.6693C38.9302 28.3608 39.6205 28.225 40.3099 28.2762C40.9951 28.2965 41.6612 28.5063 42.2345 28.8822C42.6931 29.177 42.8159 29.4637 42.7095 29.5947Z" fill="#263238"/>
<path d="M17.4294 36.9208C17.2984 36.8553 12.0487 35.0863 11.9996 40.508C11.9505 45.9296 17.4049 44.8649 17.4131 44.7093C17.4212 44.5537 17.4294 36.9208 17.4294 36.9208Z" fill="#FFBE9D"/>
<path d="M15.7919 42.6346C15.7919 42.6346 15.7018 42.7002 15.538 42.7739C15.3122 42.8658 15.0595 42.8658 14.8337 42.7739C14.4847 42.5498 14.2019 42.2365 14.0147 41.8664C13.8275 41.4964 13.7427 41.083 13.769 40.6691C13.7587 40.2034 13.8539 39.7414 14.0475 39.3178C14.1003 39.1483 14.1935 38.9942 14.3191 38.8687C14.4446 38.7431 14.5987 38.6499 14.7682 38.5971C14.8758 38.5697 14.9897 38.5809 15.09 38.6288C15.1902 38.6767 15.2705 38.7582 15.3169 38.8591C15.3906 39.0147 15.3578 39.1212 15.3824 39.1294C15.407 39.1376 15.5053 39.0393 15.4643 38.8182C15.4309 38.6842 15.3564 38.5639 15.2514 38.4742C15.1778 38.4171 15.0934 38.3754 15.0034 38.3515C14.9134 38.3275 14.8195 38.3219 14.7272 38.335C14.5059 38.3756 14.2986 38.4722 14.1252 38.6155C13.9517 38.7589 13.8178 38.9442 13.7363 39.154C13.5009 39.6209 13.3828 40.1381 13.3923 40.6609C13.3612 41.1443 13.4736 41.6261 13.7155 42.0457C13.9574 42.4654 14.3179 42.8042 14.7518 43.0195C14.8961 43.0646 15.0489 43.0755 15.1982 43.0514C15.3474 43.0272 15.489 42.9686 15.6117 42.8803C15.7919 42.7657 15.7919 42.651 15.7919 42.6346Z" fill="#EB996E"/>
<path d="M30.7211 43.2502C30.9013 43.2502 30.9095 44.4868 31.9824 45.3631C33.0552 46.2394 34.3738 46.1002 34.3902 46.2722C34.4066 46.4442 34.0953 46.5179 33.5303 46.5343C32.8008 46.5513 32.0893 46.3073 31.5238 45.8463C30.9825 45.4048 30.6332 44.7708 30.5492 44.0773C30.5328 43.5532 30.6311 43.242 30.7211 43.2502Z" fill="#263238"/>
<path d="M55.2806 22.6132C55.1878 22.2934 54.9731 22.0228 54.6827 21.8597C54.0521 21.5633 53.3535 21.4417 52.6598 21.5076C50.9451 21.4467 49.2658 21.0017 47.7459 20.2054C48.2832 19.9466 48.7776 19.6068 49.2119 19.1981C49.6741 18.7825 50.0138 18.2485 50.1942 17.6537C50.3747 17.059 50.389 16.4262 50.2356 15.8239C50.2103 15.7094 50.1586 15.6024 50.0847 15.5114C50.0108 15.4204 49.9166 15.3479 49.8098 15.2997C49.4658 15.1851 49.1464 15.529 48.9007 15.7993C48.5835 16.2195 48.1593 16.5468 47.6723 16.7471C47.1854 16.9473 46.6536 17.0132 46.1326 16.9377C45.4072 16.8866 44.7035 16.6679 44.0769 16.2989L44.0114 16.2252L43.1924 15.4062C41.1777 13.3587 39.4415 11.9337 37.6397 11.1884C34.5058 10.0028 31.1072 9.69694 27.812 10.3039C25.0438 10.9919 22.5459 13.2031 22.1282 16.0368C20.5968 14.7101 18.2709 14.6937 16.3954 15.4307C14.2824 16.1515 13.0703 18.3545 12.4233 20.4921L12.3251 20.8442C11.6041 21.9687 10.6239 22.9039 9.46681 23.5714C9.26207 23.6861 9.02457 23.8253 9 24.0628C9.00607 24.1791 9.04155 24.292 9.10315 24.3908C9.16474 24.4896 9.25042 24.5712 9.35216 24.6279C9.85816 24.9885 10.4367 25.2344 11.0475 25.3486C10.8515 25.8564 10.6132 26.3468 10.3349 26.8146C10.0892 27.2159 9.8026 27.6909 10.0073 28.1168C10.102 28.2707 10.2412 28.3922 10.4064 28.4653C10.5717 28.5384 10.7552 28.5597 10.9328 28.5262C11.2836 28.4533 11.6155 28.3083 11.9074 28.1004C11.6699 28.6573 11.4324 29.2142 11.1867 29.7383C11.9476 29.8741 12.7296 29.8321 13.4716 29.6155C13.8975 31.622 14.1923 35.3483 14.6919 36.6997C16.1333 36.7406 16.4855 36.585 17.2062 36.8307C18.1398 37.1583 17.7631 38.8126 18.9916 38.354C19.614 38.1247 20.6295 35.7742 20.8179 35.1436C22.2464 30.9326 22.7519 26.4636 22.3002 22.0399C23.1868 21.1207 24.2402 20.3786 25.4042 19.8532L25.3059 19.9351C27.5335 19.1899 30.0478 18.461 32.1444 19.5257C33.7823 20.3446 34.7078 22.0563 35.9117 23.424C36.9255 24.6692 38.1923 25.6847 39.6282 26.4033C41.0641 27.122 42.6363 27.5274 44.2407 27.5926C44.5192 29.9922 44.5683 33.9069 44.6584 36.1428L46.6239 31.6957C46.7795 31.4336 46.9106 31.1715 47.0334 30.8767V30.7948C47.2278 30.3638 47.4438 29.9429 47.6804 29.5336C47.9368 29.7535 48.2643 29.8726 48.6021 29.8689C48.9398 29.8652 49.2646 29.7389 49.5161 29.5135C49.7676 29.288 49.9286 28.9789 49.969 28.6436C50.0095 28.3083 49.9267 27.9697 49.7361 27.6909C49.5498 27.4304 49.3263 27.1986 49.0727 27.0029C49.3437 27.2703 49.6788 27.4634 50.046 27.5638C50.4132 27.6642 50.8 27.6685 51.1693 27.5762C51.535 27.4684 51.8551 27.2431 52.0801 26.9353C52.3051 26.6274 52.4225 26.254 52.4141 25.8727C52.3869 25.6159 52.2922 25.3708 52.1398 25.1622C51.9873 24.9537 51.7825 24.7891 51.546 24.6852C52.5306 24.7713 53.5188 24.5662 54.3879 24.0956C54.9038 23.8335 55.4607 23.3175 55.2806 22.6132Z" fill="#263238"/>
<path d="M24.5696 16.9531C24.2779 17.1712 24.004 17.4122 23.7506 17.6738C23.1134 18.4233 22.6841 19.3271 22.5058 20.2946C22.3614 20.9566 22.2846 21.6317 22.2765 22.3093C22.2765 23.0382 22.3174 23.8244 22.3666 24.6433C22.4201 25.5106 22.4201 26.3804 22.3666 27.2477C22.3354 27.7101 22.2725 28.1698 22.1782 28.6236C22.1027 29.1063 21.9022 29.5609 21.5967 29.9421C21.4581 30.0961 21.2816 30.2111 21.0848 30.2758C20.8879 30.3404 20.6776 30.3525 20.4747 30.3107C20.0868 30.2319 19.7357 30.0275 19.4756 29.7292C19.0495 29.1312 18.7921 28.4297 18.7303 27.6981H18.8941C18.647 28.2886 18.316 28.8403 17.9113 29.3361C17.5206 29.799 16.9659 30.0925 16.3634 30.1551C16.0821 30.182 15.7987 30.131 15.5444 30.0077C15.3115 29.879 15.1209 29.6855 14.9957 29.4508C14.8782 29.2352 14.8215 28.9917 14.8319 28.7464C14.8463 28.5177 14.9388 28.3008 15.094 28.1322L15.1759 28.2059C14.6974 28.7422 14.1114 29.1719 13.456 29.4671C13.2864 29.5454 13.1112 29.6111 12.9319 29.6637C12.8681 29.6863 12.8023 29.7027 12.7354 29.7128L12.9155 29.6391C13.76 29.339 14.5208 28.8421 15.135 28.1895L15.2169 28.2632C15.0855 28.429 15.0086 28.6313 14.9969 28.8425C14.9851 29.0537 15.0391 29.2633 15.1513 29.4426C15.2629 29.6542 15.4375 29.8259 15.6509 29.934C15.8786 30.0484 16.1348 30.0939 16.388 30.065C16.9562 29.9884 17.4728 29.6949 17.8294 29.246C18.2261 28.7505 18.5463 28.1984 18.7794 27.6081L18.8941 27.3542L18.9432 27.6326C19.0051 28.3287 19.251 28.9957 19.6557 29.5654C19.8864 29.8349 20.2007 30.0194 20.5484 30.0896C20.7197 30.133 20.8993 30.1317 21.0699 30.0858C21.2406 30.0399 21.3966 29.951 21.523 29.8275C21.8001 29.4657 21.983 29.0408 22.0553 28.5908C22.1496 28.1481 22.2126 27.6993 22.2437 27.2477C22.2972 26.3859 22.2972 25.5216 22.2437 24.6597C22.2028 23.8407 22.1536 23.0218 22.17 22.3093C22.1863 21.6227 22.2713 20.9396 22.4239 20.27C22.6205 19.2875 23.0789 18.3763 23.7506 17.6329C23.9838 17.3622 24.2606 17.1324 24.5696 16.9531Z" fill="#455A64"/>
<path d="M49.0409 24.9506L48.9754 24.9998L48.7707 25.1472C48.6634 25.2253 48.5513 25.2964 48.4349 25.3601C48.2957 25.4338 48.14 25.5239 47.9517 25.6058C46.8805 26.0742 45.7102 26.2711 44.5447 26.1791C42.8124 26.0454 41.1564 25.4108 39.7783 24.3528C38.0988 23.0538 36.7049 21.423 35.6834 19.5617C35.1183 18.5953 34.6596 17.6044 34.1437 16.6871C33.6859 15.787 33.0981 14.9592 32.3992 14.2302C31.7741 13.5748 30.9939 13.0875 30.1307 12.8133C29.7398 12.7005 29.3334 12.6507 28.9268 12.6659C28.5513 12.6832 28.1796 12.7493 27.8211 12.8625C27.2145 13.0725 26.6572 13.4041 26.1832 13.8371C25.4941 14.4496 25.0275 15.2734 24.8564 16.1794C24.8564 16.1794 24.8564 16.1794 24.8564 16.0975C24.8564 16.0156 24.8564 15.95 24.8564 15.8518C24.9222 15.5423 25.0268 15.2424 25.1676 14.9591C25.3974 14.512 25.7021 14.1075 26.0685 13.7634C26.836 13.0261 27.8401 12.585 28.9022 12.5185C29.325 12.5026 29.7477 12.5524 30.1552 12.6659C31.047 12.9421 31.8552 13.4377 32.5057 14.1073C33.2152 14.8368 33.8164 15.6642 34.2911 16.5643C34.807 17.4815 35.2657 18.4725 35.8226 19.4307C36.8276 21.2628 38.1893 22.8752 39.8274 24.1726C41.1775 25.2208 42.8011 25.8577 44.5038 26.0071C45.6503 26.1104 46.8048 25.9362 47.8698 25.4994C48.6642 25.2127 49.0245 24.9097 49.0409 24.9506Z" fill="#455A64"/>
<path d="M49.7994 21.4638C49.7109 21.539 49.6148 21.6049 49.5127 21.6603C49.2485 21.816 48.975 21.9555 48.6938 22.078C48.2583 22.256 47.8091 22.3985 47.3506 22.5039C46.79 22.6223 46.2199 22.6908 45.6472 22.7087C45.0708 22.7148 44.4951 22.6682 43.9273 22.5694C43.4664 22.4886 43.0141 22.3652 42.576 22.2009C42.2785 22.0949 41.9884 21.9691 41.7079 21.8242C41.5113 21.7095 41.4048 21.6522 41.413 21.6358C41.4212 21.6194 41.8635 21.8405 42.6169 22.078C43.0564 22.2186 43.5052 22.3281 43.9601 22.4056C44.5023 22.4856 45.0499 22.5239 45.598 22.5203C46.1619 22.5036 46.7234 22.4406 47.2769 22.3319C47.7281 22.2401 48.1716 22.1142 48.6037 21.9552C49.3653 21.6849 49.783 21.431 49.7994 21.4638Z" fill="#455A64"/>
</g>
<rect x="1" y="1" width="62" height="62" rx="31" stroke="#576CBE" stroke-width="2"/>
<defs>
<clipPath id="clip0_5282_69301">
<rect width="64" height="64" rx="32" fill="white"/>
</clipPath>
</defs>
</svg>
