<svg width="64" height="64" viewBox="0 0 64 64" fill="none" xmlns="http://www.w3.org/2000/svg">
<g clip-path="url(#clip0_5282_69310)">
<rect width="64" height="64" rx="32" fill="#E8EBF6"/>
<path d="M23.5062 17.2242C23.1612 16.6389 22.6582 16.1628 22.0549 15.8503C21.4516 15.5378 20.7725 15.4017 20.0954 15.4575C19.4182 15.5134 18.7706 15.7589 18.2266 16.1659C17.6826 16.573 17.2644 17.1251 17.0198 17.7589C16.8847 18.3195 16.6743 18.8591 16.3942 19.3632C15.4691 20.6198 13.1857 20.2562 12.4317 21.6251C11.6403 23.0796 13.4638 24.8336 13.0199 26.4378C12.667 27.7158 11.0254 28.2934 10.6564 29.5607C10.1591 31.2451 12.1857 32.9135 11.7259 34.598C11.3088 36.0525 9.26069 36.5872 8.93985 38.0631C8.58157 39.6673 10.5869 41.0202 10.5441 42.6886C10.5013 44.8276 7.25007 45.9933 7.54418 48.1056C7.70995 49.2767 8.9559 50.0574 9.1484 51.2178C9.53877 53.3995 6.15918 54.9182 6.56024 57.1C6.75274 58.1267 7.72065 58.7844 8.5602 59.4047C9.39975 60.025 10.2607 60.918 10.0949 61.9447C9.92914 62.9714 8.73131 63.5917 8.08427 64.4687C7.08965 65.8216 8.67249 69.3295 10.2232 70.0033L16.6402 65.2334C16.6402 65.2334 14.806 63.704 16.2444 62.303C17.6829 60.902 16.7471 60.2763 16.6936 59.2122C16.6936 59.2122 18.1214 60.41 17.5973 61.6666C17.3954 62.1505 17.32 62.6777 17.378 63.1988C17.436 63.7198 17.6255 64.2176 17.9289 64.6452L27.6291 60.2977L28.6986 51.052L23.5062 17.2242Z" fill="#263238"/>
<path d="M9.2982 60.2556C9.09202 60.2776 8.88406 60.2776 8.67788 60.2556C8.07967 60.2185 7.49794 60.0447 6.9774 59.7476C6.14125 59.2804 5.50994 58.5174 5.20741 57.6086C5.01683 57.043 4.95649 56.4416 5.03093 55.8493C5.13355 55.1912 5.3546 54.5571 5.68334 53.9777C6.00418 53.3628 6.39987 52.7532 6.69933 52.074C7.03803 51.3867 7.16638 50.6148 7.0683 49.8549C6.93462 49.0741 6.3357 48.4485 5.86513 47.7159C5.59289 47.3414 5.44683 46.8901 5.44805 46.4272C5.46637 46.1863 5.54069 45.9531 5.66509 45.7461C5.7895 45.539 5.96053 45.3639 6.16458 45.2347C6.55501 44.9792 6.96441 44.754 7.38917 44.5609C7.80225 44.3752 8.1531 44.0745 8.3998 43.6946C8.50441 43.4934 8.56691 43.273 8.58346 43.0468C8.60001 42.8206 8.57029 42.5935 8.49609 42.3792C8.35706 41.9205 8.14195 41.4885 7.85974 41.1011C7.58168 40.7054 7.25548 40.3151 6.98276 39.8819C6.68032 39.4483 6.48262 38.9504 6.40523 38.4274C6.36271 37.8763 6.53519 37.3301 6.88651 36.9034C7.24215 36.4989 7.64624 36.1397 8.08968 35.8339C8.51831 35.5494 8.91933 35.2254 9.2875 34.866C9.63507 34.5194 9.84258 34.0567 9.87035 33.5666C9.84491 33.0754 9.70385 32.5972 9.45862 32.1709C9.23403 31.7324 8.9613 31.3046 8.7474 30.8501C8.49611 30.3988 8.38096 29.8843 8.41586 29.3689C8.44145 29.1122 8.51778 28.8632 8.64045 28.6363C8.7676 28.4209 8.92023 28.2216 9.095 28.0427C9.76877 27.3475 10.6404 26.8823 11.004 26.0749C11.1726 25.6788 11.2263 25.2434 11.1591 24.8182C11.0926 24.3918 10.9851 23.9727 10.8382 23.5669C10.4886 22.7864 10.3274 21.9346 10.3677 21.0804C10.4113 20.6572 10.6003 20.2622 10.9024 19.9627C11.19 19.6923 11.5414 19.4992 11.9238 19.4013C12.6671 19.182 13.3943 19.1499 14.0627 18.9895C14.3813 18.9437 14.6874 18.8344 14.9629 18.6681C15.2385 18.5019 15.4779 18.282 15.667 18.0216C16.0092 17.519 16.2017 16.9521 16.5279 16.4923C16.8055 16.1135 17.1563 15.7943 17.5596 15.5537C17.9628 15.313 18.4103 15.1558 18.8754 15.0912C19.47 15.0031 20.0773 15.0751 20.6347 15.2998C20.7779 15.3569 20.9157 15.4267 21.0465 15.5083C21.0935 15.5348 21.1382 15.5653 21.1802 15.5992C21.1802 15.5992 20.9984 15.4816 20.6187 15.3426C20.0633 15.1465 19.4675 15.0931 18.8861 15.1875C18.4288 15.2497 17.9889 15.4046 17.5935 15.6427C17.1981 15.8809 16.8555 16.1973 16.5867 16.5725C16.2766 17.0056 16.1001 17.5778 15.7472 18.1072C15.5532 18.3865 15.3059 18.6248 15.0196 18.8083C14.7333 18.9918 14.4136 19.117 14.0788 19.1767C13.3997 19.3478 12.6671 19.3852 11.9666 19.5991C11.6122 19.6937 11.2881 19.8779 11.0254 20.1339C10.7589 20.4052 10.5945 20.7604 10.5602 21.1392C10.5316 21.9632 10.6926 22.7828 11.0308 23.5348C11.1849 23.9524 11.2978 24.384 11.3677 24.8236C11.443 25.2916 11.3856 25.7715 11.2019 26.2085C10.7848 27.1016 9.89176 27.5721 9.25541 28.2406C9.09471 28.4008 8.95459 28.5804 8.8383 28.7753C8.73256 28.9768 8.66545 29.1962 8.64045 29.4223C8.61507 29.8935 8.72255 30.3622 8.95061 30.7752C9.1645 31.2137 9.43189 31.6362 9.66718 32.0907C9.92854 32.5502 10.077 33.0652 10.1003 33.5933C10.0767 34.1431 9.84773 34.6641 9.45862 35.0532C9.07938 35.4264 8.66579 35.763 8.22336 36.0585C7.79717 36.3411 7.40897 36.6771 7.0683 37.0585C6.75468 37.4364 6.60117 37.9219 6.64051 38.4114C6.71212 38.8959 6.89517 39.3572 7.17526 39.7589C7.44263 40.1814 7.75813 40.561 8.04689 40.9728C8.34529 41.3823 8.57137 41.8399 8.71532 42.3257C8.79586 42.5688 8.82694 42.8256 8.80674 43.0809C8.78653 43.3362 8.71547 43.5849 8.59769 43.8123C8.32747 44.229 7.94327 44.5594 7.49077 44.7641C7.07563 44.9545 6.67367 45.1725 6.2876 45.4165C6.11011 45.5284 5.96083 45.6797 5.85139 45.8587C5.74195 46.0377 5.67529 46.2396 5.6566 46.4486C5.65811 46.8665 5.79298 47.273 6.0416 47.6089C6.48544 48.3202 7.1111 48.9672 7.26083 49.8228C7.36098 50.6225 7.2214 51.434 6.85978 52.1543C6.54963 52.8548 6.14854 53.459 5.82769 54.0633C5.50449 54.6241 5.28361 55.2379 5.17532 55.8761C5.10018 56.4474 5.15314 57.0283 5.33039 57.5765C5.61388 58.4649 6.21571 59.2172 7.02019 59.6888C7.52776 59.9844 8.09323 60.1668 8.67788 60.2235C9.08429 60.293 9.2982 60.2396 9.2982 60.2556Z" fill="#263238"/>
<path d="M9.59498 67.2471C9.54456 67.2264 9.49902 67.1955 9.46129 67.1562C9.33472 67.0419 9.25793 66.8825 9.24738 66.7123C9.21949 66.4507 9.27971 66.1872 9.4185 65.9637C9.61104 65.6616 9.90794 65.4408 10.2527 65.3434C10.6699 65.2239 11.0929 65.1257 11.52 65.0493C12.014 64.9579 12.4521 64.6754 12.7393 64.2632C12.8018 64.1447 12.838 64.014 12.8454 63.8802C12.8528 63.7464 12.8312 63.6125 12.782 63.4878C12.6619 63.2161 12.5073 62.9609 12.3222 62.7285C12.1093 62.4649 11.9708 62.1492 11.9211 61.8141C11.8963 61.4574 11.9842 61.102 12.1724 60.7981C12.3435 60.4826 12.5521 60.1938 12.7393 59.8837C12.9408 59.5881 13.054 59.2412 13.0655 58.8837C13.0346 58.5164 12.8689 58.1735 12.6002 57.9212C12.3436 57.6324 12.028 57.3864 11.75 57.0656C11.5865 56.9111 11.462 56.72 11.3867 56.5081C11.3115 56.2961 11.2875 56.0694 11.3168 55.8464C11.3536 55.6133 11.4664 55.399 11.6377 55.2367C11.7954 55.0807 11.9757 54.9491 12.1724 54.8464C12.5735 54.6485 12.9959 54.5042 13.4023 54.3116C13.8188 54.1638 14.1881 53.9071 14.4718 53.5684C14.5921 53.3859 14.6712 53.1795 14.7035 52.9634C14.7359 52.7473 14.7206 52.5267 14.659 52.3171C14.5353 51.8628 14.3706 51.4207 14.167 50.9962C13.9562 50.544 13.807 50.0657 13.7232 49.5738C13.6669 49.0582 13.752 48.5369 13.9692 48.0659C14.3702 47.1247 15.0386 46.3119 15.2632 45.3333C15.3573 44.8404 15.2898 44.3303 15.0707 43.8788C14.8362 43.4107 14.5736 42.9572 14.2846 42.5206C13.9868 42.0608 13.8034 41.5364 13.7499 40.9912C13.7502 40.4389 13.9388 39.9032 14.2846 39.4725C14.6055 39.0447 14.9745 38.6865 15.2953 38.2961C15.6263 37.9404 15.8473 37.4965 15.9317 37.0181C15.9619 36.5424 15.8422 36.0692 15.5894 35.6652C15.3595 35.2427 15.0547 34.847 14.8355 34.4139C14.571 33.9901 14.4285 33.5016 14.4237 33.0022C14.4657 32.5166 14.6334 32.0503 14.9103 31.6493C15.1563 31.2482 15.4451 30.8846 15.6108 30.4942C15.8134 30.122 15.8796 29.6908 15.798 29.275C15.6162 28.4515 14.9745 27.7991 14.8194 26.9382C14.7451 26.5124 14.8411 26.0745 15.0868 25.719C15.3213 25.3998 15.5883 25.1059 15.8835 24.842C16.1561 24.5998 16.3937 24.3208 16.5894 24.0131C16.7573 23.714 16.8474 23.3775 16.8514 23.0346C16.8514 22.3501 16.7284 21.6923 16.7659 21.0507C16.8001 20.4465 16.9838 19.8604 17.3006 19.3448C17.5501 18.9307 17.8811 18.5717 18.2736 18.2895C18.6662 18.0072 19.112 17.8078 19.584 17.7032C20.1763 17.5726 20.7918 17.591 21.3753 17.7566C21.5794 17.8109 21.7754 17.8918 21.9582 17.9973C21.9582 17.9973 21.755 17.9064 21.3646 17.8048C20.7865 17.665 20.1835 17.665 19.6053 17.8048C19.1515 17.9111 18.7239 18.1079 18.348 18.3836C17.9722 18.6593 17.656 19.0081 17.4183 19.409C17.1173 19.9061 16.9446 20.4702 16.9156 21.0507C16.8782 21.6656 17.0386 22.318 17.0172 23.0346C17.0146 23.4086 16.919 23.7761 16.7391 24.104C16.5437 24.4357 16.3025 24.7382 16.0226 25.0024C15.7374 25.257 15.481 25.5422 15.2579 25.8526C15.1509 26.0069 15.0755 26.1808 15.036 26.3644C14.9965 26.548 14.9938 26.7375 15.028 26.9221C15.1616 27.6975 15.8033 28.3445 16.0119 29.2429C16.1071 29.7043 16.039 30.1844 15.8194 30.6012C15.6162 31.0183 15.3435 31.3926 15.1082 31.7776C14.8523 32.1466 14.6974 32.5761 14.659 33.0235C14.6679 33.4825 14.803 33.9302 15.0493 34.3176C15.2793 34.7347 15.5841 35.1304 15.8033 35.5689C16.0788 36.0156 16.2078 36.5372 16.1723 37.0609C16.0843 37.5858 15.8466 38.0741 15.4878 38.4672C15.1616 38.8683 14.7873 39.2266 14.4879 39.633C14.1682 40.0156 13.9923 40.498 13.9905 40.9966C14.0494 41.5057 14.2331 41.9925 14.5253 42.4136C14.8149 42.8611 15.0808 43.3234 15.3221 43.7986C15.563 44.2968 15.6362 44.8596 15.5306 45.4028C15.2953 46.4723 14.6002 47.2798 14.2205 48.1835C14.0175 48.6171 13.9362 49.0976 13.9852 49.5738C14.0641 50.0442 14.2081 50.5014 14.413 50.9321C14.6198 51.3706 14.7863 51.827 14.9103 52.2957C14.9781 52.5349 14.9932 52.786 14.9544 53.0316C14.9156 53.2772 14.8239 53.5114 14.6857 53.7181C14.3841 54.0881 13.989 54.3706 13.5414 54.5362C13.1243 54.718 12.7018 54.8571 12.3222 55.0442C12.1353 55.1143 11.9679 55.228 11.834 55.3759C11.7 55.5238 11.6034 55.7016 11.5521 55.8945C11.5225 56.0902 11.5417 56.2902 11.6079 56.4768C11.6742 56.6634 11.7854 56.8307 11.9318 56.964C12.1885 57.2634 12.5093 57.4987 12.7767 57.8249C13.0683 58.1093 13.2485 58.4887 13.2847 58.8944C13.2663 59.2862 13.1405 59.6655 12.9211 59.9906C12.7286 60.3061 12.52 60.5949 12.3542 60.8943C12.1794 61.168 12.0952 61.4898 12.1136 61.8141C12.156 62.1228 12.2838 62.4136 12.4826 62.6536C12.6709 62.9012 12.8289 63.1705 12.9531 63.4557C13.0068 63.5996 13.0289 63.7534 13.0178 63.9066C13.0067 64.0598 12.9628 64.2087 12.889 64.3434C12.7368 64.5624 12.5426 64.7489 12.3177 64.8921C12.0928 65.0353 11.8416 65.1324 11.5789 65.1776C11.1534 65.2446 10.732 65.3356 10.3169 65.4503C9.98662 65.5324 9.69875 65.7344 9.5094 66.0172C9.37594 66.2274 9.31233 66.4745 9.32761 66.723C9.33255 66.8243 9.35893 66.9234 9.40502 67.0138C9.45112 67.1041 9.51586 67.1836 9.59498 67.2471Z" fill="#455A64"/>
<g opacity="0.3">
<path d="M56.769 59.6328C54.7183 58.4179 52.3031 57.9698 49.9531 58.3683C47.6031 58.7668 45.4707 59.9861 43.9352 61.8092L43.7213 60.2424C43.593 61.9375 42.2294 63.8572 42.4165 64.9642C42.4939 65.5217 42.7534 66.038 43.1548 66.4327C43.5562 66.8273 44.0769 67.0781 44.6357 67.1459C46.2399 67.2101 47.673 65.4347 49.1489 66.0283C49.6355 66.2262 49.9992 66.6593 50.4751 66.8785C51.5446 67.3758 52.7745 66.6807 53.737 65.9962C54.8422 65.2119 55.9295 64.3991 56.9989 63.5578C57.5925 63.0872 58.2289 62.5257 58.293 61.7717C58.3786 60.8466 57.5658 60.1033 56.769 59.6328Z" fill="black"/>
</g>
<path d="M42.8378 24.3432C42.801 23.6249 42.497 22.9463 41.9855 22.4407C41.474 21.9351 40.7919 21.639 40.0732 21.6106L24.5657 18.8086C19.6568 18.6268 16.8279 24.8512 16.8547 29.7655C16.8868 35.2252 17.1381 41.8881 18.0579 45.8986C19.9455 53.9626 26.2555 54.5722 26.2555 54.5722C26.2555 54.5722 26.3143 57.0962 26.4854 60.6522C26.5405 61.8033 26.8264 62.9315 27.3259 63.97C27.8254 65.0085 28.5284 65.936 29.3933 66.6976C30.2581 67.4592 31.2671 68.0393 32.3604 68.4035C33.4537 68.7677 34.6091 68.9086 35.7579 68.8177C37.9495 68.6447 39.9916 67.6388 41.4645 66.0067C42.9375 64.3747 43.7293 62.2404 43.6774 60.0426L42.8378 24.3432Z" fill="#FFBE9D"/>
<path d="M19.6194 35.5785C19.641 35.8471 19.7631 36.0976 19.9614 36.28C20.1597 36.4625 20.4195 36.5633 20.6889 36.5625C20.8225 36.5639 20.955 36.5386 21.0786 36.488C21.2022 36.4373 21.3145 36.3625 21.4087 36.2678C21.5029 36.1731 21.5772 36.0604 21.6271 35.9365C21.6771 35.8126 21.7017 35.68 21.6996 35.5464C21.678 35.2779 21.5559 35.0273 21.3576 34.8449C21.1593 34.6625 20.8995 34.5617 20.6301 34.5625C20.4967 34.5618 20.3646 34.5876 20.2413 34.6385C20.118 34.6894 20.006 34.7643 19.9119 34.8588C19.8179 34.9534 19.7436 35.0657 19.6934 35.1893C19.6431 35.3128 19.618 35.4452 19.6194 35.5785Z" fill="#263238"/>
<path d="M18.6807 32.6034C18.8198 32.7264 19.5684 32.0686 20.6967 32.0152C21.825 31.9617 22.686 32.443 22.7983 32.2986C22.9106 32.1542 22.702 31.9991 22.3277 31.7638C21.8171 31.4601 21.2249 31.3218 20.6325 31.3681C20.0436 31.4036 19.4815 31.6266 19.0283 32.0045C18.7128 32.2879 18.6112 32.5446 18.6807 32.6034Z" fill="#263238"/>
<path d="M30.1521 35.2504C30.1724 35.5199 30.2939 35.7718 30.4923 35.9553C30.6907 36.1388 30.9513 36.2404 31.2216 36.2397C31.3557 36.2404 31.4885 36.2144 31.6125 36.1633C31.7364 36.1121 31.849 36.0369 31.9435 35.9418C32.0381 35.8467 32.1128 35.7338 32.1632 35.6096C32.2137 35.4854 32.239 35.3524 32.2376 35.2183C32.216 34.9498 32.0939 34.6992 31.8956 34.5168C31.6974 34.3344 31.4375 34.2335 31.1681 34.2344C31.0345 34.2337 30.9021 34.2595 30.7785 34.3103C30.6549 34.3611 30.5426 34.4359 30.4481 34.5304C30.3536 34.6249 30.2788 34.7372 30.228 34.8608C30.1772 34.9843 30.1514 35.1168 30.1521 35.2504Z" fill="#263238"/>
<path d="M29.7957 32.579C29.9348 32.7074 30.6888 32.0443 31.8117 31.9908C32.9347 31.9374 33.801 32.424 33.9133 32.2742C33.9667 32.2101 33.8224 31.9748 33.4427 31.7395C32.931 31.4383 32.3397 31.3003 31.7476 31.3438C31.1592 31.3818 30.5978 31.6045 30.1433 31.9801C29.8278 32.2636 29.7262 32.5202 29.7957 32.579Z" fill="#263238"/>
<path d="M26.2792 41.205C25.6736 41.059 25.0519 40.9907 24.429 41.0018C24.1402 41.0018 23.8622 40.9483 23.8033 40.7558C23.7589 40.4619 23.8055 40.1615 23.937 39.8949C24.1563 39.1783 24.3916 38.4297 24.6376 37.649C25.6001 34.4405 26.2792 31.831 26.1509 31.7668C26.0225 31.7026 25.1349 34.2854 24.167 37.4832C23.937 38.2746 23.7124 39.0233 23.5039 39.7398C23.348 40.0996 23.3234 40.5027 23.4344 40.8788C23.4828 40.978 23.5532 41.0647 23.6404 41.1324C23.7275 41.2 23.829 41.2468 23.937 41.2692C24.0991 41.2998 24.2643 41.3106 24.429 41.3013C25.0473 41.3477 25.669 41.3153 26.2792 41.205Z" fill="#263238"/>
<path d="M26.2371 54.5692C30.0722 54.3611 33.7745 53.0931 36.9319 50.9063C36.9319 50.9063 34.563 56.7029 26.3493 56.4997L26.2371 54.5692Z" fill="#FFA084"/>
<path d="M29.0352 29.68C29.1689 29.9795 30.2812 29.7602 31.6127 29.8298C32.9442 29.8993 34.0351 30.1827 34.1955 29.8939C34.265 29.7602 34.0564 29.4822 33.6072 29.2202C33.0094 28.8915 32.3426 28.7083 31.6608 28.6854C30.9791 28.6501 30.2989 28.7785 29.6769 29.0597C29.2277 29.279 28.9978 29.541 29.0352 29.68Z" fill="#263238"/>
<path d="M18.9052 29.8392C19.1191 30.0798 19.8785 29.7643 20.8089 29.6841C21.7394 29.6039 22.5415 29.7376 22.7073 29.4595C22.7768 29.3259 22.6377 29.0745 22.2741 28.8606C21.7911 28.6005 21.2414 28.4905 20.6955 28.5448C20.1496 28.5991 19.6323 28.8152 19.2101 29.1654C18.8999 29.4488 18.809 29.7216 18.9052 29.8392Z" fill="#263238"/>
<path d="M22.6167 18.6641C22.1355 19.6748 24.114 21.541 25.1781 21.8726C26.2423 22.2041 27.6112 22.0437 28.1888 23.0062C28.8411 24.1025 27.5043 25.8671 29.7235 27.0542C30.4186 27.4286 31.4453 26.6425 32.0282 27.1772C32.7501 27.8403 31.809 28.99 31.8411 29.9686C31.8999 31.8723 35.3704 32.022 35.5843 33.9096C35.7286 35.0968 34.4025 36.2304 34.8677 37.332C35.3329 38.4336 37.2366 38.364 37.7072 39.471C38.3114 40.9255 35.857 42.1768 36.1618 43.7168C36.4666 45.2569 39.0173 45.2462 39.5307 46.7114C39.9691 47.968 38.5574 49.337 39.0387 50.5776C39.5734 51.9893 41.9798 51.7861 42.6215 53.1604C43.3915 54.8181 40.7659 56.7378 41.6589 58.3367C41.9584 58.8714 42.6375 59.0586 43.0439 59.5185C44.338 61.0157 44.2257 64.2723 42.8835 65.5771H43.8407C45.2825 65.5529 46.6959 65.172 47.9547 64.4685C49.2134 63.7649 50.2783 62.7606 51.0544 61.5451L51.8511 63.4007C54.4072 62.5879 56.4018 60.9141 58.4499 59.1923C58.9603 58.762 59.5682 58.463 60.2206 58.3214C60.873 58.1797 61.5501 58.1996 62.1931 58.3795L62.7278 58.5345C64.439 58.6575 66.6849 57.8126 68.1127 56.8554C66.225 56.4758 65.2144 54.4224 64.7438 52.5775C64.2732 50.7326 63.9844 48.6311 62.5727 47.321C61.0487 45.9039 58.4017 45.5831 57.6958 43.6206C57.1611 42.0805 58.1664 40.3212 57.6958 38.7651C57.2253 37.209 55.343 36.4176 54.6264 34.9256C53.6532 32.8936 55.0596 30.2092 53.819 28.3323C52.4768 26.2896 48.8726 26.589 47.8566 24.3645C47.3219 23.1346 47.7497 21.4662 46.7871 20.525C46.0117 19.7764 44.6856 19.8994 43.8674 19.1882C42.6696 18.1508 43.2578 16.0171 42.2151 14.8193C40.8034 13.2151 37.9371 14.6268 36.1083 13.4825C34.9693 12.7552 34.5896 11.1991 33.4613 10.4558C31.9373 9.43982 29.9374 10.3542 28.2048 10.9585C26.868 11.4237 25.4616 11.6911 24.1622 12.2633C22.8627 12.8354 21.6382 13.7766 21.1783 15.1188C20.7184 16.461 21.2959 18.1989 22.6328 18.6534" fill="#263238"/>
<path d="M65.5949 50.3741L65.7286 50.4917C65.8142 50.5719 65.9425 50.6896 66.1029 50.8607C66.3001 51.0657 66.4791 51.2876 66.6377 51.5238C66.8645 51.8422 67.0162 52.2078 67.0815 52.5933C67.1102 52.8428 67.087 53.0956 67.0134 53.3358C66.9397 53.576 66.8173 53.7983 66.6537 53.989C66.4629 54.2132 66.1966 54.3597 65.9051 54.4007C65.7471 54.419 65.587 54.4052 65.4345 54.3602C65.282 54.3152 65.1401 54.2398 65.0174 54.1387C64.5419 53.6393 64.2661 52.9829 64.242 52.2938C64.1995 51.5458 64.1995 50.7959 64.242 50.0479C64.2795 49.2618 64.349 48.4437 64.4613 47.5934C64.5147 47.1656 64.5842 46.7325 64.6591 46.2994C64.7445 45.8628 64.7715 45.4168 64.7393 44.9732C64.7313 44.753 64.6726 44.5376 64.5678 44.3438C64.463 44.1499 64.3149 43.9829 64.1351 43.8556C63.7269 43.6337 63.2587 43.5475 62.7982 43.6096C62.2993 43.6649 61.7975 43.6899 61.2956 43.6845C61.024 43.6822 60.7563 43.6202 60.5114 43.5028C60.2665 43.3854 60.0504 43.2156 59.8785 43.0053C59.5606 42.5565 59.3888 42.0206 59.3866 41.4706C59.3751 40.9332 59.4163 40.3958 59.5095 39.8664C59.6003 39.3365 59.6165 38.7965 59.5577 38.2622C59.5284 37.9996 59.4454 37.7459 59.3138 37.5169C59.1823 37.2878 59.005 37.0883 58.793 36.9307C58.3161 36.6356 57.8131 36.385 57.2904 36.182C56.7333 35.9401 56.2685 35.5259 55.9642 35.0002C55.3706 33.9308 55.376 32.6688 55.3974 31.487C55.4202 30.9009 55.3916 30.314 55.3118 29.733C55.2399 29.1655 55.0306 28.624 54.7022 28.1555C54.007 27.2572 52.8841 26.8508 51.8681 26.3909C51.3574 26.1737 50.873 25.8993 50.4243 25.5727C49.9573 25.2366 49.606 24.7639 49.4189 24.2198C49.2906 23.6936 49.2118 23.1565 49.1837 22.6156C49.1646 22.103 48.9503 21.6171 48.5847 21.2574C48.1852 20.9586 47.7121 20.7738 47.2158 20.7226C46.7157 20.6482 46.2235 20.5283 45.7453 20.3643C45.2719 20.1695 44.8898 19.8027 44.6758 19.3376C44.4965 18.8914 44.3969 18.4172 44.3817 17.9366C44.3175 17.0222 44.3442 16.1024 43.9165 15.3805C43.4916 14.6949 42.8411 14.1788 42.0769 13.9207C41.391 13.6677 40.6687 13.5268 39.938 13.5036C39.2375 13.4662 38.5744 13.4768 37.9487 13.4501C37.3662 13.4353 36.7863 13.3673 36.2161 13.2469C35.7388 13.1388 35.2808 12.9584 34.8579 12.7122C34.2536 12.3858 33.77 11.8741 33.4783 11.2523C33.3811 11.0345 33.3249 10.8007 33.3125 10.5625C33.3708 10.7888 33.4458 11.0104 33.5371 11.2256C33.8425 11.823 34.3241 12.3121 34.9167 12.6266C35.3349 12.871 35.7873 13.0513 36.2589 13.1613C36.8221 13.2775 37.3952 13.3384 37.9701 13.3432C38.5904 13.3432 39.2535 13.3432 39.9647 13.3752C40.7201 13.3913 41.4679 13.5303 42.1785 13.787C42.9821 14.056 43.6666 14.5969 44.1143 15.3164C44.5742 16.0971 44.5475 17.0489 44.617 17.9473C44.6353 18.404 44.7311 18.8542 44.9004 19.2788C45.0895 19.6906 45.4277 20.0155 45.8469 20.1879C46.312 20.3494 46.7921 20.464 47.28 20.5301C47.8095 20.5929 48.3122 20.7981 48.7345 21.1237C49.1279 21.5169 49.3589 22.0438 49.3815 22.5996C49.4126 23.1278 49.4913 23.6522 49.6168 24.1664C49.7889 24.6659 50.1122 25.0995 50.5419 25.407C50.9928 25.7212 51.477 25.9848 51.9857 26.193C52.5204 26.423 53.0552 26.6369 53.5365 26.9149C54.0719 27.1831 54.5426 27.5645 54.9161 28.0325C55.2662 28.5297 55.4918 29.1038 55.5738 29.7063C55.6575 30.3013 55.688 30.9026 55.6647 31.503C55.6647 32.6848 55.6647 33.8987 56.1995 34.8933C56.4811 35.371 56.9084 35.7458 57.4187 35.9628C57.9645 36.1777 58.4876 36.4464 58.9801 36.7649C59.2176 36.9402 59.4162 37.1628 59.5635 37.4187C59.7107 37.6745 59.8034 37.9581 59.8357 38.2515C59.8977 38.8071 59.8815 39.3687 59.7876 39.9199C59.6909 40.4489 59.6479 40.9864 59.6593 41.5241C59.6595 42.0298 59.8124 42.5237 60.0978 42.9412C60.2516 43.1271 60.4443 43.2771 60.6623 43.3805C60.8804 43.484 61.1184 43.5385 61.3598 43.5401C61.8526 43.5433 62.3453 43.5201 62.8357 43.4706C63.3401 43.4051 63.8522 43.5045 64.2955 43.754C64.5015 43.8967 64.6711 44.0856 64.7909 44.3057C64.9107 44.5258 64.9773 44.7709 64.9853 45.0213C65.0176 45.4814 64.987 45.9438 64.8944 46.3956C64.8195 46.8341 64.75 47.2619 64.6965 47.6897C64.5789 48.5292 64.504 49.3474 64.4559 50.1281C64.4057 50.8667 64.395 51.6075 64.4238 52.3473C64.4378 53.001 64.6908 53.6268 65.135 54.1066C65.2437 54.1966 65.3691 54.2642 65.504 54.3055C65.6389 54.3468 65.7807 54.361 65.9211 54.3472C66.1846 54.3103 66.4258 54.1792 66.6002 53.9783C66.7561 53.8014 66.8737 53.5941 66.9455 53.3696C67.0173 53.145 67.0418 52.908 67.0173 52.6735C66.9665 52.2903 66.8273 51.9242 66.6109 51.604C66.4505 51.3675 66.2717 51.144 66.0762 50.9356L65.7179 50.5506C65.6708 50.4962 65.6296 50.4371 65.5949 50.3741Z" fill="#263238"/>
<path d="M47.7496 62.1784L47.9688 62.0821C48.1186 62.0233 48.3378 61.9324 48.6105 61.7934C48.9515 61.6282 49.2511 61.3888 49.4875 61.0929C49.6392 60.8929 49.7342 60.6557 49.7624 60.4064C49.7906 60.157 49.7511 59.9046 49.6479 59.6758C49.5714 59.55 49.4704 59.4407 49.351 59.3544C49.2317 59.2681 49.0963 59.2064 48.9528 59.1731C48.648 59.0769 48.3111 59.0341 47.9635 58.9165C47.7794 58.8603 47.6122 58.7592 47.4769 58.6223C47.3404 58.4758 47.2575 58.2873 47.2416 58.0876C47.2744 57.6763 47.4166 57.2812 47.6534 56.9433C47.8778 56.594 48.0153 56.1961 48.0544 55.7829C48.0919 55.3463 48.0086 54.9079 47.8138 54.5155C47.5951 54.0963 47.2552 53.7527 46.8384 53.5295C46.4215 53.3063 45.9471 53.2138 45.477 53.2642H45.3754V53.1626C45.3644 52.4288 45.5977 51.7121 46.0384 51.1253C46.4875 50.5342 46.883 49.9043 47.2202 49.243C47.3708 48.9055 47.4561 48.5426 47.4715 48.1735C47.4908 47.7987 47.3687 47.4304 47.1293 47.1414C46.632 46.5479 45.7711 46.4142 44.9904 46.0719C44.56 45.9003 44.2091 45.5742 44.0064 45.1575C43.8356 44.7283 43.8356 44.2499 44.0064 43.8207C44.2791 42.9811 44.8299 42.2164 44.7978 41.3715C44.7656 40.946 44.5925 40.5434 44.3059 40.2272C44.0136 39.8955 43.6707 39.6122 43.2899 39.3877C42.452 38.9838 41.6458 38.5173 40.8782 37.992C40.3938 37.6277 40.0591 37.0991 39.937 36.5054C39.8571 35.9264 39.9139 35.3367 40.1028 34.7835C40.2525 34.2488 40.4504 33.714 40.552 33.1793C40.6078 32.9212 40.6294 32.6569 40.6161 32.3932C40.5896 32.1405 40.5054 31.8972 40.3702 31.682C40.0657 31.2654 39.628 30.9654 39.1296 30.8318C38.6183 30.6781 38.121 30.4813 37.643 30.2436C37.4033 30.1096 37.1958 29.9248 37.0351 29.7022C36.8743 29.4796 36.7642 29.2245 36.7125 28.9548C36.6399 28.4388 36.6709 27.9134 36.8035 27.4094C36.9051 26.9228 37.028 26.4469 37.0868 25.971C37.1672 25.5157 37.1266 25.0474 36.9692 24.6127C36.7881 24.2051 36.4856 23.8633 36.1029 23.6341C35.7277 23.3955 35.3184 23.2152 34.8891 23.0994C34.0495 22.8748 33.1779 22.8053 32.3865 22.5165C31.9947 22.38 31.632 22.1714 31.317 21.9016C31.02 21.6367 30.7767 21.3172 30.6004 20.9604C30.2475 20.2813 30.0657 19.5861 29.7662 18.9765C29.5159 18.3985 29.1197 17.8955 28.6165 17.5167C28.2121 17.214 27.7473 17.0019 27.2537 16.8949C26.76 16.7878 26.2491 16.7884 25.7557 16.8964C25.1266 17.0378 24.5457 17.3421 24.0712 17.7787C23.9074 17.9325 23.7538 18.0968 23.6113 18.2707C23.7264 18.0721 23.8706 17.8918 24.0391 17.7359C24.5098 17.2774 25.0954 16.9541 25.7343 16.8001C26.2415 16.6796 26.7688 16.6713 27.2796 16.7757C27.7903 16.88 28.2721 17.0946 28.6914 17.4044C29.2205 17.7904 29.6391 18.3086 29.9053 18.907C30.2047 19.5273 30.4026 20.2225 30.7502 20.8802C30.917 21.222 31.1454 21.5302 31.4239 21.7893C31.7254 22.0425 32.0719 22.2366 32.4453 22.3614C33.2046 22.6395 34.0495 22.7037 34.9372 22.9283C35.3852 23.0435 35.814 23.2237 36.2099 23.463C36.629 23.7139 36.9612 24.0871 37.1617 24.5325C37.334 25.0026 37.38 25.5096 37.2954 26.003C37.2366 26.4897 37.1136 26.9709 37.012 27.4575C36.8885 27.9321 36.8594 28.4263 36.9264 28.912C36.9742 29.1498 37.0731 29.3743 37.2162 29.57C37.3593 29.7657 37.5433 29.9281 37.7553 30.0457C38.2206 30.2771 38.7056 30.4668 39.2044 30.6125C39.7509 30.763 40.2298 31.0949 40.5627 31.5537C40.7198 31.8005 40.8169 32.0807 40.8461 32.3718C40.8624 32.6586 40.8408 32.9463 40.7819 33.2274C40.6696 33.7622 40.4771 34.2969 40.3274 34.8316C40.1493 35.3465 40.0944 35.8959 40.167 36.4359C40.2782 36.9743 40.5849 37.4524 41.0279 37.7781C41.7866 38.2951 42.5819 38.7562 43.4075 39.1577C43.8087 39.3952 44.1697 39.6948 44.477 40.0454C44.7943 40.4031 44.9825 40.8568 45.0117 41.3341C45.0385 42.3074 44.477 43.072 44.2096 43.8634C44.0571 44.2389 44.0571 44.6591 44.2096 45.0345C44.3826 45.4084 44.6928 45.7013 45.0759 45.8527C45.4449 46.0292 45.8459 46.1468 46.2309 46.3019C46.6397 46.4409 47.0074 46.6799 47.3004 46.997C47.5698 47.3284 47.7087 47.7468 47.6908 48.1735C47.674 48.5763 47.5796 48.9721 47.4127 49.3392C47.0727 50.012 46.6698 50.6512 46.2096 51.2482C45.7907 51.7983 45.5651 52.4712 45.5679 53.1626L45.4609 53.0771C45.9684 53.025 46.4798 53.1273 46.9282 53.3706C47.3766 53.6139 47.7412 53.9868 47.9742 54.4407C48.1723 54.8495 48.2598 55.3031 48.2279 55.7563C48.196 56.2095 48.0458 56.6464 47.7924 57.0235C47.5677 57.3389 47.4294 57.7076 47.3914 58.0929C47.4061 58.2639 47.4745 58.4258 47.5869 58.5555C47.6993 58.6852 47.8499 58.776 48.017 58.8149C48.3378 58.9325 48.6801 58.9806 48.9956 59.0822C49.311 59.1661 49.5814 59.3694 49.7496 59.6491C49.8783 59.909 49.916 60.2047 49.8565 60.4886C49.8098 60.7349 49.7074 60.9672 49.5571 61.1677C49.313 61.4714 48.9993 61.7117 48.6426 61.8682C48.355 61.9985 48.0561 62.1023 47.7496 62.1784Z" fill="#455A64"/>
<path d="M60.8728 57.9134C61.0072 57.7146 61.1184 57.5011 61.2043 57.2771C61.3155 56.9516 61.3614 56.6075 61.3394 56.2643C61.3174 55.9211 61.2278 55.5857 61.076 55.2771C60.855 54.8325 60.497 54.4707 60.0547 54.2451C59.8006 54.108 59.5559 53.9544 59.3221 53.7852C59.052 53.592 58.8693 53.2998 58.814 52.9724C58.7178 52.2772 59.1991 51.6569 59.1884 50.9564C59.1808 50.7803 59.133 50.6082 59.0486 50.4535C58.9643 50.2987 58.8456 50.1652 58.7017 50.0634C58.3806 49.8441 58.034 49.6645 57.6697 49.5286C57.2752 49.378 56.9029 49.1747 56.5628 48.9244C56.2028 48.6378 55.9656 48.2247 55.8997 47.7693C55.7553 46.8549 56.0441 45.9405 56.0601 45.0101C56.0926 44.5458 55.9765 44.0832 55.7286 43.6893C55.4221 43.3151 55.0161 43.0352 54.5575 42.8818C54.0685 42.7081 53.59 42.5064 53.1244 42.2775C52.8721 42.1539 52.6522 41.9729 52.4823 41.7492C52.3124 41.5254 52.1972 41.265 52.1458 40.9888C52.0971 40.4387 52.1241 39.8845 52.226 39.3418C52.2808 39.0844 52.283 38.8187 52.2324 38.5604C52.1819 38.3022 52.0797 38.0569 51.9319 37.8392C51.5349 37.4632 51.0521 37.1897 50.5255 37.0424C49.9397 36.8836 49.4215 36.5382 49.0496 36.0585C48.7392 35.5202 48.6293 34.8893 48.7395 34.2778C48.8381 33.6817 48.9866 33.095 49.1833 32.5238C49.373 31.9652 49.4511 31.3747 49.4133 30.7859C49.3778 30.4978 49.28 30.2208 49.1267 29.9742C48.9734 29.7277 48.7683 29.5174 48.5256 29.3582C48.0035 29.0637 47.4331 28.8645 46.8412 28.7699C46.2476 28.6523 45.6433 28.556 45.0551 28.3849C44.4507 28.2377 43.8967 27.9312 43.4509 27.4972C43.0353 27.0551 42.7246 26.5251 42.5418 25.9465C42.2535 24.836 42.0215 23.7116 41.8467 22.5776C41.7375 22.0428 41.5577 21.5249 41.3119 21.0376C41.0587 20.5797 40.69 20.1963 40.2424 19.9253C39.3173 19.4333 38.2318 19.567 37.2318 19.6151C36.7253 19.6501 36.2165 19.6339 35.7132 19.567C35.2297 19.48 34.7736 19.2803 34.3817 18.9841C33.7021 18.3495 33.12 17.6179 32.6544 16.8131C32.4159 16.46 32.1378 16.1353 31.8256 15.8452C31.5189 15.5783 31.1792 15.3519 30.8149 15.1714C29.4907 14.5723 27.9915 14.4847 26.6065 14.9254C25.5658 15.2693 24.6028 15.8144 23.7723 16.5297C23.2425 16.9765 22.749 17.4646 22.2965 17.9895L21.9435 18.4013C21.9065 18.451 21.8654 18.4975 21.8206 18.5403C21.8508 18.4851 21.8867 18.4332 21.9275 18.3852C21.997 18.2836 22.1093 18.1446 22.259 17.9574C22.6913 17.4152 23.1689 16.9107 23.6868 16.4495C24.5187 15.7122 25.4896 15.1486 26.5423 14.7918C27.9603 14.3256 29.5011 14.4057 30.863 15.0164C31.2492 15.1967 31.609 15.4288 31.9325 15.7062C32.2516 16.0059 32.5351 16.3415 32.7774 16.7061C33.2375 17.4964 33.8083 18.2167 34.4726 18.8451C34.8504 19.1252 35.291 19.3088 35.7559 19.3799C36.2453 19.4435 36.7399 19.456 37.2318 19.4173C37.7345 19.3905 38.2532 19.3478 38.7826 19.3692C39.3288 19.3735 39.8667 19.5034 40.3547 19.7488C40.843 20.0355 41.2441 20.4496 41.5151 20.9467C41.7655 21.4546 41.9454 21.9943 42.0499 22.5509C42.2905 23.6524 42.3921 24.8021 42.745 25.893C42.918 26.4373 43.2103 26.936 43.6006 27.3529C44.0161 27.7577 44.5335 28.0423 45.0979 28.1764C45.6647 28.3421 46.2636 28.4384 46.8679 28.556C47.4904 28.6545 48.0901 28.8646 48.6379 29.1763C48.9092 29.3566 49.1385 29.5932 49.3101 29.87C49.4817 30.1469 49.5917 30.4574 49.6325 30.7806C49.6752 31.4036 49.5934 32.029 49.3919 32.6201C49.1989 33.1793 49.0523 33.7534 48.9534 34.3366C48.8543 34.8868 48.9508 35.4543 49.2261 35.9408C49.5744 36.3742 50.0492 36.6883 50.5844 36.8392C51.1528 36.9942 51.6721 37.2925 52.0923 37.7055C52.2798 37.9414 52.3983 38.2245 52.4346 38.5236C52.4694 38.806 52.4694 39.0915 52.4346 39.3739C52.3313 39.902 52.3025 40.442 52.349 40.9781C52.3954 41.2221 52.4978 41.4519 52.6481 41.6496C52.7984 41.8472 52.9926 42.0073 53.2153 42.1171C53.673 42.3442 54.1445 42.5424 54.627 42.7107C55.1202 42.8813 55.5543 43.1893 55.8783 43.5984C56.153 44.0274 56.2806 44.5342 56.2419 45.0422C56.2419 46.01 55.9318 46.9137 56.0655 47.764C56.1192 48.1833 56.3316 48.566 56.659 48.8335C56.9871 49.0772 57.3469 49.2751 57.7285 49.4217C58.1058 49.5684 58.4648 49.7586 58.798 49.9885C58.9576 50.107 59.0885 50.2598 59.181 50.4357C59.2736 50.6115 59.3254 50.8059 59.3327 51.0045C59.3327 51.7799 58.8515 52.3842 58.9424 53.0098C58.9909 53.3018 59.1523 53.5629 59.3916 53.7371C59.6209 53.9064 59.8601 54.0618 60.1081 54.2023C60.5712 54.4333 60.9466 54.8087 61.1776 55.2718C61.3295 55.5905 61.4158 55.9365 61.4314 56.2893C61.447 56.642 61.3917 56.9943 61.2685 57.3252C61.177 57.5456 61.0425 57.7456 60.8728 57.9134Z" fill="#455A64"/>
<path d="M27.7237 44.8601C27.5366 44.596 27.4417 44.2776 27.4539 43.9542C27.4661 43.6307 27.5847 43.3204 27.7912 43.0712C27.9978 42.822 28.2807 42.6479 28.5963 42.5759C28.9118 42.5039 29.2423 42.538 29.5365 42.673C29.907 42.868 30.2175 43.16 30.4349 43.5179C30.5719 43.6862 30.6734 43.8805 30.7331 44.0892C30.7929 44.2978 30.8097 44.5164 30.7825 44.7317C30.7284 44.8984 30.6406 45.0523 30.5247 45.1838C30.4089 45.3153 30.2673 45.4217 30.1087 45.4964C29.8719 45.6257 29.6108 45.7043 29.342 45.7273C29.0732 45.7504 28.8026 45.7172 28.5473 45.6301C28.2909 45.5413 28.0597 45.3918 27.8735 45.1944C27.6873 44.997 27.5516 44.7576 27.4778 44.4964" fill="#FFA084"/>
<path d="M30.3701 42.4473C30.461 42.474 30.4984 42.7467 30.3701 43.1585C30.1832 43.6997 29.834 44.1703 29.3701 44.506C28.9054 44.8494 28.3437 45.0366 27.7659 45.0408C27.3274 45.0408 27.0814 44.9285 27.0868 44.8376C27.0868 44.6344 28.0547 44.5595 28.9156 43.9071C29.7765 43.2547 30.1722 42.3991 30.3701 42.4473Z" fill="#263238"/>
</g>
<rect x="1" y="1" width="62" height="62" rx="31" stroke="#576CBE" stroke-width="2"/>
<defs>
<clipPath id="clip0_5282_69310">
<rect width="64" height="64" rx="32" fill="white"/>
</clipPath>
</defs>
</svg>
