<svg width="64" height="64" viewBox="0 0 64 64" fill="none" xmlns="http://www.w3.org/2000/svg">
<g clip-path="url(#clip0_5282_69316)">
<rect width="64" height="64" rx="32" fill="#E8EBF6"/>
<path d="M23.5062 18.2242C23.1612 17.6389 22.6582 17.1628 22.0549 16.8503C21.4516 16.5378 20.7725 16.4017 20.0954 16.4575C19.4182 16.5134 18.7706 16.7589 18.2266 17.1659C17.6826 17.573 17.2644 18.1251 17.0198 18.7589C16.8847 19.3195 16.6743 19.8591 16.3942 20.3632C15.4691 21.6198 13.1857 21.2562 12.4317 22.6251C11.6403 24.0796 13.4638 25.8336 13.0199 27.4378C12.667 28.7158 11.0254 29.2934 10.6564 30.5607C10.1591 32.2451 12.1857 33.9135 11.7259 35.598C11.3088 37.0525 9.26069 37.5872 8.93985 39.0631C8.58157 40.6673 10.5869 42.0202 10.5441 43.6886C10.5013 45.8276 7.25007 46.9933 7.54418 49.1056C7.70995 50.2767 8.9559 51.0574 9.1484 52.2178C9.53877 54.3995 6.15918 55.9182 6.56024 58.1C6.75274 59.1267 7.72065 59.7844 8.5602 60.4047C9.39975 61.025 10.2607 61.918 10.0949 62.9447C9.92914 63.9714 8.73131 64.5917 8.08427 65.4687C7.08965 66.8216 8.67249 70.3295 10.2232 71.0033L16.6402 66.2334C16.6402 66.2334 14.806 64.704 16.2444 63.303C17.6829 61.902 16.7471 61.2763 16.6936 60.2122C16.6936 60.2122 18.1214 61.41 17.5973 62.6666C17.3954 63.1505 17.32 63.6777 17.378 64.1988C17.436 64.7198 17.6255 65.2176 17.9289 65.6452L27.6291 61.2977L28.6986 52.052L23.5062 18.2242Z" fill="#263238"/>
<path d="M9.2982 61.2556C9.09202 61.2776 8.88406 61.2776 8.67788 61.2556C8.07967 61.2185 7.49794 61.0447 6.9774 60.7476C6.14125 60.2804 5.50994 59.5174 5.20741 58.6086C5.01683 58.043 4.95649 57.4416 5.03093 56.8493C5.13355 56.1912 5.3546 55.5571 5.68334 54.9777C6.00418 54.3628 6.39987 53.7532 6.69933 53.074C7.03803 52.3867 7.16638 51.6148 7.0683 50.8549C6.93462 50.0741 6.3357 49.4485 5.86513 48.7159C5.59289 48.3414 5.44683 47.8901 5.44805 47.4272C5.46637 47.1863 5.54069 46.9531 5.66509 46.7461C5.7895 46.539 5.96053 46.3639 6.16458 46.2347C6.55501 45.9792 6.96441 45.754 7.38917 45.5609C7.80225 45.3752 8.1531 45.0745 8.3998 44.6946C8.50441 44.4934 8.56691 44.273 8.58346 44.0468C8.60001 43.8206 8.57029 43.5935 8.49609 43.3792C8.35706 42.9205 8.14195 42.4885 7.85974 42.1011C7.58168 41.7054 7.25548 41.3151 6.98276 40.8819C6.68032 40.4483 6.48262 39.9504 6.40523 39.4274C6.36271 38.8763 6.53519 38.3301 6.88651 37.9034C7.24215 37.4989 7.64624 37.1397 8.08968 36.8339C8.51831 36.5494 8.91933 36.2254 9.2875 35.866C9.63507 35.5194 9.84258 35.0567 9.87035 34.5666C9.84491 34.0754 9.70385 33.5972 9.45862 33.1709C9.23403 32.7324 8.9613 32.3046 8.7474 31.8501C8.49611 31.3988 8.38096 30.8843 8.41586 30.3689C8.44145 30.1122 8.51778 29.8632 8.64045 29.6363C8.7676 29.4209 8.92023 29.2216 9.095 29.0427C9.76877 28.3475 10.6404 27.8823 11.004 27.0749C11.1726 26.6788 11.2263 26.2434 11.1591 25.8182C11.0926 25.3918 10.9851 24.9727 10.8382 24.5669C10.4886 23.7864 10.3274 22.9346 10.3677 22.0804C10.4113 21.6572 10.6003 21.2622 10.9024 20.9627C11.19 20.6923 11.5414 20.4992 11.9238 20.4013C12.6671 20.182 13.3943 20.1499 14.0627 19.9895C14.3813 19.9437 14.6874 19.8344 14.9629 19.6681C15.2385 19.5019 15.4779 19.282 15.667 19.0216C16.0092 18.519 16.2017 17.9521 16.5279 17.4923C16.8055 17.1135 17.1563 16.7943 17.5596 16.5537C17.9628 16.313 18.4103 16.1558 18.8754 16.0912C19.47 16.0031 20.0773 16.0751 20.6347 16.2998C20.7779 16.3569 20.9157 16.4267 21.0465 16.5083C21.0935 16.5348 21.1382 16.5653 21.1802 16.5992C21.1802 16.5992 20.9984 16.4816 20.6187 16.3426C20.0633 16.1465 19.4675 16.0931 18.8861 16.1875C18.4288 16.2497 17.9889 16.4046 17.5935 16.6427C17.1981 16.8809 16.8555 17.1973 16.5867 17.5725C16.2766 18.0056 16.1001 18.5778 15.7472 19.1072C15.5532 19.3865 15.3059 19.6248 15.0196 19.8083C14.7333 19.9918 14.4136 20.117 14.0788 20.1767C13.3997 20.3478 12.6671 20.3852 11.9666 20.5991C11.6122 20.6937 11.2881 20.8779 11.0254 21.1339C10.7589 21.4052 10.5945 21.7604 10.5602 22.1392C10.5316 22.9632 10.6926 23.7828 11.0308 24.5348C11.1849 24.9524 11.2978 25.384 11.3677 25.8236C11.443 26.2916 11.3856 26.7715 11.2019 27.2085C10.7848 28.1016 9.89176 28.5721 9.25541 29.2406C9.09471 29.4008 8.95459 29.5804 8.8383 29.7753C8.73256 29.9768 8.66545 30.1962 8.64045 30.4223C8.61507 30.8935 8.72255 31.3622 8.95061 31.7752C9.1645 32.2137 9.43189 32.6362 9.66718 33.0907C9.92854 33.5502 10.077 34.0652 10.1003 34.5933C10.0767 35.1431 9.84773 35.6641 9.45862 36.0532C9.07938 36.4264 8.66579 36.763 8.22336 37.0585C7.79717 37.3411 7.40897 37.6771 7.0683 38.0585C6.75468 38.4364 6.60117 38.9219 6.64051 39.4114C6.71212 39.8959 6.89517 40.3572 7.17526 40.7589C7.44263 41.1814 7.75813 41.561 8.04689 41.9728C8.34529 42.3823 8.57137 42.8399 8.71532 43.3257C8.79586 43.5688 8.82694 43.8256 8.80674 44.0809C8.78653 44.3362 8.71547 44.5849 8.59769 44.8123C8.32747 45.229 7.94327 45.5594 7.49077 45.7641C7.07563 45.9545 6.67367 46.1725 6.2876 46.4165C6.11011 46.5284 5.96083 46.6797 5.85139 46.8587C5.74195 47.0377 5.67529 47.2396 5.6566 47.4486C5.65811 47.8665 5.79298 48.273 6.0416 48.6089C6.48544 49.3202 7.1111 49.9672 7.26083 50.8228C7.36098 51.6225 7.2214 52.434 6.85978 53.1543C6.54963 53.8548 6.14854 54.459 5.82769 55.0633C5.50449 55.6241 5.28361 56.2379 5.17532 56.8761C5.10018 57.4474 5.15314 58.0283 5.33039 58.5765C5.61388 59.4649 6.21571 60.2172 7.02019 60.6888C7.52776 60.9844 8.09323 61.1668 8.67788 61.2235C9.08429 61.293 9.2982 61.2396 9.2982 61.2556Z" fill="#263238"/>
<path d="M9.59498 68.2471C9.54456 68.2264 9.49902 68.1955 9.46129 68.1562C9.33472 68.0419 9.25793 67.8825 9.24738 67.7123C9.21949 67.4507 9.27971 67.1872 9.4185 66.9637C9.61104 66.6616 9.90794 66.4408 10.2527 66.3434C10.6699 66.2239 11.0929 66.1257 11.52 66.0493C12.014 65.9579 12.4521 65.6754 12.7393 65.2632C12.8018 65.1447 12.838 65.014 12.8454 64.8802C12.8528 64.7464 12.8312 64.6125 12.782 64.4878C12.6619 64.2161 12.5073 63.9609 12.3222 63.7285C12.1093 63.4649 11.9708 63.1492 11.9211 62.8141C11.8963 62.4574 11.9842 62.102 12.1724 61.7981C12.3435 61.4826 12.5521 61.1938 12.7393 60.8837C12.9408 60.5881 13.054 60.2412 13.0655 59.8837C13.0346 59.5164 12.8689 59.1735 12.6002 58.9212C12.3436 58.6324 12.028 58.3864 11.75 58.0656C11.5865 57.9111 11.462 57.72 11.3867 57.5081C11.3115 57.2961 11.2875 57.0694 11.3168 56.8464C11.3536 56.6133 11.4664 56.399 11.6377 56.2367C11.7954 56.0807 11.9757 55.9491 12.1724 55.8464C12.5735 55.6485 12.9959 55.5042 13.4023 55.3116C13.8188 55.1638 14.1881 54.9071 14.4718 54.5684C14.5921 54.3859 14.6712 54.1795 14.7035 53.9634C14.7359 53.7473 14.7206 53.5267 14.659 53.3171C14.5353 52.8628 14.3706 52.4207 14.167 51.9962C13.9562 51.544 13.807 51.0657 13.7232 50.5738C13.6669 50.0582 13.752 49.5369 13.9692 49.0659C14.3702 48.1247 15.0386 47.3119 15.2632 46.3333C15.3573 45.8404 15.2898 45.3303 15.0707 44.8788C14.8362 44.4107 14.5736 43.9572 14.2846 43.5206C13.9868 43.0608 13.8034 42.5364 13.7499 41.9912C13.7502 41.4389 13.9388 40.9032 14.2846 40.4725C14.6055 40.0447 14.9745 39.6865 15.2953 39.2961C15.6263 38.9404 15.8473 38.4965 15.9317 38.0181C15.9619 37.5424 15.8422 37.0692 15.5894 36.6652C15.3595 36.2427 15.0547 35.847 14.8355 35.4139C14.571 34.9901 14.4285 34.5016 14.4237 34.0022C14.4657 33.5166 14.6334 33.0503 14.9103 32.6493C15.1563 32.2482 15.4451 31.8846 15.6108 31.4942C15.8134 31.122 15.8796 30.6908 15.798 30.275C15.6162 29.4515 14.9745 28.7991 14.8194 27.9382C14.7451 27.5124 14.8411 27.0745 15.0868 26.719C15.3213 26.3998 15.5883 26.1059 15.8835 25.842C16.1561 25.5998 16.3937 25.3208 16.5894 25.0131C16.7573 24.714 16.8474 24.3775 16.8514 24.0346C16.8514 23.3501 16.7284 22.6923 16.7659 22.0507C16.8001 21.4465 16.9838 20.8604 17.3006 20.3448C17.5501 19.9307 17.8811 19.5717 18.2736 19.2895C18.6662 19.0072 19.112 18.8078 19.584 18.7032C20.1763 18.5726 20.7918 18.591 21.3753 18.7566C21.5794 18.8109 21.7754 18.8918 21.9582 18.9973C21.9582 18.9973 21.755 18.9064 21.3646 18.8048C20.7865 18.665 20.1835 18.665 19.6053 18.8048C19.1515 18.9111 18.7239 19.1079 18.348 19.3836C17.9722 19.6593 17.656 20.0081 17.4183 20.409C17.1173 20.9061 16.9446 21.4702 16.9156 22.0507C16.8782 22.6656 17.0386 23.318 17.0172 24.0346C17.0146 24.4086 16.919 24.7761 16.7391 25.104C16.5437 25.4357 16.3025 25.7382 16.0226 26.0024C15.7374 26.257 15.481 26.5422 15.2579 26.8526C15.1509 27.0069 15.0755 27.1808 15.036 27.3644C14.9965 27.548 14.9938 27.7375 15.028 27.9221C15.1616 28.6975 15.8033 29.3445 16.0119 30.2429C16.1071 30.7043 16.039 31.1844 15.8194 31.6012C15.6162 32.0183 15.3435 32.3926 15.1082 32.7776C14.8523 33.1466 14.6974 33.5761 14.659 34.0235C14.6679 34.4825 14.803 34.9302 15.0493 35.3176C15.2793 35.7347 15.5841 36.1304 15.8033 36.5689C16.0788 37.0156 16.2078 37.5372 16.1723 38.0609C16.0843 38.5858 15.8466 39.0741 15.4878 39.4672C15.1616 39.8683 14.7873 40.2266 14.4879 40.633C14.1682 41.0156 13.9923 41.498 13.9905 41.9966C14.0494 42.5057 14.2331 42.9925 14.5253 43.4136C14.8149 43.8611 15.0808 44.3234 15.3221 44.7986C15.563 45.2968 15.6362 45.8596 15.5306 46.4028C15.2953 47.4723 14.6002 48.2798 14.2205 49.1835C14.0175 49.6171 13.9362 50.0976 13.9852 50.5738C14.0641 51.0442 14.2081 51.5014 14.413 51.9321C14.6198 52.3706 14.7863 52.827 14.9103 53.2957C14.9781 53.5349 14.9932 53.786 14.9544 54.0316C14.9156 54.2772 14.8239 54.5114 14.6857 54.7181C14.3841 55.0881 13.989 55.3706 13.5414 55.5362C13.1243 55.718 12.7018 55.8571 12.3222 56.0442C12.1353 56.1143 11.9679 56.228 11.834 56.3759C11.7 56.5238 11.6034 56.7016 11.5521 56.8945C11.5225 57.0902 11.5417 57.2902 11.6079 57.4768C11.6742 57.6634 11.7854 57.8307 11.9318 57.964C12.1885 58.2634 12.5093 58.4987 12.7767 58.8249C13.0683 59.1093 13.2485 59.4887 13.2847 59.8944C13.2663 60.2862 13.1405 60.6655 12.9211 60.9906C12.7286 61.3061 12.52 61.5949 12.3542 61.8943C12.1794 62.168 12.0952 62.4898 12.1136 62.8141C12.156 63.1228 12.2838 63.4136 12.4826 63.6536C12.6709 63.9012 12.8289 64.1705 12.9531 64.4557C13.0068 64.5996 13.0289 64.7534 13.0178 64.9066C13.0067 65.0598 12.9628 65.2087 12.889 65.3434C12.7368 65.5624 12.5426 65.7489 12.3177 65.8921C12.0928 66.0353 11.8416 66.1324 11.5789 66.1776C11.1534 66.2446 10.732 66.3356 10.3169 66.4503C9.98662 66.5324 9.69875 66.7344 9.5094 67.0172C9.37594 67.2274 9.31233 67.4745 9.32761 67.723C9.33255 67.8243 9.35893 67.9234 9.40502 68.0138C9.45112 68.1041 9.51586 68.1836 9.59498 68.2471Z" fill="#455A64"/>
<g opacity="0.3">
<path d="M56.769 60.6328C54.7183 59.4179 52.3031 58.9698 49.9531 59.3683C47.6031 59.7668 45.4707 60.9861 43.9352 62.8092L43.7213 61.2424C43.593 62.9375 42.2294 64.8572 42.4165 65.9642C42.4939 66.5217 42.7534 67.038 43.1548 67.4327C43.5562 67.8273 44.0769 68.0781 44.6357 68.1459C46.2399 68.2101 47.673 66.4347 49.1489 67.0283C49.6355 67.2262 49.9992 67.6593 50.4751 67.8785C51.5446 68.3758 52.7745 67.6807 53.737 66.9962C54.8422 66.2119 55.9295 65.3991 56.9989 64.5578C57.5925 64.0872 58.2289 63.5257 58.293 62.7717C58.3786 61.8466 57.5658 61.1033 56.769 60.6328Z" fill="black"/>
</g>
<path d="M42.8378 25.3432C42.801 24.6249 42.497 23.9463 41.9855 23.4407C41.474 22.9351 40.7919 22.639 40.0732 22.6106L24.5657 19.8086C19.6568 19.6268 16.8279 25.8512 16.8547 30.7655C16.8868 36.2252 17.1381 42.8881 18.0579 46.8986C19.9455 54.9626 26.2555 55.5722 26.2555 55.5722C26.2555 55.5722 26.3143 58.0962 26.4854 61.6522C26.5405 62.8033 26.8264 63.9315 27.3259 64.97C27.8254 66.0085 28.5284 66.936 29.3933 67.6976C30.2581 68.4592 31.2671 69.0393 32.3604 69.4035C33.4537 69.7677 34.6091 69.9086 35.7579 69.8177C37.9495 69.6447 39.9916 68.6388 41.4645 67.0067C42.9375 65.3747 43.7293 63.2404 43.6774 61.0426L42.8378 25.3432Z" fill="#AE7461"/>
<path d="M19.6194 36.5785C19.641 36.8471 19.7631 37.0976 19.9614 37.28C20.1597 37.4625 20.4195 37.5633 20.6889 37.5625C20.8225 37.5639 20.955 37.5386 21.0786 37.488C21.2022 37.4373 21.3145 37.3625 21.4087 37.2678C21.5029 37.1731 21.5772 37.0604 21.6271 36.9365C21.6771 36.8126 21.7017 36.68 21.6996 36.5464C21.678 36.2779 21.5559 36.0273 21.3576 35.8449C21.1593 35.6625 20.8995 35.5617 20.6301 35.5625C20.4967 35.5618 20.3646 35.5876 20.2413 35.6385C20.118 35.6894 20.006 35.7643 19.9119 35.8588C19.8179 35.9534 19.7436 36.0657 19.6934 36.1893C19.6431 36.3128 19.618 36.4452 19.6194 36.5785Z" fill="#263238"/>
<path d="M18.6807 33.6034C18.8198 33.7264 19.5684 33.0686 20.6967 33.0152C21.825 32.9617 22.686 33.443 22.7983 33.2986C22.9106 33.1542 22.702 32.9991 22.3277 32.7638C21.8171 32.4601 21.2249 32.3218 20.6325 32.3681C20.0436 32.4036 19.4815 32.6266 19.0283 33.0045C18.7128 33.2879 18.6112 33.5446 18.6807 33.6034Z" fill="#263238"/>
<path d="M30.1521 36.2504C30.1724 36.5199 30.2939 36.7718 30.4923 36.9553C30.6907 37.1388 30.9513 37.2404 31.2216 37.2397C31.3557 37.2404 31.4885 37.2144 31.6125 37.1633C31.7364 37.1121 31.849 37.0369 31.9435 36.9418C32.0381 36.8467 32.1128 36.7338 32.1632 36.6096C32.2137 36.4854 32.239 36.3524 32.2376 36.2183C32.216 35.9498 32.0939 35.6992 31.8956 35.5168C31.6974 35.3344 31.4375 35.2335 31.1681 35.2344C31.0345 35.2337 30.9021 35.2595 30.7785 35.3103C30.6549 35.3611 30.5426 35.4359 30.4481 35.5304C30.3536 35.6249 30.2788 35.7372 30.228 35.8608C30.1772 35.9843 30.1514 36.1168 30.1521 36.2504Z" fill="#263238"/>
<path d="M29.7957 33.579C29.9348 33.7074 30.6888 33.0443 31.8117 32.9908C32.9347 32.9374 33.801 33.424 33.9133 33.2742C33.9667 33.2101 33.8224 32.9748 33.4427 32.7395C32.931 32.4383 32.3397 32.3003 31.7476 32.3438C31.1592 32.3818 30.5978 32.6045 30.1433 32.9801C29.8278 33.2636 29.7262 33.5202 29.7957 33.579Z" fill="#263238"/>
<path d="M26.2792 42.205C25.6736 42.059 25.0519 41.9907 24.429 42.0018C24.1402 42.0018 23.8622 41.9483 23.8033 41.7558C23.7589 41.4619 23.8055 41.1615 23.937 40.8949C24.1563 40.1783 24.3916 39.4297 24.6376 38.649C25.6001 35.4405 26.2792 32.831 26.1509 32.7668C26.0225 32.7026 25.1349 35.2854 24.167 38.4832C23.937 39.2746 23.7124 40.0233 23.5039 40.7398C23.348 41.0996 23.3234 41.5027 23.4344 41.8788C23.4828 41.978 23.5532 42.0647 23.6404 42.1324C23.7275 42.2 23.829 42.2468 23.937 42.2692C24.0991 42.2998 24.2643 42.3106 24.429 42.3013C25.0473 42.3477 25.669 42.3153 26.2792 42.205Z" fill="#263238"/>
<path d="M26.2371 55.5692C30.0722 55.3611 33.7745 54.0931 36.9319 51.9063C36.9319 51.9063 34.563 57.7029 26.3493 57.4997L26.2371 55.5692Z" fill="#8E6664"/>
<path d="M29.0352 30.68C29.1689 30.9795 30.2812 30.7602 31.6127 30.8298C32.9442 30.8993 34.0351 31.1827 34.1955 30.8939C34.265 30.7602 34.0564 30.4822 33.6072 30.2202C33.0094 29.8915 32.3426 29.7083 31.6608 29.6854C30.9791 29.6501 30.2989 29.7785 29.6769 30.0597C29.2277 30.279 28.9978 30.541 29.0352 30.68Z" fill="#263238"/>
<path d="M18.9052 30.8392C19.1191 31.0798 19.8785 30.7643 20.8089 30.6841C21.7394 30.6039 22.5415 30.7376 22.7073 30.4595C22.7768 30.3259 22.6377 30.0745 22.2741 29.8606C21.7911 29.6005 21.2414 29.4905 20.6955 29.5448C20.1496 29.5991 19.6323 29.8152 19.2101 30.1654C18.8999 30.4488 18.809 30.7216 18.9052 30.8392Z" fill="#263238"/>
<path d="M22.6167 19.6641C22.1355 20.6748 24.114 22.541 25.1781 22.8726C26.2423 23.2041 27.6112 23.0437 28.1888 24.0062C28.8411 25.1025 27.5043 26.8671 29.7235 28.0542C30.4186 28.4286 31.4453 27.6425 32.0282 28.1772C32.7501 28.8403 31.809 29.99 31.8411 30.9686C31.8999 32.8723 35.3704 33.022 35.5843 34.9096C35.7286 36.0968 34.4025 37.2304 34.8677 38.332C35.3329 39.4336 37.2366 39.364 37.7072 40.471C38.3114 41.9255 35.857 43.1768 36.1618 44.7168C36.4666 46.2569 39.0173 46.2462 39.5307 47.7114C39.9691 48.968 38.5574 50.337 39.0387 51.5776C39.5734 52.9893 41.9798 52.7861 42.6215 54.1604C43.3915 55.8181 40.7659 57.7378 41.6589 59.3367C41.9584 59.8714 42.6375 60.0586 43.0439 60.5185C44.338 62.0157 44.2257 65.2723 42.8835 66.5771H43.8407C45.2825 66.5529 46.6959 66.172 47.9547 65.4685C49.2134 64.7649 50.2783 63.7606 51.0544 62.5451L51.8511 64.4007C54.4072 63.5879 56.4018 61.9141 58.4499 60.1923C58.9603 59.762 59.5682 59.463 60.2206 59.3214C60.873 59.1797 61.5501 59.1996 62.1931 59.3795L62.7278 59.5345C64.439 59.6575 66.6849 58.8126 68.1127 57.8554C66.225 57.4758 65.2144 55.4224 64.7438 53.5775C64.2732 51.7326 63.9844 49.6311 62.5727 48.321C61.0487 46.9039 58.4017 46.5831 57.6958 44.6206C57.1611 43.0805 58.1664 41.3212 57.6958 39.7651C57.2253 38.209 55.343 37.4176 54.6264 35.9256C53.6532 33.8936 55.0596 31.2092 53.819 29.3323C52.4768 27.2896 48.8726 27.589 47.8566 25.3645C47.3219 24.1346 47.7497 22.4662 46.7871 21.525C46.0117 20.7764 44.6856 20.8994 43.8674 20.1882C42.6696 19.1508 43.2578 17.0171 42.2151 15.8193C40.8034 14.2151 37.9371 15.6268 36.1083 14.4825C34.9693 13.7552 34.5896 12.1991 33.4613 11.4558C31.9373 10.4398 29.9374 11.3542 28.2048 11.9585C26.868 12.4237 25.4616 12.6911 24.1622 13.2633C22.8627 13.8354 21.6382 14.7766 21.1783 16.1188C20.7184 17.461 21.2959 19.1989 22.6328 19.6534" fill="#263238"/>
<path d="M65.5949 51.3741L65.7286 51.4917C65.8142 51.5719 65.9425 51.6896 66.1029 51.8607C66.3001 52.0657 66.4791 52.2876 66.6377 52.5238C66.8645 52.8422 67.0162 53.2078 67.0815 53.5933C67.1102 53.8428 67.087 54.0956 67.0134 54.3358C66.9397 54.576 66.8173 54.7983 66.6537 54.989C66.4629 55.2132 66.1966 55.3597 65.9051 55.4007C65.7471 55.419 65.587 55.4052 65.4345 55.3602C65.282 55.3152 65.1401 55.2398 65.0174 55.1387C64.5419 54.6393 64.2661 53.9829 64.242 53.2938C64.1995 52.5458 64.1995 51.7959 64.242 51.0479C64.2795 50.2618 64.349 49.4437 64.4613 48.5934C64.5147 48.1656 64.5842 47.7325 64.6591 47.2994C64.7445 46.8628 64.7715 46.4168 64.7393 45.9732C64.7313 45.753 64.6726 45.5376 64.5678 45.3438C64.463 45.1499 64.3149 44.9829 64.1351 44.8556C63.7269 44.6337 63.2587 44.5475 62.7982 44.6096C62.2993 44.6649 61.7975 44.6899 61.2956 44.6845C61.024 44.6822 60.7563 44.6202 60.5114 44.5028C60.2665 44.3854 60.0504 44.2156 59.8785 44.0053C59.5606 43.5565 59.3888 43.0206 59.3866 42.4706C59.3751 41.9332 59.4163 41.3958 59.5095 40.8664C59.6003 40.3365 59.6165 39.7965 59.5577 39.2622C59.5284 38.9996 59.4454 38.7459 59.3138 38.5169C59.1823 38.2878 59.005 38.0883 58.793 37.9307C58.3161 37.6356 57.8131 37.385 57.2904 37.182C56.7333 36.9401 56.2685 36.5259 55.9642 36.0002C55.3706 34.9308 55.376 33.6688 55.3974 32.487C55.4202 31.9009 55.3916 31.314 55.3118 30.733C55.2399 30.1655 55.0306 29.624 54.7022 29.1555C54.007 28.2572 52.8841 27.8508 51.8681 27.3909C51.3574 27.1737 50.873 26.8993 50.4243 26.5727C49.9573 26.2366 49.606 25.7639 49.4189 25.2198C49.2906 24.6936 49.2118 24.1565 49.1837 23.6156C49.1646 23.103 48.9503 22.6171 48.5847 22.2574C48.1852 21.9586 47.7121 21.7738 47.2158 21.7226C46.7157 21.6482 46.2235 21.5283 45.7453 21.3643C45.2719 21.1695 44.8898 20.8027 44.6758 20.3376C44.4965 19.8914 44.3969 19.4172 44.3817 18.9366C44.3175 18.0222 44.3442 17.1024 43.9165 16.3805C43.4916 15.6949 42.8411 15.1788 42.0769 14.9207C41.391 14.6677 40.6687 14.5268 39.938 14.5036C39.2375 14.4662 38.5744 14.4768 37.9487 14.4501C37.3662 14.4353 36.7863 14.3673 36.2161 14.2469C35.7388 14.1388 35.2808 13.9584 34.8579 13.7122C34.2536 13.3858 33.77 12.8741 33.4783 12.2523C33.3811 12.0345 33.3249 11.8007 33.3125 11.5625C33.3708 11.7888 33.4458 12.0104 33.5371 12.2256C33.8425 12.823 34.3241 13.3121 34.9167 13.6266C35.3349 13.871 35.7873 14.0513 36.2589 14.1613C36.8221 14.2775 37.3952 14.3384 37.9701 14.3432C38.5904 14.3432 39.2535 14.3432 39.9647 14.3752C40.7201 14.3913 41.4679 14.5303 42.1785 14.787C42.9821 15.056 43.6666 15.5969 44.1143 16.3164C44.5742 17.0971 44.5475 18.0489 44.617 18.9473C44.6353 19.404 44.7311 19.8542 44.9004 20.2788C45.0895 20.6906 45.4277 21.0155 45.8469 21.1879C46.312 21.3494 46.7921 21.464 47.28 21.5301C47.8095 21.5929 48.3122 21.7981 48.7345 22.1237C49.1279 22.5169 49.3589 23.0438 49.3815 23.5996C49.4126 24.1278 49.4913 24.6522 49.6168 25.1664C49.7889 25.6659 50.1122 26.0995 50.5419 26.407C50.9928 26.7212 51.477 26.9848 51.9857 27.193C52.5204 27.423 53.0552 27.6369 53.5365 27.9149C54.0719 28.1831 54.5426 28.5645 54.9161 29.0325C55.2662 29.5297 55.4918 30.1038 55.5738 30.7063C55.6575 31.3013 55.688 31.9026 55.6647 32.503C55.6647 33.6848 55.6647 34.8987 56.1995 35.8933C56.4811 36.371 56.9084 36.7458 57.4187 36.9628C57.9645 37.1777 58.4876 37.4464 58.9801 37.7649C59.2176 37.9402 59.4162 38.1628 59.5635 38.4187C59.7107 38.6745 59.8034 38.9581 59.8357 39.2515C59.8977 39.8071 59.8815 40.3687 59.7876 40.9199C59.6909 41.4489 59.6479 41.9864 59.6593 42.5241C59.6595 43.0298 59.8124 43.5237 60.0978 43.9412C60.2516 44.1271 60.4443 44.2771 60.6623 44.3805C60.8804 44.484 61.1184 44.5385 61.3598 44.5401C61.8526 44.5433 62.3453 44.5201 62.8357 44.4706C63.3401 44.4051 63.8522 44.5045 64.2955 44.754C64.5015 44.8967 64.6711 45.0856 64.7909 45.3057C64.9107 45.5258 64.9773 45.7709 64.9853 46.0213C65.0176 46.4814 64.987 46.9438 64.8944 47.3956C64.8195 47.8341 64.75 48.2619 64.6965 48.6897C64.5789 49.5292 64.504 50.3474 64.4559 51.1281C64.4057 51.8667 64.395 52.6075 64.4238 53.3473C64.4378 54.001 64.6908 54.6268 65.135 55.1066C65.2437 55.1966 65.3691 55.2642 65.504 55.3055C65.6389 55.3468 65.7807 55.361 65.9211 55.3472C66.1846 55.3103 66.4258 55.1792 66.6002 54.9783C66.7561 54.8014 66.8737 54.5941 66.9455 54.3696C67.0173 54.145 67.0418 53.908 67.0173 53.6735C66.9665 53.2903 66.8273 52.9242 66.6109 52.604C66.4505 52.3675 66.2717 52.144 66.0762 51.9356L65.7179 51.5506C65.6708 51.4962 65.6296 51.4371 65.5949 51.3741Z" fill="#263238"/>
<path d="M47.7496 63.1784L47.9688 63.0821C48.1186 63.0233 48.3378 62.9324 48.6105 62.7934C48.9515 62.6282 49.2511 62.3888 49.4875 62.0929C49.6392 61.8929 49.7342 61.6557 49.7624 61.4064C49.7906 61.157 49.7511 60.9046 49.6479 60.6758C49.5714 60.55 49.4704 60.4407 49.351 60.3544C49.2317 60.2681 49.0963 60.2064 48.9528 60.1731C48.648 60.0769 48.3111 60.0341 47.9635 59.9165C47.7794 59.8603 47.6122 59.7592 47.4769 59.6223C47.3404 59.4758 47.2575 59.2873 47.2416 59.0876C47.2744 58.6763 47.4166 58.2812 47.6534 57.9433C47.8778 57.594 48.0153 57.1961 48.0544 56.7829C48.0919 56.3463 48.0086 55.9079 47.8138 55.5155C47.5951 55.0963 47.2552 54.7527 46.8384 54.5295C46.4215 54.3063 45.9471 54.2138 45.477 54.2642H45.3754V54.1626C45.3644 53.4288 45.5977 52.7121 46.0384 52.1253C46.4875 51.5342 46.883 50.9043 47.2202 50.243C47.3708 49.9055 47.4561 49.5426 47.4715 49.1735C47.4908 48.7987 47.3687 48.4304 47.1293 48.1414C46.632 47.5479 45.7711 47.4142 44.9904 47.0719C44.56 46.9003 44.2091 46.5742 44.0064 46.1575C43.8356 45.7283 43.8356 45.2499 44.0064 44.8207C44.2791 43.9811 44.8299 43.2164 44.7978 42.3715C44.7656 41.946 44.5925 41.5434 44.3059 41.2272C44.0136 40.8955 43.6707 40.6122 43.2899 40.3877C42.452 39.9838 41.6458 39.5173 40.8782 38.992C40.3938 38.6277 40.0591 38.0991 39.937 37.5054C39.8571 36.9264 39.9139 36.3367 40.1028 35.7835C40.2525 35.2488 40.4504 34.714 40.552 34.1793C40.6078 33.9212 40.6294 33.6569 40.6161 33.3932C40.5896 33.1405 40.5054 32.8972 40.3702 32.682C40.0657 32.2654 39.628 31.9654 39.1296 31.8318C38.6183 31.6781 38.121 31.4813 37.643 31.2436C37.4033 31.1096 37.1958 30.9248 37.0351 30.7022C36.8743 30.4796 36.7642 30.2245 36.7125 29.9548C36.6399 29.4388 36.6709 28.9134 36.8035 28.4094C36.9051 27.9228 37.028 27.4469 37.0868 26.971C37.1672 26.5157 37.1266 26.0474 36.9692 25.6127C36.7881 25.2051 36.4856 24.8633 36.1029 24.6341C35.7277 24.3955 35.3184 24.2152 34.8891 24.0994C34.0495 23.8748 33.1779 23.8053 32.3865 23.5165C31.9947 23.38 31.632 23.1714 31.317 22.9016C31.02 22.6367 30.7767 22.3172 30.6004 21.9604C30.2475 21.2813 30.0657 20.5861 29.7662 19.9765C29.5159 19.3985 29.1197 18.8955 28.6165 18.5167C28.2121 18.214 27.7473 18.0019 27.2537 17.8949C26.76 17.7878 26.2491 17.7884 25.7557 17.8964C25.1266 18.0378 24.5457 18.3421 24.0712 18.7787C23.9074 18.9325 23.7538 19.0968 23.6113 19.2707C23.7264 19.0721 23.8706 18.8918 24.0391 18.7359C24.5098 18.2774 25.0954 17.9541 25.7343 17.8001C26.2415 17.6796 26.7688 17.6713 27.2796 17.7757C27.7903 17.88 28.2721 18.0946 28.6914 18.4044C29.2205 18.7904 29.6391 19.3086 29.9053 19.907C30.2047 20.5273 30.4026 21.2225 30.7502 21.8802C30.917 22.222 31.1454 22.5302 31.4239 22.7893C31.7254 23.0425 32.0719 23.2366 32.4453 23.3614C33.2046 23.6395 34.0495 23.7037 34.9372 23.9283C35.3852 24.0435 35.814 24.2237 36.2099 24.463C36.629 24.7139 36.9612 25.0871 37.1617 25.5325C37.334 26.0026 37.38 26.5096 37.2954 27.003C37.2366 27.4897 37.1136 27.9709 37.012 28.4575C36.8885 28.9321 36.8594 29.4263 36.9264 29.912C36.9742 30.1498 37.0731 30.3743 37.2162 30.57C37.3593 30.7657 37.5433 30.9281 37.7553 31.0457C38.2206 31.2771 38.7056 31.4668 39.2044 31.6125C39.7509 31.763 40.2298 32.0949 40.5627 32.5537C40.7198 32.8005 40.8169 33.0807 40.8461 33.3718C40.8624 33.6586 40.8408 33.9463 40.7819 34.2274C40.6696 34.7622 40.4771 35.2969 40.3274 35.8316C40.1493 36.3465 40.0944 36.8959 40.167 37.4359C40.2782 37.9743 40.5849 38.4524 41.0279 38.7781C41.7866 39.2951 42.5819 39.7562 43.4075 40.1577C43.8087 40.3952 44.1697 40.6948 44.477 41.0454C44.7943 41.4031 44.9825 41.8568 45.0117 42.3341C45.0385 43.3074 44.477 44.072 44.2096 44.8634C44.0571 45.2389 44.0571 45.6591 44.2096 46.0345C44.3826 46.4084 44.6928 46.7013 45.0759 46.8527C45.4449 47.0292 45.8459 47.1468 46.2309 47.3019C46.6397 47.4409 47.0074 47.6799 47.3004 47.997C47.5698 48.3284 47.7087 48.7468 47.6908 49.1735C47.674 49.5763 47.5796 49.9721 47.4127 50.3392C47.0727 51.012 46.6698 51.6512 46.2096 52.2482C45.7907 52.7983 45.5651 53.4712 45.5679 54.1626L45.4609 54.0771C45.9684 54.025 46.4798 54.1273 46.9282 54.3706C47.3766 54.6139 47.7412 54.9868 47.9742 55.4407C48.1723 55.8495 48.2598 56.3031 48.2279 56.7563C48.196 57.2095 48.0458 57.6464 47.7924 58.0235C47.5677 58.3389 47.4294 58.7076 47.3914 59.0929C47.4061 59.2639 47.4745 59.4258 47.5869 59.5555C47.6993 59.6852 47.8499 59.776 48.017 59.8149C48.3378 59.9325 48.6801 59.9806 48.9956 60.0822C49.311 60.1661 49.5814 60.3694 49.7496 60.6491C49.8783 60.909 49.916 61.2047 49.8565 61.4886C49.8098 61.7349 49.7074 61.9672 49.5571 62.1677C49.313 62.4714 48.9993 62.7117 48.6426 62.8682C48.355 62.9985 48.0561 63.1023 47.7496 63.1784Z" fill="#455A64"/>
<path d="M60.8728 58.9134C61.0072 58.7146 61.1184 58.5011 61.2043 58.2771C61.3155 57.9516 61.3614 57.6075 61.3394 57.2643C61.3174 56.9211 61.2278 56.5857 61.076 56.2771C60.855 55.8325 60.497 55.4707 60.0547 55.2451C59.8006 55.108 59.5559 54.9544 59.3221 54.7852C59.052 54.592 58.8693 54.2998 58.814 53.9724C58.7178 53.2772 59.1991 52.6569 59.1884 51.9564C59.1808 51.7803 59.133 51.6082 59.0486 51.4535C58.9643 51.2987 58.8456 51.1652 58.7017 51.0634C58.3806 50.8441 58.034 50.6645 57.6697 50.5286C57.2752 50.378 56.9029 50.1747 56.5628 49.9244C56.2028 49.6378 55.9656 49.2247 55.8997 48.7693C55.7553 47.8549 56.0441 46.9405 56.0601 46.0101C56.0926 45.5458 55.9765 45.0832 55.7286 44.6893C55.4221 44.3151 55.0161 44.0352 54.5575 43.8818C54.0685 43.7081 53.59 43.5064 53.1244 43.2775C52.8721 43.1539 52.6522 42.9729 52.4823 42.7492C52.3124 42.5254 52.1972 42.265 52.1458 41.9888C52.0971 41.4387 52.1241 40.8845 52.226 40.3418C52.2808 40.0844 52.283 39.8187 52.2324 39.5604C52.1819 39.3022 52.0797 39.0569 51.9319 38.8392C51.5349 38.4632 51.0521 38.1897 50.5255 38.0424C49.9397 37.8836 49.4215 37.5382 49.0496 37.0585C48.7392 36.5202 48.6293 35.8893 48.7395 35.2778C48.8381 34.6817 48.9866 34.095 49.1833 33.5238C49.373 32.9652 49.4511 32.3747 49.4133 31.7859C49.3778 31.4978 49.28 31.2208 49.1267 30.9742C48.9734 30.7277 48.7683 30.5174 48.5256 30.3582C48.0035 30.0637 47.4331 29.8645 46.8412 29.7699C46.2476 29.6523 45.6433 29.556 45.0551 29.3849C44.4507 29.2377 43.8967 28.9312 43.4509 28.4972C43.0353 28.0551 42.7246 27.5251 42.5418 26.9465C42.2535 25.836 42.0215 24.7116 41.8467 23.5776C41.7375 23.0428 41.5577 22.5249 41.3119 22.0376C41.0587 21.5797 40.69 21.1963 40.2424 20.9253C39.3173 20.4333 38.2318 20.567 37.2318 20.6151C36.7253 20.6501 36.2165 20.6339 35.7132 20.567C35.2297 20.48 34.7736 20.2803 34.3817 19.9841C33.7021 19.3495 33.12 18.6179 32.6544 17.8131C32.4159 17.46 32.1378 17.1353 31.8256 16.8452C31.5189 16.5783 31.1792 16.3519 30.8149 16.1714C29.4907 15.5723 27.9915 15.4847 26.6065 15.9254C25.5658 16.2693 24.6028 16.8144 23.7723 17.5297C23.2425 17.9765 22.749 18.4646 22.2965 18.9895L21.9435 19.4013C21.9065 19.451 21.8654 19.4975 21.8206 19.5403C21.8508 19.4851 21.8867 19.4332 21.9275 19.3852C21.997 19.2836 22.1093 19.1446 22.259 18.9574C22.6913 18.4152 23.1689 17.9107 23.6868 17.4495C24.5187 16.7122 25.4896 16.1486 26.5423 15.7918C27.9603 15.3256 29.5011 15.4057 30.863 16.0164C31.2492 16.1967 31.609 16.4288 31.9325 16.7062C32.2516 17.0059 32.5351 17.3415 32.7774 17.7061C33.2375 18.4964 33.8083 19.2167 34.4726 19.8451C34.8504 20.1252 35.291 20.3088 35.7559 20.3799C36.2453 20.4435 36.7399 20.456 37.2318 20.4173C37.7345 20.3905 38.2532 20.3478 38.7826 20.3692C39.3288 20.3735 39.8667 20.5034 40.3547 20.7488C40.843 21.0355 41.2441 21.4496 41.5151 21.9467C41.7655 22.4546 41.9454 22.9943 42.0499 23.5509C42.2905 24.6524 42.3921 25.8021 42.745 26.893C42.918 27.4373 43.2103 27.936 43.6006 28.3529C44.0161 28.7577 44.5335 29.0423 45.0979 29.1764C45.6647 29.3421 46.2636 29.4384 46.8679 29.556C47.4904 29.6545 48.0901 29.8646 48.6379 30.1763C48.9092 30.3566 49.1385 30.5932 49.3101 30.87C49.4817 31.1469 49.5917 31.4574 49.6325 31.7806C49.6752 32.4036 49.5934 33.029 49.3919 33.6201C49.1989 34.1793 49.0523 34.7534 48.9534 35.3366C48.8543 35.8868 48.9508 36.4543 49.2261 36.9408C49.5744 37.3742 50.0492 37.6883 50.5844 37.8392C51.1528 37.9942 51.6721 38.2925 52.0923 38.7055C52.2798 38.9414 52.3983 39.2245 52.4346 39.5236C52.4694 39.806 52.4694 40.0915 52.4346 40.3739C52.3313 40.902 52.3025 41.442 52.349 41.9781C52.3954 42.2221 52.4978 42.4519 52.6481 42.6496C52.7984 42.8472 52.9926 43.0073 53.2153 43.1171C53.673 43.3442 54.1445 43.5424 54.627 43.7107C55.1202 43.8813 55.5543 44.1893 55.8783 44.5984C56.153 45.0274 56.2806 45.5342 56.2419 46.0422C56.2419 47.01 55.9318 47.9137 56.0655 48.764C56.1192 49.1833 56.3316 49.566 56.659 49.8335C56.9871 50.0772 57.3469 50.2751 57.7285 50.4217C58.1058 50.5684 58.4648 50.7586 58.798 50.9885C58.9576 51.107 59.0885 51.2598 59.181 51.4357C59.2736 51.6115 59.3254 51.8059 59.3327 52.0045C59.3327 52.7799 58.8515 53.3842 58.9424 54.0098C58.9909 54.3018 59.1523 54.5629 59.3916 54.7371C59.6209 54.9064 59.8601 55.0618 60.1081 55.2023C60.5712 55.4333 60.9466 55.8087 61.1776 56.2718C61.3295 56.5905 61.4158 56.9365 61.4314 57.2893C61.447 57.642 61.3917 57.9943 61.2685 58.3252C61.177 58.5456 61.0425 58.7456 60.8728 58.9134Z" fill="#455A64"/>
<path d="M27.7237 45.8601C27.5366 45.596 27.4417 45.2776 27.4539 44.9542C27.4661 44.6307 27.5847 44.3204 27.7912 44.0712C27.9978 43.822 28.2807 43.6479 28.5963 43.5759C28.9118 43.5039 29.2423 43.538 29.5365 43.673C29.907 43.868 30.2175 44.16 30.4349 44.5179C30.5719 44.6862 30.6734 44.8805 30.7331 45.0892C30.7929 45.2978 30.8097 45.5164 30.7825 45.7317C30.7284 45.8984 30.6406 46.0523 30.5247 46.1838C30.4089 46.3153 30.2673 46.4217 30.1087 46.4964C29.8719 46.6257 29.6108 46.7043 29.342 46.7273C29.0732 46.7504 28.8026 46.7172 28.5473 46.6301C28.2909 46.5413 28.0597 46.3918 27.8735 46.1944C27.6873 45.997 27.5516 45.7576 27.4778 45.4964" fill="#8E6664"/>
<path d="M30.3701 43.4473C30.461 43.474 30.4984 43.7467 30.3701 44.1585C30.1832 44.6997 29.834 45.1703 29.3701 45.506C28.9054 45.8494 28.3437 46.0366 27.7659 46.0408C27.3274 46.0408 27.0814 45.9285 27.0868 45.8376C27.0868 45.6344 28.0547 45.5595 28.9156 44.9071C29.7765 44.2547 30.1722 43.3991 30.3701 43.4473Z" fill="#263238"/>
</g>
<rect x="1" y="1" width="62" height="62" rx="31" stroke="#576CBE" stroke-width="2"/>
<defs>
<clipPath id="clip0_5282_69316">
<rect width="64" height="64" rx="32" fill="white"/>
</clipPath>
</defs>
</svg>
