<svg width="64" height="64" viewBox="0 0 64 64" fill="none" xmlns="http://www.w3.org/2000/svg">
<g clip-path="url(#clip0_5282_69311)">
<rect width="64" height="64" rx="32" fill="#E8EBF6"/>
<path d="M45.2629 7.5215C46.2389 8.06598 47.0272 8.89328 47.5239 9.89448C48.0207 10.8957 48.2026 12.0238 48.0457 13.1304C48.0457 13.1304 47.9482 12.7623 49.4858 12.9463C50.1501 12.9949 50.7972 13.1806 51.3861 13.4919C51.9751 13.8031 52.4931 14.2331 52.9074 14.7546C53.6221 15.8374 54.9539 18.8151 53.1998 20.8075C55.1813 22.6916 51.5648 29.3075 50.5253 30.8992C49.0202 33.184 48.5762 32.9349 45.9234 33.5521C41.5922 34.5591 41.2565 32.0362 37.4233 29.8706C30.331 25.875 22.4698 23.5037 14.6845 21.2081C13.6775 16.5737 17.2074 10.9865 21.7768 9.73042C26.3463 8.47437 30.0495 10.7049 35.7991 8.89666C35.7883 8.85335 41.6246 5.81067 45.2629 7.5215Z" fill="#263238"/>
<path d="M49.4707 26.2189C48.5612 20.1335 41.458 14.5896 35.3943 15.7482L18.7516 20.8049L18.4268 23.8367L22.7905 59.9054V65.4597C22.7905 65.4597 22.7961 68.1369 33.819 66.4368C43.7158 64.9101 41.9833 60.5586 41.9833 60.5586L40.9816 55.8444C43.7302 55.5853 46.2881 54.3264 48.1702 52.3066C50.0523 50.2868 51.1277 47.6465 51.1924 44.8864C51.5281 39.7106 50.4777 32.9756 49.4707 26.2189Z" fill="#AE7461"/>
<path d="M47.5567 35.3798C47.5875 35.7203 47.4851 36.0594 47.271 36.3259C47.057 36.5925 46.748 36.7657 46.4089 36.8091C46.2423 36.8351 46.0722 36.8276 45.9085 36.787C45.7449 36.7464 45.5909 36.6735 45.4558 36.5727C45.3207 36.4718 45.207 36.345 45.1215 36.1997C45.036 36.0544 44.9804 35.8934 44.9579 35.7263C44.9273 35.3871 45.03 35.0492 45.2443 34.7844C45.4586 34.5196 45.7675 34.3487 46.1057 34.3078C46.2719 34.2786 46.4422 34.2835 46.6065 34.3222C46.7707 34.3609 46.9253 34.4325 47.061 34.5328C47.1967 34.633 47.3106 34.7598 47.3958 34.9054C47.481 35.051 47.5357 35.2124 47.5567 35.3798Z" fill="#263238"/>
<path d="M48.1391 31.7988C47.9875 31.9829 46.9371 31.3332 45.5295 31.4524C44.1219 31.5715 43.1473 32.3727 42.9849 32.2103C42.8225 32.0479 42.9849 31.8205 43.4613 31.4524C44.0362 30.9791 44.7436 30.6954 45.4862 30.6402C46.2158 30.5711 46.9484 30.7381 47.576 31.1167C48.0308 31.4199 48.204 31.7122 48.1391 31.7988Z" fill="#263238"/>
<path d="M36.1325 36.4667C36.169 36.8083 36.0687 37.1504 35.8536 37.4182C35.6385 37.6861 35.3261 37.8579 34.9847 37.896C34.8185 37.9235 34.6485 37.917 34.4849 37.8769C34.3213 37.8369 34.1676 37.764 34.0329 37.6628C33.8983 37.5616 33.7856 37.4341 33.7017 37.288C33.6177 37.142 33.5643 36.9805 33.5446 36.8132C33.5266 36.6432 33.5423 36.4714 33.5908 36.3075C33.6393 36.1436 33.7197 35.9909 33.8273 35.8582C33.935 35.7254 34.0677 35.6151 34.218 35.5338C34.3683 35.4524 34.5332 35.4014 34.7032 35.3839C34.8687 35.3564 35.0382 35.3629 35.2011 35.4031C35.3641 35.4433 35.5171 35.5163 35.6509 35.6177C35.7847 35.719 35.8964 35.8466 35.9792 35.9925C36.062 36.1385 36.1142 36.2999 36.1325 36.4667Z" fill="#263238"/>
<path d="M35.212 33.1159C35.0604 33.3 34.0101 32.6503 32.6024 32.7802C31.1948 32.9102 30.2311 33.6898 30.0579 33.5273C29.8846 33.3649 30.0578 33.1375 30.5343 32.7694C31.113 32.3027 31.8183 32.0198 32.5591 31.9573C33.2896 31.8967 34.0206 32.0671 34.6489 32.4445C35.1145 32.7369 35.2878 33.0293 35.212 33.1159Z" fill="#263238"/>
<path d="M41.0074 42.1811C41.0074 42.1162 41.0832 42.0512 42.4909 41.7805C42.8482 41.7155 43.1839 41.6289 43.2272 41.434C43.2705 41.2391 43.1297 40.9359 42.9348 40.6219L41.7113 38.6295C41.0264 37.5112 40.436 36.3377 39.9463 35.1213C40.0979 35.0671 40.5852 35.5219 42.2743 38.3697C42.6858 39.0735 43.0756 39.7557 43.4438 40.4053C43.6062 40.7085 43.866 41.0442 43.7036 41.4881C43.653 41.6026 43.577 41.7041 43.4813 41.7848C43.3856 41.8655 43.2728 41.9233 43.1514 41.9538C42.9528 42.0123 42.7501 42.0557 42.545 42.0837C41.1266 42.2894 41.0074 42.1811 41.0074 42.1811Z" fill="#263238"/>
<path d="M40.9517 55.8517C40.9517 55.8517 35.5377 56.7505 28.3479 53.2422C28.3479 53.2422 31.2282 60.5944 41.3415 58.7645L40.9517 55.8517Z" fill="#6F4439"/>
<path d="M34.349 28.4687C34.2191 28.9235 32.9847 28.6961 31.5229 28.9235C30.0611 29.1509 28.8917 29.6706 28.6968 29.27C28.6102 29.0751 28.8159 28.6528 29.2924 28.1872C29.8865 27.6723 30.6153 27.338 31.393 27.2235C32.1344 27.1189 32.8901 27.2436 33.5586 27.5808C34.1325 27.9056 34.4032 28.263 34.349 28.4687Z" fill="#263238"/>
<path d="M47.7755 26.9555C47.5806 27.3669 46.5086 27.1395 45.285 27.3128C44.0615 27.486 43.1194 27.93 42.7946 27.5727C42.6538 27.3994 42.7946 26.9988 43.1519 26.5657C43.6733 26.052 44.3496 25.7247 45.0759 25.6346C45.8023 25.5446 46.5381 25.6968 47.1691 26.0676C47.6997 26.3924 47.8621 26.7172 47.7755 26.9555Z" fill="#263238"/>
<path d="M15.7105 17.1719C15.7105 17.1719 9.40856 17.6483 9.02958 25.0005C8.86631 28.0598 9.38046 31.1173 10.5353 33.9549C11.6902 36.7925 13.4573 39.3401 15.7105 41.4158C19.1213 44.2961 21.2869 44.5885 21.2869 44.5885L23.8748 31.9413L15.7105 17.1719Z" fill="#263238"/>
<path d="M48.0957 20.5189C46.9705 18.8819 45.5283 17.4874 43.8543 16.4179C42.1804 15.3484 40.3088 14.6258 38.3505 14.2928C34.4335 13.6425 30.4172 13.9509 26.6454 15.1915C22.8883 16.4312 19.2381 17.9738 15.7307 19.8043C14.8094 20.1173 14.0375 20.7619 13.5651 21.6125C13.3774 22.2383 13.3513 22.9014 13.4893 23.5399L15.6549 39.8469L17.3874 43.0954C19.1632 42.9654 20.56 41.5578 21.5995 40.1285C25.2881 35.0607 26.8855 28.7681 26.0607 22.5546C26.5698 23.2513 26.9611 24.0268 27.2193 24.8501C27.354 25.2599 27.5844 25.6318 27.8913 25.9349C28.1982 26.238 28.5728 26.4638 28.9843 26.5934C30.4027 26.8533 31.4422 25.1966 31.5397 23.7673C31.6371 22.338 31.2906 20.8004 31.8862 19.5011C33.4575 21.4253 35.4409 22.9721 37.69 24.0272C38.7728 24.5145 40.1263 24.8501 40.9384 24.0272C41.2178 23.721 41.4063 23.343 41.4828 22.9356C41.5593 22.5282 41.5208 22.1075 41.3715 21.7208C41.0867 20.9683 40.6603 20.2773 40.1155 19.6851C41.9581 21.382 44.2518 22.51 46.7206 22.9336C46.9826 23.0162 47.2604 23.0357 47.5314 22.9905C47.8023 22.9453 48.0588 22.8368 48.2798 22.6737C48.8645 22.1539 48.5289 21.1902 48.0957 20.5189Z" fill="#263238"/>
<path d="M20.2898 37.1947C20.1382 37.1947 13.8688 35.917 14.6484 42.1214C15.428 48.3259 21.4917 46.2686 21.4701 46.0845C21.4484 45.9004 20.2898 37.1947 20.2898 37.1947Z" fill="#AE7461"/>
<path d="M16.7474 42.3918C16.7474 42.2727 16.7474 42.1536 16.6716 42.0345C16.5908 41.506 16.6277 40.9662 16.7799 40.4536C16.8159 40.2526 16.8996 40.0631 17.0239 39.9011C17.1483 39.739 17.3097 39.6092 17.4945 39.5224C17.6138 39.4723 17.7472 39.4666 17.8703 39.5063C17.9935 39.5461 18.0983 39.6286 18.1659 39.739C18.2741 39.9014 18.2525 40.0313 18.285 40.0313C18.3175 40.0313 18.4041 39.9122 18.285 39.6632C18.232 39.5137 18.1287 39.3873 17.9926 39.3058C17.8055 39.1993 17.5847 39.1683 17.3754 39.2192C17.1301 39.3005 16.9092 39.4424 16.7332 39.6316C16.5572 39.8209 16.4317 40.0514 16.3684 40.302C16.1704 40.8719 16.1147 41.4815 16.206 42.0778C16.2438 42.6345 16.4461 43.1675 16.7873 43.609C17.1286 44.0505 17.5933 44.3806 18.1226 44.5574C18.294 44.5842 18.4693 44.5729 18.6358 44.5243C18.8024 44.4756 18.9562 44.3908 19.0863 44.2759C19.2595 44.0918 19.2812 43.9511 19.2487 43.9402C19.2162 43.9294 19.1512 44.0377 18.978 44.1351C18.7364 44.277 18.4491 44.3197 18.1767 44.2542C17.7966 44.0851 17.4642 43.8245 17.2092 43.4958C16.9541 43.1671 16.7843 42.7804 16.7149 42.3702" fill="#AE7461"/>
<path d="M40.9519 44.7749L36.6207 42.7825C36.5647 42.7478 36.5021 42.725 36.4369 42.7157C36.3717 42.7064 36.3052 42.7107 36.2417 42.7284C36.1645 42.7779 36.1041 42.8496 36.0685 42.9341C35.8358 43.4077 35.7352 43.9352 35.7771 44.4611C35.819 44.987 36.002 45.492 36.3067 45.9227C36.6038 46.3199 37.0085 46.6237 37.4728 46.7984C37.9372 46.973 38.4418 47.011 38.9271 46.908C39.4363 46.7718 39.898 46.4975 40.2611 46.1153C40.6242 45.7331 40.8745 45.258 40.9844 44.7424L40.9519 44.7749Z" fill="#AE7461"/>
<path d="M24.1995 18.2651C24.1995 18.2651 24.1995 18.2651 24.1995 18.3409L24.2645 18.5574C24.3295 18.7523 24.4053 19.0447 24.4919 19.4129C24.7429 20.4791 24.8916 21.5668 24.9358 22.6613C25.021 24.2813 24.7779 25.9018 24.2212 27.4256C23.9168 28.3472 23.3753 29.1724 22.6511 29.8186C22.2555 30.1508 21.7825 30.3779 21.276 30.4791C20.7469 30.5974 20.1933 30.5325 19.7059 30.295C19.1566 29.9995 18.6967 29.562 18.374 29.0281C18.0616 28.5347 17.7969 28.0126 17.5836 27.4689H17.7244C17.1288 28.0536 16.6415 28.725 16.1759 29.3205C15.7193 29.9205 15.1201 30.3969 14.4326 30.7065C14.1211 30.8459 13.7823 30.9135 13.4411 30.9041C13.1 30.8947 12.7653 30.8087 12.4619 30.6524C11.9402 30.3843 11.5187 29.9552 11.26 29.4288C11.0537 29.0031 10.9428 28.5375 10.9352 28.0645C10.9258 27.701 10.9585 27.3376 11.0326 26.9816C11.0795 26.7683 11.141 26.5585 11.2167 26.3536C11.2167 26.2129 11.3033 26.1479 11.3141 26.1479L11.2492 26.3644C11.1874 26.5709 11.1368 26.7806 11.0976 26.9925C11.0301 27.3309 11.0046 27.6764 11.0218 28.0211C11.0405 28.4766 11.1549 28.923 11.3575 29.3313C11.6146 29.8307 12.0191 30.2389 12.5161 30.5008C12.8055 30.6376 13.1217 30.7086 13.4419 30.7086C13.762 30.7086 14.0782 30.6376 14.3677 30.5008C15.031 30.1963 15.6106 29.7356 16.0568 29.1581C16.5549 28.5625 16.9989 27.8804 17.5944 27.2848C17.6123 27.2689 17.6354 27.26 17.6594 27.26C17.6833 27.26 17.7065 27.2689 17.7244 27.2848C17.9451 27.8128 18.2057 28.3232 18.504 28.8116C18.8136 29.3163 19.2505 29.7308 19.7709 30.0135C20.2218 30.2309 20.7323 30.2919 21.2218 30.1867C21.7024 30.0911 22.1522 29.8792 22.532 29.5695C23.2295 28.9394 23.7549 28.1419 24.0588 27.2523C24.6106 25.7495 24.8608 24.1526 24.7951 22.553C24.7625 21.4613 24.6357 20.3744 24.4161 19.3046C24.3295 18.9256 24.2753 18.6332 24.2212 18.4383L24.167 18.2109C24.1756 18.2302 24.1865 18.2484 24.1995 18.2651Z" fill="#455A64"/>
<path d="M40.8622 12.9453C40.8622 12.9453 40.8622 13.0319 40.8622 13.1944C40.8813 13.4289 40.972 13.6519 41.1221 13.8332C41.2954 14.0823 41.5769 14.3421 41.8476 14.6995C42.0004 14.8948 42.101 15.1258 42.1399 15.3708C42.1772 15.651 42.1033 15.9347 41.9342 16.1612C41.7493 16.405 41.4971 16.5894 41.2087 16.6918C40.8979 16.7957 40.5728 16.8505 40.245 16.8542C39.5428 16.8665 38.8407 16.8267 38.1444 16.7351C36.5471 16.5243 34.9978 16.0409 33.5641 15.3058C32.9604 14.9887 32.3813 14.6268 31.8317 14.223H31.9724C31.89 14.9294 31.7377 15.6258 31.5176 16.302C31.3165 16.9405 30.9416 17.5104 30.4348 17.9479C30.2088 18.1492 29.945 18.3037 29.6587 18.4022C29.3724 18.5007 29.0694 18.5413 28.7673 18.5218C28.2506 18.4728 27.7585 18.2775 27.3489 17.9587C27.0167 17.7034 26.7278 17.3963 26.4934 17.0491C26.3123 16.7939 26.1495 16.5261 26.0062 16.2479C25.8835 16.0169 25.7968 15.8436 25.7463 15.7281C25.7134 15.665 25.6844 15.5999 25.6597 15.5332C25.7017 15.587 25.738 15.6451 25.768 15.7065L26.0603 16.2154C26.3922 16.8521 26.8532 17.4127 27.4138 17.8612C27.8081 18.1657 28.2818 18.3499 28.7781 18.3918C29.3508 18.4103 29.9087 18.2088 30.3374 17.8288C30.8376 17.4121 31.2124 16.8648 31.4202 16.2479C31.6346 15.5781 31.7833 14.8891 31.8641 14.1905C31.8707 14.1695 31.8836 14.1509 31.901 14.1374C31.9184 14.1238 31.9396 14.1159 31.9616 14.1147C32.5018 14.5211 33.0739 14.8832 33.6724 15.1975C35.0847 15.9287 36.612 16.4122 38.1877 16.6268C38.8766 16.7214 39.5714 16.7649 40.2667 16.7568C40.5753 16.7566 40.882 16.7091 41.1762 16.616C41.4444 16.5314 41.6792 16.3648 41.8476 16.1396C41.9283 16.0426 41.9882 15.9301 42.0236 15.809C42.059 15.688 42.0691 15.5609 42.0533 15.4358C42.0164 15.2125 41.9274 15.001 41.7935 14.8186C41.5336 14.4612 41.2629 14.1905 41.0896 13.9307C40.9345 13.7373 40.8504 13.4965 40.8514 13.2485C40.8358 13.1881 40.8358 13.1248 40.8514 13.0644L40.8622 12.9453Z" fill="#455A64"/>
<path d="M39.7392 46.4601C39.7392 46.4601 39.2953 47.1747 38.0284 47.348C37.6542 47.3667 37.2803 47.3059 36.9313 47.1697C36.5823 47.0334 36.2661 46.8248 36.0036 46.5575C35.6747 46.2366 35.4252 45.8435 35.2748 45.4093C35.1245 44.9751 35.0774 44.5118 35.1373 44.0563C35.1648 43.8208 35.2156 43.5887 35.2889 43.3633C35.3164 43.2134 35.3829 43.0734 35.4818 42.9574C35.5806 42.8414 35.7083 42.7536 35.852 42.7027C35.9838 42.6688 36.1213 42.6628 36.2556 42.6851C36.3898 42.7075 36.5179 42.7578 36.6316 42.8327L37.1622 43.0817L39.0029 43.9913C39.5894 44.225 40.137 44.5463 40.6271 44.9442C40.0011 44.8384 39.395 44.6376 38.8297 44.3486L36.9564 43.5582C36.6208 43.4391 36.1443 43.1359 36.0252 43.2333C35.9061 43.3308 35.8736 43.3091 35.8195 43.5257C35.7622 43.7203 35.7223 43.9196 35.7004 44.1212C35.6552 44.4601 35.6799 44.8046 35.773 45.1335C35.8661 45.4624 36.0257 45.7687 36.2418 46.0335C36.458 46.2984 36.7261 46.5161 37.0296 46.6733C37.3332 46.8304 37.6657 46.9237 38.0068 46.9473C38.607 46.8806 39.1922 46.716 39.7392 46.4601Z" fill="#263238"/>
</g>
<rect x="1" y="1" width="62" height="62" rx="31" stroke="#576CBE" stroke-width="2"/>
<defs>
<clipPath id="clip0_5282_69311">
<rect width="64" height="64" rx="32" fill="white"/>
</clipPath>
</defs>
</svg>
