<svg width="64" height="64" viewBox="0 0 64 64" fill="none" xmlns="http://www.w3.org/2000/svg">
<g clip-path="url(#clip0_5282_69312)">
<rect width="64" height="64" rx="32" fill="#E8EBF6"/>
<path d="M46.1186 7.53384C47.1178 8.0912 47.9247 8.93807 48.4332 9.96296C48.9417 10.9878 49.1279 12.1427 48.9673 13.2755C48.9673 13.2755 48.8675 12.8986 50.4415 13.087C51.1215 13.1367 51.7839 13.3269 52.3868 13.6455C52.9896 13.9641 53.5199 14.4042 53.9441 14.9381C54.6756 16.0465 56.039 19.0947 54.2434 21.1342C56.2718 23.0629 52.5696 29.8353 51.5055 31.4647C49.9648 33.8035 49.5104 33.5485 46.7948 34.1803C42.3611 35.2112 42.0174 32.6285 38.0936 30.4117C30.8334 26.3216 22.7863 23.8942 14.8167 21.5443C13.7859 16.8003 17.3994 11.0808 22.0769 9.79502C26.7545 8.50925 30.5453 10.7926 36.431 8.94154C36.4199 8.8972 42.3943 5.78253 46.1186 7.53384Z" fill="#263238"/>
<path d="M50.4284 26.6734C49.4973 20.4441 42.2261 14.769 36.0189 15.955L18.9824 21.1313L18.6499 24.2349L23.1168 62.1599V64.8343C23.1168 64.8343 23.1226 68.246 34.4063 66.5057C44.5373 64.9429 42.4295 61.8256 42.4295 61.8256L41.7384 56.9999C44.552 56.7346 47.1704 55.446 49.0971 53.3784C51.0237 51.3107 52.1245 48.608 52.1908 45.7826C52.5344 40.4844 51.4592 33.59 50.4284 26.6734Z" fill="#FFBE9D"/>
<path d="M48.4708 36.054C48.5023 36.4026 48.3975 36.7497 48.1784 37.0226C47.9593 37.2954 47.643 37.4727 47.2959 37.5172C47.1253 37.5438 46.9512 37.5361 46.7837 37.4945C46.6161 37.453 46.4586 37.3784 46.3203 37.2752C46.1819 37.1719 46.0656 37.0421 45.9781 36.8933C45.8905 36.7446 45.8336 36.5798 45.8106 36.4088C45.7793 36.0615 45.8844 35.7156 46.1037 35.4446C46.3231 35.1735 46.6394 34.9985 46.9855 34.9567C47.1556 34.9268 47.33 34.9319 47.4981 34.9714C47.6662 35.011 47.8245 35.0843 47.9634 35.187C48.1023 35.2896 48.2189 35.4193 48.3061 35.5684C48.3934 35.7175 48.4494 35.8827 48.4708 36.054Z" fill="#263238"/>
<path d="M49.0674 32.3813C48.9122 32.5697 47.837 31.9047 46.3961 32.0266C44.9551 32.1485 43.9575 32.9688 43.7913 32.8025C43.625 32.6363 43.7913 32.4035 44.279 32.0266C44.8675 31.5421 45.5916 31.2517 46.3518 31.1953C47.0987 31.1246 47.8486 31.2955 48.491 31.683C48.9565 31.9934 49.1339 32.2926 49.0674 32.3813Z" fill="#263238"/>
<path d="M36.772 37.1568C36.8094 37.5064 36.7067 37.8566 36.4865 38.1308C36.2663 38.405 35.9465 38.5808 35.5971 38.6199C35.427 38.6481 35.2529 38.6414 35.0855 38.6004C34.918 38.5594 34.7606 38.4848 34.6228 38.3812C34.485 38.2775 34.3696 38.147 34.2837 37.9975C34.1978 37.8481 34.143 37.6827 34.1229 37.5115C34.1044 37.3375 34.1205 37.1616 34.1702 36.9938C34.2199 36.826 34.3022 36.6697 34.4123 36.5338C34.5225 36.3979 34.6584 36.2851 34.8122 36.2018C34.9661 36.1184 35.1349 36.0663 35.3089 36.0483C35.4784 36.0202 35.6518 36.0269 35.8186 36.068C35.9854 36.1092 36.1421 36.1839 36.279 36.2876C36.416 36.3914 36.5303 36.522 36.6151 36.6714C36.6998 36.8208 36.7532 36.986 36.772 37.1568Z" fill="#263238"/>
<path d="M35.8331 33.7373C35.6779 33.9258 34.6027 33.2607 33.1617 33.3937C31.7208 33.5267 30.7343 34.3248 30.557 34.1585C30.3796 33.9923 30.5569 33.7595 31.0447 33.3826C31.6371 32.9049 32.359 32.6153 33.1174 32.5513C33.8652 32.4893 34.6135 32.6638 35.2567 33.0501C35.7333 33.3494 35.9106 33.6487 35.8331 33.7373Z" fill="#263238"/>
<path d="M41.7642 43.0123C41.7642 42.9458 41.8418 42.8793 43.2828 42.6022C43.6486 42.5357 43.9922 42.447 44.0365 42.2475C44.0808 42.048 43.9368 41.7377 43.7372 41.4162L42.4847 39.3767C41.7836 38.232 41.1793 37.0307 40.678 35.7854C40.8332 35.73 41.332 36.1955 43.0611 39.1107C43.4823 39.8312 43.8813 40.5295 44.2582 41.1945C44.4245 41.5049 44.6905 41.8485 44.5242 42.303C44.4724 42.4202 44.3946 42.524 44.2967 42.6066C44.1987 42.6892 44.0832 42.7484 43.9589 42.7796C43.7557 42.8395 43.5482 42.8839 43.3382 42.9126C41.8862 43.1232 41.7642 43.0123 41.7642 43.0123Z" fill="#263238"/>
<path d="M41.7072 57.0072C41.7072 57.0072 36.1651 57.9272 28.8052 54.3359C28.8052 54.3359 31.7536 61.8621 42.1063 59.9889L41.7072 57.0072Z" fill="#EB996E"/>
<path d="M34.9478 28.9756C34.8148 29.4411 33.5512 29.2083 32.0549 29.4411C30.5585 29.6739 29.3614 30.2059 29.1619 29.7958C29.0732 29.5963 29.2838 29.164 29.7715 28.6874C30.3797 28.1604 31.1257 27.8181 31.9218 27.7009C32.6808 27.5939 33.4543 27.7215 34.1387 28.0667C34.7262 28.3992 35.0033 28.765 34.9478 28.9756Z" fill="#263238"/>
<path d="M48.6922 27.4248C48.4927 27.846 47.3953 27.6132 46.1428 27.7906C44.8903 27.9679 43.926 28.4224 43.5935 28.0566C43.4494 27.8793 43.5935 27.4691 43.9592 27.0258C44.4929 26.4999 45.1853 26.1649 45.9288 26.0727C46.6723 25.9805 47.4255 26.1363 48.0715 26.5159C48.6146 26.8484 48.7809 27.181 48.6922 27.4248Z" fill="#263238"/>
<path d="M15.8693 17.4141C15.8693 17.4141 9.41823 17.9018 9.03028 25.428C8.86315 28.5596 9.38947 31.6895 10.5717 34.5942C11.7539 37.4989 13.5628 40.1068 15.8693 42.2317C19.3608 45.1801 21.5776 45.4793 21.5776 45.4793L24.2268 32.533L15.8693 17.4141Z" fill="#263238"/>
<path d="M49.0226 20.8303C47.8707 19.1546 46.3943 17.7271 44.6808 16.6323C42.9672 15.5375 41.0514 14.7978 39.0467 14.4569C35.037 13.7912 30.9258 14.1069 27.0647 15.3769C23.2188 16.6459 19.4822 18.225 15.8918 20.0988C14.9487 20.4192 14.1585 21.079 13.6749 21.9498C13.4828 22.5904 13.4561 23.2692 13.5974 23.9228L15.8142 40.6157L17.5877 43.9409C19.4055 43.8079 20.8354 42.367 21.8994 40.9039C25.6752 35.7162 27.3104 29.2747 26.4662 22.9142C26.9873 23.6274 27.3879 24.4212 27.6522 25.264C27.7901 25.6835 28.0259 26.0641 28.34 26.3745C28.6542 26.6848 29.0377 26.9158 29.4589 27.0486C30.9109 27.3146 31.975 25.6187 32.0748 24.1556C32.1745 22.6925 31.8198 21.1185 32.4295 19.7884C34.0379 21.7582 36.0683 23.3416 38.3706 24.4216C39.479 24.9204 40.8646 25.264 41.6959 24.4216C41.9819 24.1081 42.1748 23.7212 42.2531 23.3042C42.3314 22.8871 42.292 22.4565 42.1393 22.0607C41.8476 21.2903 41.4112 20.583 40.8535 19.9768C42.7397 21.7138 45.0877 22.8686 47.6149 23.3021C47.8831 23.3867 48.1674 23.4066 48.4448 23.3604C48.7222 23.3142 48.9847 23.203 49.211 23.0361C49.8095 22.504 49.4659 21.5175 49.0226 20.8303Z" fill="#263238"/>
<path d="M20.5567 37.9004C20.4015 37.9004 13.9837 36.5924 14.7818 42.9437C15.5799 49.295 21.787 47.189 21.7649 47.0005C21.7427 46.8121 20.5567 37.9004 20.5567 37.9004Z" fill="#FFBE9D"/>
<path d="M16.9333 43.2331C16.9333 43.1111 16.9333 42.9892 16.8558 42.8673C16.773 42.3263 16.8108 41.7737 16.9666 41.249C17.0035 41.0432 17.0891 40.8493 17.2164 40.6834C17.3437 40.5175 17.5089 40.3846 17.6982 40.2958C17.8203 40.2445 17.9568 40.2387 18.0828 40.2793C18.2089 40.32 18.3162 40.4045 18.3854 40.5174C18.4962 40.6837 18.474 40.8167 18.5073 40.8167C18.5405 40.8167 18.6292 40.6948 18.5073 40.4399C18.4531 40.2869 18.3473 40.1575 18.208 40.0741C18.0164 39.9651 17.7904 39.9333 17.5762 39.9854C17.3251 40.0686 17.099 40.2138 16.9188 40.4076C16.7386 40.6013 16.6102 40.8373 16.5454 41.0938C16.3427 41.6772 16.2856 42.3012 16.3791 42.9116C16.4178 43.4815 16.6249 44.0271 16.9742 44.479C17.3235 44.931 17.7993 45.2689 18.341 45.4499C18.5165 45.4774 18.6959 45.4658 18.8664 45.416C19.037 45.3661 19.1944 45.2793 19.3275 45.1617C19.5049 44.9733 19.527 44.8292 19.4938 44.8181C19.4605 44.807 19.394 44.9179 19.2167 45.0176C18.9693 45.1629 18.6754 45.2066 18.3965 45.1396C18.0074 44.9664 17.6671 44.6997 17.406 44.3632C17.1449 44.0267 16.9711 43.6309 16.9001 43.2109" fill="#EB996E"/>
<path d="M41.7074 45.6675L37.2737 43.628C37.2164 43.5924 37.1523 43.5691 37.0855 43.5596C37.0188 43.5501 36.9507 43.5545 36.8857 43.5725C36.8067 43.6233 36.7449 43.6967 36.7084 43.7832C36.4702 44.2679 36.3672 44.8079 36.4101 45.3463C36.453 45.8846 36.6403 46.4015 36.9522 46.8424C37.2564 47.249 37.6707 47.5601 38.146 47.7388C38.6213 47.9175 39.1379 47.9565 39.6346 47.8511C40.1559 47.7117 40.6285 47.4308 41.0002 47.0396C41.3719 46.6484 41.6281 46.162 41.7406 45.6342L41.7074 45.6675Z" fill="#FFA084"/>
<path d="M24.561 18.532C24.561 18.532 24.561 18.532 24.561 18.6096L24.6275 18.8313C24.694 19.0308 24.7716 19.33 24.8603 19.7069C25.1173 20.7983 25.2694 21.9118 25.3147 23.0322C25.4019 24.6906 25.1531 26.3494 24.5832 27.9092C24.2716 28.8526 23.7173 29.6974 22.976 30.3589C22.571 30.6989 22.0868 30.9314 21.5683 31.035C21.0267 31.1561 20.46 31.0896 19.961 30.8466C19.3988 30.544 18.928 30.0962 18.5977 29.5497C18.2778 29.0446 18.0069 28.5102 17.7885 27.9536H17.9326C17.323 28.5521 16.8242 29.2394 16.3476 29.849C15.8802 30.4632 15.2668 30.9509 14.563 31.2678C14.2442 31.4105 13.8973 31.4796 13.548 31.4701C13.1988 31.4605 12.8562 31.3724 12.5457 31.2123C12.0116 30.9379 11.5802 30.4987 11.3153 29.9598C11.1041 29.5241 10.9906 29.0474 10.9828 28.5632C10.9732 28.1911 11.0066 27.8192 11.0826 27.4548C11.1306 27.2364 11.1936 27.0216 11.271 26.8119C11.271 26.6678 11.3597 26.6013 11.3708 26.6013L11.3043 26.823C11.2411 27.0344 11.1893 27.249 11.1491 27.4659C11.0799 27.8123 11.0539 28.166 11.0715 28.5189C11.0907 28.9851 11.2077 29.4421 11.4151 29.8601C11.6784 30.3713 12.0924 30.7892 12.6011 31.0572C12.8974 31.1973 13.2211 31.27 13.5488 31.27C13.8766 31.27 14.2002 31.1973 14.4965 31.0572C15.1755 30.7455 15.7688 30.2739 16.2257 29.6827C16.7355 29.0731 17.19 28.3748 17.7996 27.7651C17.8179 27.7488 17.8416 27.7398 17.8661 27.7398C17.8907 27.7398 17.9143 27.7488 17.9326 27.7651C18.1586 28.3056 18.4254 28.8281 18.7307 29.328C19.0477 29.8447 19.4949 30.269 20.0276 30.5584C20.4892 30.7809 21.0118 30.8433 21.5128 30.7357C22.0048 30.6378 22.4653 30.4209 22.854 30.1039C23.568 29.4588 24.1059 28.6425 24.4169 27.7319C24.9818 26.1935 25.238 24.5588 25.1706 22.9213C25.1373 21.8038 25.0075 20.6913 24.7827 19.5961C24.694 19.2081 24.6386 18.9088 24.5832 18.7093L24.5278 18.4766C24.5365 18.4963 24.5477 18.5149 24.561 18.532Z" fill="#455A64"/>
<path d="M41.6172 13.0859C41.6172 13.0859 41.6172 13.1746 41.6172 13.3409C41.6367 13.581 41.7296 13.8093 41.8832 13.9948C42.0606 14.2498 42.3488 14.5158 42.6259 14.8816C42.7823 15.0816 42.8853 15.318 42.9251 15.5688C42.9633 15.8557 42.8877 16.1461 42.7145 16.378C42.5252 16.6275 42.2671 16.8163 41.9719 16.9211C41.6537 17.0275 41.3209 17.0836 40.9854 17.0873C40.2666 17.0999 39.5478 17.0591 38.8351 16.9654C37.2 16.7496 35.6141 16.2547 34.1464 15.5023C33.5284 15.1777 32.9356 14.8072 32.373 14.3939H32.517C32.4327 15.1169 32.2768 15.8298 32.0515 16.522C31.8456 17.1757 31.4618 17.759 30.9431 18.2069C30.7117 18.413 30.4416 18.5711 30.1486 18.6719C29.8555 18.7728 29.5454 18.8144 29.2361 18.7943C28.7071 18.7442 28.2034 18.5443 27.7841 18.2179C27.4441 17.9567 27.1484 17.6423 26.9084 17.2869C26.723 17.0256 26.5563 16.7515 26.4096 16.4666C26.284 16.2302 26.1953 16.0528 26.1436 15.9346C26.1099 15.87 26.0803 15.8034 26.0549 15.7351C26.098 15.7901 26.1351 15.8496 26.1658 15.9124L26.4651 16.4334C26.8048 17.0852 27.2767 17.659 27.8506 18.1182C28.2542 18.4299 28.7391 18.6184 29.2472 18.6613C29.8333 18.6802 30.4045 18.474 30.8433 18.0849C31.3554 17.6584 31.7391 17.0982 31.9518 16.4666C32.1713 15.7811 32.3235 15.0757 32.4062 14.3606C32.413 14.3391 32.4261 14.3201 32.4439 14.3062C32.4618 14.2924 32.4834 14.2843 32.506 14.283C33.059 14.699 33.6446 15.0697 34.2573 15.3915C35.703 16.1399 37.2663 16.6348 38.8794 16.8546C39.5845 16.9514 40.2959 16.9959 41.0076 16.9876C41.3235 16.9874 41.6375 16.9388 41.9386 16.8435C42.2131 16.7569 42.4535 16.5863 42.6259 16.3558C42.7085 16.2565 42.7698 16.1414 42.806 16.0174C42.8422 15.8935 42.8526 15.7634 42.8365 15.6353C42.7987 15.4067 42.7075 15.1903 42.5705 15.0035C42.3044 14.6377 42.0273 14.3606 41.85 14.0946C41.6911 13.8966 41.605 13.6501 41.6061 13.3963C41.5902 13.3345 41.5902 13.2697 41.6061 13.2079L41.6172 13.0859Z" fill="#455A64"/>
<path d="M40.4635 47.3935C40.4635 47.3935 40.009 48.125 38.7122 48.3024C38.3291 48.3215 37.9464 48.2593 37.5891 48.1198C37.2319 47.9804 36.9082 47.7668 36.6394 47.4932C36.3028 47.1647 36.0474 46.7623 35.8934 46.3178C35.7395 45.8733 35.6913 45.3991 35.7527 44.9328C35.7808 44.6917 35.8328 44.4541 35.9078 44.2234C35.936 44.0699 36.0041 43.9266 36.1053 43.8079C36.2065 43.6892 36.3372 43.5993 36.4842 43.5472C36.6192 43.5124 36.7599 43.5063 36.8974 43.5292C37.0348 43.5521 37.1659 43.6036 37.2823 43.6803L37.8254 43.9352L39.7097 44.8663C40.3101 45.1055 40.8706 45.4344 41.3724 45.8417C40.7316 45.7335 40.1111 45.5279 39.5324 45.232L37.6148 44.4229C37.2712 44.301 36.7835 43.9906 36.6616 44.0904C36.5397 44.1901 36.5064 44.168 36.451 44.3896C36.3923 44.5888 36.3515 44.7928 36.3291 44.9993C36.2828 45.3461 36.3081 45.6988 36.4034 46.0354C36.4987 46.3721 36.6621 46.6857 36.8833 46.9568C37.1045 47.2279 37.379 47.4508 37.6898 47.6117C38.0005 47.7726 38.3409 47.8681 38.69 47.8922C39.3044 47.8239 39.9035 47.6554 40.4635 47.3935Z" fill="#263238"/>
</g>
<rect x="1" y="1" width="62" height="62" rx="31" stroke="#576CBE" stroke-width="2"/>
<defs>
<clipPath id="clip0_5282_69312">
<rect width="64" height="64" rx="32" fill="white"/>
</clipPath>
</defs>
</svg>
