<svg width="64" height="64" viewBox="0 0 64 64" fill="none" xmlns="http://www.w3.org/2000/svg">
<g clip-path="url(#clip0_5282_69315)">
<rect width="64" height="64" rx="32" fill="#E8EBF6"/>
<path d="M31.3409 12.612C31.237 12.1941 31.051 11.8012 30.7937 11.4559C30.5365 11.1107 30.2131 10.8201 29.8424 10.601C29.4717 10.3819 29.0612 10.2388 28.6347 10.1799C28.2082 10.1211 27.7742 10.1476 27.358 10.2581C26.7328 9.38969 25.7965 8.79607 24.7444 8.60092C23.6923 8.40578 22.6054 8.62417 21.7103 9.21059C20.8819 9.80006 20.3043 10.6843 19.5038 11.3096C18.7032 11.9349 17.7991 12.2416 16.9667 12.7593C16.1343 13.2771 15.3735 14.0976 15.3735 15.0734C15.3735 16.1607 16.3374 17.0648 17.365 17.3397C18.3926 17.6145 19.5237 17.4472 20.5951 17.268C20.3911 17.4511 20.2614 17.7026 20.2306 17.975C20.1997 18.2474 20.2699 18.5216 20.4278 18.7456C20.7595 19.1858 21.239 19.4913 21.778 19.6059C22.6591 19.8333 23.5859 19.8135 24.4564 19.5486C25.327 19.2837 26.1077 18.784 26.7128 18.1044L28.5529 16.328C28.9821 16.272 29.3958 16.1308 29.7697 15.9126C30.1435 15.6943 30.4699 15.4035 30.7297 15.0573C30.9895 14.711 31.1774 14.3163 31.2824 13.8964C31.3873 13.4764 31.4072 13.0397 31.3409 12.612Z" fill="#263238"/>
<path d="M27.0863 19.9297C26.9068 20.1235 26.6622 20.2444 26.3992 20.2694C26.1362 20.2943 25.8733 20.2217 25.6605 20.0652C25.4551 19.8981 25.2994 19.678 25.2102 19.4288C25.121 19.1795 25.1018 18.9106 25.1546 18.6512C25.2686 18.1329 25.5603 17.6708 25.9791 17.3448C26.3982 17.0214 26.8625 16.761 27.3572 16.5722C28.1008 16.2394 28.8817 15.9974 29.6832 15.8513C29.9652 15.7892 30.2574 15.7892 30.5395 15.8513C30.6802 15.8865 30.809 15.9586 30.9126 16.0601C31.0162 16.1616 31.0909 16.2888 31.129 16.4288C31.2046 16.8271 30.89 17.1855 30.5913 17.4603C29.483 18.4959 28.2832 19.4291 27.0067 20.2484" fill="#FF725E"/>
<path d="M25.8805 19.857C23.7297 17.9413 19.006 18.7617 18.0262 20.2553C17.1403 19.9482 16.1701 19.9936 15.3167 20.3821C14.4634 20.7707 13.7921 21.4725 13.4419 22.3424L8.49916 24.0032C7.65479 24.282 6.77457 24.5887 6.17316 25.2419C5.57174 25.8951 5.37658 27.0143 5.99791 27.6316C4.25739 28.3047 3.8591 31.033 5.30489 32.1721C5.15444 32.3879 5.04975 32.6322 4.99727 32.89C4.94479 33.1478 4.94562 33.4136 4.99972 33.671C5.05382 33.9285 5.16005 34.1721 5.31185 34.387C5.46365 34.6018 5.65782 34.7833 5.88241 34.9203C4.66305 36.7464 3.76335 38.7667 3.22184 40.8947C2.99481 41.7868 2.84346 42.7666 3.24972 43.5911C3.65597 44.4155 4.84287 44.8815 5.53191 44.2682C5.32032 44.6461 5.22207 45.0769 5.24891 45.5092C5.27575 45.9415 5.42655 46.3569 5.68326 46.7057C4.82694 46.8172 4.71542 48.1674 5.36861 48.725C6.02181 49.2826 6.98567 49.2508 7.838 49.1233C8.69034 48.9959 9.61437 48.8724 10.3711 49.2866C10.3751 49.3918 10.3574 49.4967 10.319 49.5947C10.2806 49.6927 10.2225 49.7817 10.1481 49.8562C8.80585 51.2103 8.6067 53.3133 9.87326 54.7392C9.98876 54.8706 10.1003 54.9901 10.1959 55.1016C10.7654 55.7508 12.0599 56.2686 12.8684 56.5833C14.9116 57.3798 16.0547 57.0771 18.2373 57.1568C17.7952 58.6145 21.6307 61.3309 25.3269 57.8697C33.5714 59.1721 39.4343 59.3792 47.7386 58.5189C48.9334 58.3995 50.3275 58.0888 50.7417 56.9696C51.7294 57.1209 52.7331 56.5713 53.3545 55.7946C53.9443 54.9871 54.3915 54.0846 54.6768 53.1261C55.6689 52.7219 56.5113 52.0198 57.0877 51.1167C57.6641 50.2136 57.9461 49.1539 57.8949 48.0838C58.5286 47.4634 59.0268 46.7184 59.3579 45.8957C59.689 45.0731 59.8459 44.1907 59.8187 43.3043C61.0773 42.5077 62.4195 39.7914 61.4317 38.027C60.7402 35.6236 59.6569 33.3507 58.2255 31.2999C59.5518 30.8657 59.8705 28.9779 59.1774 27.7671C58.4844 26.5563 57.1621 25.8672 55.9115 25.2459C56.955 25.4092 57.7038 24.051 57.3533 23.0434C57.0028 22.0357 56.011 21.4502 55.0512 20.9922C53.645 20.3418 52.1662 19.8617 50.6461 19.5623C49.973 17.8258 47.4598 16.0335 45.7193 15.4201C38.6297 12.9427 33.8144 12.6321 25.8805 19.8491" fill="#263238"/>
<path d="M25.0827 27.4236L36.4897 22.1742C41.0302 20.9475 45.0091 26.1571 46.0486 30.7374C47.1957 35.8355 48.3906 42.1046 48.3945 46.0436C48.4116 48.2863 47.7948 50.4882 46.6153 52.3957C45.4357 54.3032 43.7413 55.8387 41.7272 56.8253L42.4441 61.549C42.2609 65.269 38.4015 65.7709 38.4015 65.7709C27.8189 67.2087 26.4528 61.3061 26.4528 61.3061L23.1749 31.9402C22.904 30.5383 23.7006 27.7941 25.0827 27.4236Z" fill="#FFBE9D"/>
<path d="M39.8725 43.382C39.8725 43.3222 40.5018 43.1032 41.5572 42.7965C41.8241 42.7248 42.071 42.6292 42.087 42.434C42.0708 42.1429 41.9635 41.8643 41.7803 41.6375L40.6412 39.7018C39.048 36.9138 37.8531 34.6276 37.9687 34.5639C38.0842 34.5001 39.4622 36.6987 41.0514 39.4708C41.4497 40.1598 41.8042 40.809 42.1547 41.4343C42.3785 41.736 42.4885 42.107 42.4653 42.4818C42.4397 42.5856 42.3904 42.682 42.3213 42.7635C42.2522 42.845 42.1652 42.9095 42.067 42.9518C41.9229 43.0155 41.7719 43.0623 41.617 43.0912C40.5575 43.3302 39.8884 43.4417 39.8725 43.382Z" fill="#263238"/>
<path d="M41.728 56.8249C41.728 56.8249 37.4743 57.032 31.8306 54.7578C31.8306 54.7578 34.1884 59.4576 42.0626 59.1709L41.728 56.8249Z" fill="#EB996E"/>
<path d="M33.9468 31.9572C33.8871 32.2639 32.7997 32.2957 31.5571 32.6462C30.3144 32.9967 29.3705 33.4985 29.1673 33.2675C29.0757 33.152 29.2072 32.8693 29.5656 32.5068C30.0561 32.0764 30.6379 31.7632 31.2672 31.5907C31.8964 31.4182 32.5567 31.391 33.198 31.5111C33.6999 31.6226 33.9667 31.8138 33.9468 31.9572Z" fill="#263238"/>
<path d="M44.2345 30.6073C44.0872 30.8782 43.3105 30.7428 42.4263 30.8742C41.5421 31.0056 40.8332 31.2964 40.6061 31.0694C40.5145 30.9578 40.6061 30.699 40.8809 30.4162C41.2771 30.0726 41.766 29.8538 42.2861 29.7872C42.8062 29.7206 43.3344 29.8091 43.8044 30.0418C44.1589 30.2409 44.2983 30.4759 44.2345 30.6073Z" fill="#263238"/>
<path d="M49.9583 34.0635C49.782 32.8412 49.1915 31.7164 48.2855 30.8772C47.7342 30.4953 47.2024 30.0859 46.6923 29.6505C45.6886 28.603 45.6289 26.9939 45.0992 25.6397C44.7487 24.7686 44.1956 23.9936 43.4855 23.3792C42.7755 22.7648 41.9291 22.3286 41.0167 22.1069C39.4992 21.7524 37.8543 22.0113 36.4045 21.4377C35.3331 21.0395 34.4609 20.1752 33.3656 19.8167C31.2308 19.1237 28.9844 20.4301 27.216 21.8082C27.0089 23.3694 28.1201 24.5763 29.2075 25.7353C29.7475 26.3127 30.4065 26.7659 31.1388 27.0637C31.8712 27.3614 32.6595 27.4966 33.4492 27.4599C34.672 27.3922 36.058 26.958 37.0099 27.7267C37.9618 28.4954 37.8463 30.1802 38.7027 31.1401C39.9254 32.5142 42.2594 31.6698 43.9441 32.4146C45.2426 32.9881 45.9356 34.406 46.6764 35.6009C47.4172 36.7958 48.6679 37.9906 50.0499 37.7795C50.1623 36.5415 50.1316 35.2945 49.9583 34.0635Z" fill="#263238"/>
<path d="M30.5443 24.2031C26.9812 24.5574 23.5202 25.5974 20.3521 27.266C19.4121 27.7598 18.4483 28.3652 17.9902 29.3251C17.5919 30.1695 17.6397 31.1533 17.7552 32.0813C18.1217 34.9888 19.6989 38.4181 21.1128 40.983L24.9961 42.7435C27.7164 41.7637 25.8843 37.0758 25.4741 34.6702C26.3962 34.1142 27.1441 33.3108 27.6326 32.3512C28.1212 31.3916 28.331 30.3143 28.2382 29.2415C28.9771 28.6294 29.5682 27.8585 29.9675 26.9861C30.3668 26.1137 30.564 25.1624 30.5443 24.2031Z" fill="#263238"/>
<path d="M24.8348 41.6921C24.5361 40.0393 22.4451 39.9476 21.1227 40.9712C20.3939 41.5289 19.9279 42.5286 20.2107 44.285C21.0072 48.9649 25.5477 47.1885 25.5358 47.073C25.5238 46.9575 25.1853 43.6278 24.8348 41.6921Z" fill="#FFBE9D"/>
<path d="M23.7989 45.5374C23.775 45.5374 23.7272 45.6051 23.5998 45.6928C23.4201 45.8109 23.2013 45.8538 22.9904 45.8123C22.4647 45.7167 21.915 45.0157 21.7477 44.1633C21.6663 43.7681 21.6758 43.3595 21.7756 42.9685C21.7944 42.815 21.8497 42.6683 21.9371 42.5408C22.0244 42.4132 22.1412 42.3086 22.2775 42.2356C22.3671 42.195 22.4681 42.1867 22.5632 42.2121C22.6584 42.2375 22.7417 42.2951 22.7992 42.375C22.8829 42.4945 22.8709 42.5941 22.8948 42.5981C22.9187 42.602 22.9824 42.5025 22.8948 42.3153C22.8501 42.2038 22.7686 42.1111 22.6638 42.0524C22.5169 41.9785 22.347 41.9642 22.1898 42.0126C22.0064 42.0866 21.8449 42.2063 21.7208 42.3604C21.5967 42.5145 21.5141 42.6978 21.4809 42.8928C21.3499 43.3324 21.3293 43.7975 21.4211 44.247C21.6163 45.183 22.2496 45.9835 22.9585 46.0632C23.0904 46.0782 23.224 46.0634 23.3495 46.02C23.4749 45.9766 23.589 45.9056 23.6834 45.8123C23.8109 45.649 23.8149 45.5414 23.7989 45.5374Z" fill="#EB996E"/>
<path d="M23.5011 47.5703C23.5011 47.5703 23.5011 47.5703 23.5011 47.634C23.4958 47.6979 23.4824 47.7608 23.4612 47.8212C23.3641 48.0554 23.1899 48.2494 22.9674 48.3709C22.6216 48.5827 22.2346 48.7185 21.8322 48.7692C21.5791 48.8059 21.323 48.8179 21.0675 48.805C20.777 48.798 20.4895 48.7456 20.2152 48.6497L20.2709 48.6138C20.2518 49.0231 20.1267 49.4204 19.908 49.7668C19.6892 50.1132 19.3842 50.3968 19.0228 50.5899C18.6615 50.7831 18.2562 50.879 17.8466 50.8684C17.437 50.8579 17.0372 50.7411 16.6863 50.5296L16.766 50.5057C16.6453 50.7247 16.4461 50.8899 16.2084 50.9677C15.9588 51.0513 15.69 51.0596 15.4357 50.9916C15.1708 50.9271 14.9352 50.7756 14.7666 50.5615C14.5964 50.3429 14.4828 50.0857 14.436 49.8127C14.3535 49.2473 14.4719 48.6708 14.7706 48.1837C15.083 47.69 15.4549 47.2365 15.8778 46.8335V46.941C15.6677 46.84 15.4811 46.696 15.3301 46.5183C15.1792 46.3406 15.0673 46.1332 15.0016 45.9094C14.8561 45.4532 14.8478 44.9644 14.9777 44.5035C15.1247 44.0413 15.3586 43.6114 15.6667 43.2369C15.9797 42.8589 16.3163 42.5011 16.6744 42.1655V42.2691C16.4845 42.1067 16.331 41.906 16.2239 41.6802C16.1169 41.4544 16.0586 41.2086 16.0531 40.9587C16.0267 40.4448 16.1573 39.935 16.4275 39.497C16.9452 38.6566 17.7737 38.1269 18.5424 37.629L18.5105 37.7166C18.3329 37.2396 18.2735 36.7267 18.3374 36.2217C18.4014 35.7167 18.5867 35.2348 18.8776 34.817C19.1684 34.3993 19.5562 34.0583 20.0076 33.8232C20.4591 33.588 20.9608 33.4658 21.4698 33.4669L21.4061 33.5545C21.2841 33.1575 21.2547 32.7378 21.3203 32.3276C21.3859 31.9175 21.5447 31.5279 21.7844 31.1887C21.9926 30.8662 22.268 30.5924 22.5918 30.3862C22.9156 30.1799 23.2801 30.0461 23.6604 29.9938L23.6086 30.0576C23.5742 29.6554 23.6316 29.2507 23.7765 28.874C23.9214 28.4972 24.15 28.1584 24.445 27.8829C24.6945 27.6324 24.9922 27.435 25.3201 27.3029C25.648 27.1708 25.9993 27.1066 26.3528 27.1142L26.305 27.166C26.2797 26.7353 26.3633 26.3052 26.548 25.9153C26.7058 25.5628 26.9242 25.2406 27.1932 24.9634C27.593 24.5087 28.1323 24.1991 28.7266 24.0832L28.9019 24.0514H29.0691C29.17 24.0454 29.271 24.0454 29.3718 24.0514C29.5277 24.0636 29.6822 24.0889 29.8339 24.127L30.1087 24.2107C30.1724 24.2107 30.2043 24.2386 30.2003 24.2425L30.1047 24.2226L29.8299 24.1509C29.6771 24.1214 29.5229 24.1001 29.3679 24.0872C29.2763 24.0872 29.1767 24.0872 29.0691 24.0872H28.9058L28.7346 24.1231C28.1565 24.2438 27.6343 24.5517 27.249 24.9993C26.9999 25.2749 26.798 25.5898 26.6515 25.9313C26.4801 26.3053 26.4022 26.7153 26.4245 27.1261V27.1819H26.3727C26.0111 27.1879 25.6546 27.2678 25.3251 27.4168C24.9956 27.5658 24.7001 27.7807 24.4568 28.0482C24.2135 28.3158 24.0276 28.6303 23.9105 28.9725C23.7934 29.3146 23.7476 29.6771 23.7759 30.0376V30.0974H23.7161C23.3522 30.1506 23.0041 30.2817 22.6955 30.4817C22.3869 30.6817 22.125 30.946 21.9278 31.2564C21.7013 31.5798 21.5516 31.9506 21.4902 32.3406C21.4288 32.7305 21.4572 33.1294 21.5733 33.5067L21.6052 33.5983H21.5096C21.0233 33.5986 20.5442 33.7166 20.1133 33.9422C19.6824 34.1677 19.3124 34.4942 19.035 34.8937C18.7576 35.2932 18.5809 35.7538 18.5201 36.2364C18.4593 36.7189 18.5161 37.209 18.6858 37.6649V37.7206L18.638 37.7525C17.8732 38.2464 17.0448 38.7681 16.5708 39.5727C16.3146 39.9853 16.1883 40.4654 16.2084 40.9508C16.2147 41.1783 16.2682 41.402 16.3655 41.6077C16.4629 41.8134 16.602 41.9966 16.774 42.1456L16.8377 42.1934L16.7779 42.2492C16.077 42.9263 15.376 43.6352 15.1171 44.5274C14.9875 44.9586 14.9875 45.4185 15.1171 45.8497C15.1755 46.0555 15.2766 46.2466 15.4139 46.4106C15.5511 46.5746 15.7214 46.7079 15.9137 46.8016L16.0013 46.8414L15.9336 46.9092C15.5186 47.304 15.1535 47.748 14.8462 48.2315C14.5579 48.6917 14.4422 49.2393 14.5197 49.7768C14.5472 50.0269 14.6481 50.2632 14.8097 50.4559C14.9713 50.6487 15.1864 50.7894 15.4278 50.8602C15.6473 50.9299 15.8838 50.9246 16.1001 50.8453C16.3163 50.766 16.5001 50.6172 16.6226 50.4221L16.6465 50.3663L16.7023 50.3982C17.0664 50.611 17.4822 50.7192 17.9039 50.7108C18.3255 50.7023 18.7367 50.5776 19.092 50.3504C19.3992 50.1623 19.6585 49.9053 19.8493 49.5998C20.0401 49.2943 20.1572 48.9485 20.1913 48.5899V48.5382H20.2391C20.5055 48.6325 20.785 48.6849 21.0675 48.6935C21.3186 48.71 21.5707 48.702 21.8203 48.6696C22.2149 48.6291 22.5971 48.5085 22.9435 48.3151C23.1626 48.2024 23.3369 48.0184 23.4373 47.7934C23.4891 47.6659 23.4931 47.5663 23.5011 47.5703Z" fill="#455A64"/>
<path d="M4.97603 44.5681C4.89641 44.4883 4.82564 44.4002 4.76494 44.3053C4.58763 44.0306 4.4671 43.7231 4.41046 43.4011C4.31303 42.8824 4.39005 42.346 4.62952 41.8757C4.79118 41.5632 5.01644 41.288 5.29082 41.0679C5.5652 40.8477 5.88262 40.6873 6.22268 40.5972L6.19081 40.6569C5.93861 39.8687 5.99702 39.0138 6.35411 38.2672C6.53737 37.8523 6.80926 37.4825 7.15069 37.1838C7.53172 36.8942 7.93987 36.6421 8.36945 36.4311C8.5815 36.3128 8.7759 36.1653 8.94697 35.993C9.11462 35.8139 9.23866 35.5985 9.30942 35.3637C9.46873 34.8897 9.4767 34.348 9.68381 33.8303C9.91023 33.3025 10.2888 32.8543 10.7713 32.5429C11.2537 32.2314 11.818 32.0709 12.3922 32.0818L12.3205 32.1694C12.1748 31.6064 12.1603 31.0174 12.278 30.4479C12.3958 29.8784 12.6428 29.3435 12.9998 28.8845C13.3569 28.4255 13.8146 28.0545 14.3376 27.8002C14.8606 27.5459 15.435 27.4151 16.0166 27.4178L15.9489 27.5014C15.8105 26.8806 15.8525 26.2331 16.0698 25.6353C16.2871 25.0375 16.6706 24.5142 17.1754 24.1271C17.6801 23.74 18.2849 23.5052 18.9186 23.4503C19.5523 23.3954 20.1885 23.5227 20.7523 23.8173H20.6766C21.0962 23.3137 21.6191 22.9062 22.21 22.6224C22.7314 22.3604 23.2842 22.1663 23.8549 22.0449C24.778 21.8323 25.7319 21.7878 26.6708 21.9135C27.2728 21.9866 27.8592 22.156 28.4074 22.4153C28.5465 22.4823 28.6797 22.5609 28.8057 22.6503C28.8973 22.706 28.9451 22.7419 28.9451 22.7419C28.9451 22.7419 28.7499 22.6264 28.3755 22.4472C27.8263 22.2057 27.2434 22.0499 26.6469 21.9851C25.7157 21.8708 24.7716 21.9234 23.8589 22.1405C23.2974 22.2648 22.754 22.4603 22.2419 22.722C21.6681 22.9991 21.1613 23.3972 20.7562 23.889L20.7244 23.9288L20.6806 23.9049C20.1358 23.6235 19.5218 23.5041 18.9113 23.561C18.3008 23.6179 17.7194 23.8487 17.236 24.226C16.7527 24.6033 16.3877 25.1112 16.1843 25.6897C15.9808 26.2681 15.9475 26.8927 16.0883 27.4895V27.5771H16.0007C15.4439 27.5782 14.8948 27.7063 14.395 27.9515C13.8953 28.1968 13.458 28.5529 13.1166 28.9926C12.7752 29.4324 12.5386 29.9442 12.4248 30.4892C12.311 31.0342 12.323 31.5979 12.4599 32.1375L12.4838 32.2331H12.3882C11.8425 32.2212 11.3057 32.3726 10.8465 32.6678C10.3874 32.963 10.0269 33.3886 9.81126 33.89C9.61212 34.3759 9.60017 34.9136 9.43687 35.4154C9.35663 35.667 9.22047 35.8971 9.03858 36.0885C8.86073 36.2705 8.65668 36.4249 8.43318 36.5466C8.0116 36.7522 7.61137 36.9991 7.23832 37.2834C6.90049 37.568 6.62867 37.9227 6.44174 38.323C6.09647 39.0399 6.03529 39.8609 6.27047 40.6211V40.6689H6.22268C5.89529 40.7553 5.58933 40.9085 5.32405 41.119C5.05878 41.3294 4.83994 41.5925 4.6813 41.8916C4.44512 42.3472 4.36401 42.8674 4.45029 43.3733C4.49908 43.6906 4.61007 43.9951 4.77689 44.2694C4.90434 44.4845 4.98002 44.5641 4.97603 44.5681Z" fill="#455A64"/>
<path d="M50.1885 40.7309C50.1491 40.6734 50.1233 40.6076 50.1129 40.5386C50.1026 40.4697 50.108 40.3992 50.1287 40.3326C50.1658 40.1735 50.2457 40.0275 50.3597 39.9104C50.5156 39.7536 50.7029 39.6314 50.9094 39.552C51.1602 39.452 51.396 39.3179 51.6104 39.1537C51.8388 38.9421 51.9937 38.663 52.0525 38.3571C52.1222 37.9954 52.1222 37.6236 52.0525 37.2618C51.9887 36.8635 51.8812 36.4653 51.8334 36.0311C51.7219 35.139 51.9967 34.187 52.1162 33.1754C52.1821 32.654 52.1442 32.1247 52.0047 31.6181C51.9358 31.3533 51.8104 31.1065 51.6372 30.8948C51.4639 30.683 51.2469 30.5113 51.001 30.3913C50.4462 30.197 49.8697 30.0713 49.2844 30.017C48.9738 29.9695 48.6735 29.8698 48.3962 29.7222C48.1152 29.5582 47.8808 29.3251 47.7151 29.0451C47.4167 28.4718 47.1804 27.8683 47.0101 27.2449C46.9107 26.9394 46.7657 26.6507 46.58 26.3885C46.3917 26.1312 46.1223 25.9447 45.8153 25.8588C45.3776 25.7921 44.9333 25.7814 44.4929 25.827C44.2623 25.8361 44.0319 25.8051 43.8119 25.7354C43.5898 25.6559 43.3931 25.5184 43.2423 25.3371C42.9794 24.9863 42.7676 24.6001 42.613 24.19C42.4479 23.8106 42.205 23.47 41.9001 23.1903C41.6103 22.9237 41.2687 22.7196 40.8967 22.5908C40.5246 22.462 40.13 22.4111 39.7374 22.4415C39.0009 22.5075 38.3159 22.8471 37.8176 23.3934L37.7619 23.4571L37.718 23.3854C37.3858 22.8366 36.9398 22.3653 36.4101 22.0032C35.8804 21.6412 35.2793 21.3968 34.6472 21.2865C34.1185 21.1984 33.5778 21.2119 33.0541 21.3263C32.6089 21.4201 32.184 21.5928 31.7995 21.8361C31.2601 22.1801 30.8314 22.6725 30.5648 23.254C30.4927 23.4193 30.4328 23.5897 30.3855 23.7638C30.3855 23.8156 30.3537 23.8554 30.3417 23.8873C30.3298 23.9192 30.3417 23.9311 30.3417 23.9271C30.3402 23.9139 30.3402 23.9005 30.3417 23.8873C30.3417 23.8514 30.3417 23.8116 30.3736 23.7598C30.4166 23.5963 30.4725 23.4365 30.5409 23.2819C30.7992 22.6826 31.2269 22.1717 31.7716 21.8122C32.1612 21.5606 32.5929 21.3811 33.0461 21.2825C33.5788 21.157 34.1311 21.1381 34.6711 21.2267C35.3193 21.3369 35.9363 21.5848 36.4805 21.9538C37.0247 22.3227 37.4834 22.8042 37.8256 23.3655H37.726C38.2408 22.7941 38.9517 22.4372 39.7175 22.3658C40.3456 22.3138 40.9743 22.4588 41.5161 22.7808C42.0579 23.1027 42.4859 23.5856 42.7405 24.1621C42.8907 24.5604 43.0958 24.9358 43.3498 25.2773C43.4959 25.4269 43.6738 25.5414 43.8704 25.6125C44.067 25.6835 44.2771 25.7092 44.485 25.6876C44.9387 25.6422 45.3964 25.6542 45.8471 25.7234C46.1835 25.8197 46.4788 26.024 46.6875 26.3049C46.8825 26.5783 47.033 26.8807 47.1336 27.2011C47.3042 27.8137 47.5364 28.4075 47.8266 28.9734C47.9813 29.2359 48.2025 29.453 48.4679 29.6027C48.732 29.7423 49.0173 29.8379 49.3122 29.8855C49.9096 29.9437 50.4971 30.0775 51.0607 30.2838C51.3306 30.4082 51.5658 30.5969 51.7458 30.8334C51.9248 31.06 52.0598 31.318 52.1441 31.5942C52.2869 32.1125 52.3248 32.6542 52.2556 33.1873C52.1281 34.2109 51.8573 35.1469 51.9529 36.0152C52.0007 36.4453 52.1042 36.8516 52.16 37.2459C52.2319 37.6168 52.2319 37.9981 52.16 38.3691C52.0987 38.698 51.9308 38.9976 51.6821 39.2214C51.4617 39.3874 51.219 39.5215 50.9611 39.6197C50.7592 39.6922 50.5747 39.8062 50.4195 39.9543C50.3078 40.0643 50.2268 40.2016 50.1845 40.3526C50.1433 40.4755 50.1447 40.6088 50.1885 40.7309Z" fill="#455A64"/>
<path d="M58.5094 32.4055C58.4881 32.381 58.4694 32.3543 58.4537 32.3258L58.2944 32.0749C58.151 31.8479 57.9478 31.5213 57.6929 31.1071C57.438 30.6929 57.1274 30.1631 56.7171 29.5976C56.2802 28.9366 55.666 28.4121 54.9447 28.0841C54.5465 27.9208 54.0844 27.8331 53.6224 27.6858C53.3806 27.6135 53.149 27.5105 52.9334 27.3791C52.7066 27.2418 52.5177 27.0502 52.3838 26.8215C52.1049 26.3555 52.0372 25.8019 51.7983 25.316C51.6812 25.0694 51.4924 24.8639 51.2566 24.7265C51.007 24.5964 50.738 24.5076 50.46 24.4636C50.1641 24.4156 49.8733 24.3396 49.5917 24.2366C49.2943 24.1207 49.0418 23.9127 48.8708 23.6431C48.5865 23.0807 48.3814 22.4815 48.2615 21.8628C48.1864 21.5625 48.0508 21.2806 47.8632 21.0344C47.6589 20.8039 47.3735 20.6612 47.0666 20.6361C46.4333 20.5803 45.7921 20.8711 45.0751 20.8392C44.7208 20.8128 44.3842 20.6732 44.1153 20.4409C43.8608 20.2207 43.6323 19.9721 43.4342 19.7001C43.2451 19.4369 43.0416 19.1843 42.8248 18.9433C42.628 18.7164 42.3774 18.5425 42.096 18.4375C41.5025 18.2424 40.9011 18.4375 40.3156 18.6526C39.7473 18.8999 39.1308 19.017 38.5114 18.9951C37.9384 18.9181 37.3839 18.7386 36.8744 18.4654C36.4046 18.2129 35.9109 18.0074 35.4007 17.852C34.4627 17.6512 33.4863 17.7301 32.5928 18.0791C31.8567 18.3656 31.195 18.8149 30.6571 19.3934C30.2515 19.8327 29.9169 20.3326 29.6654 20.875C29.5109 21.2197 29.3856 21.5768 29.291 21.9425C29.2591 22.0619 29.2312 22.1575 29.2113 22.2292C29.2062 22.2627 29.1954 22.295 29.1794 22.3248C29.1841 22.2913 29.1907 22.258 29.1994 22.2252L29.2631 21.9345C29.346 21.5633 29.4634 21.2006 29.6136 20.8511C29.861 20.2987 30.1929 19.7881 30.5974 19.3376C31.1488 18.7427 31.8304 18.2833 32.5888 17.9954C33.5005 17.6308 34.4999 17.5449 35.4605 17.7485C35.98 17.9029 36.483 18.1083 36.962 18.3618C37.4583 18.6263 37.9978 18.8003 38.5552 18.8756C39.1462 18.8827 39.7318 18.7617 40.2718 18.5212C40.5629 18.4084 40.8626 18.3192 41.1679 18.2543C41.4906 18.1893 41.8243 18.2044 42.1398 18.2981C42.4536 18.4101 42.7344 18.5991 42.9563 18.8478C43.1787 19.0912 43.3861 19.3479 43.5776 19.6164C43.7679 19.8802 43.9885 20.1208 44.2348 20.3334C44.4831 20.5382 44.7897 20.6595 45.111 20.6799C45.7682 20.7117 46.4094 20.421 47.1024 20.4807C47.4487 20.5104 47.7699 20.6731 47.9986 20.9348C48.2038 21.1963 48.3529 21.4973 48.4367 21.819C48.5546 22.4242 48.7528 23.0109 49.0262 23.5635C49.1769 23.808 49.3995 23.9999 49.6634 24.1131C49.9373 24.2127 50.2201 24.286 50.5078 24.3322C50.8001 24.3805 51.0826 24.476 51.3442 24.615C51.5968 24.7683 51.7968 24.9947 51.9178 25.2642C52.1607 25.778 52.2284 26.3276 52.4913 26.7618C52.7591 27.1711 53.1716 27.4642 53.6463 27.5822C54.1004 27.7296 54.5624 27.8172 54.9766 27.9805C55.7105 28.3213 56.3332 28.8625 56.7729 29.5418C57.1712 30.1193 57.4739 30.649 57.7328 31.0712L58.3103 32.051L58.4577 32.3099C58.48 32.3388 58.4974 32.3711 58.5094 32.4055Z" fill="#455A64"/>
<path d="M52.9347 28.0381C52.961 28.0254 52.9893 28.0173 53.0183 28.0142C53.1055 28 53.195 28.0096 53.2772 28.0421C53.4303 28.1168 53.5621 28.229 53.6603 28.3683C53.7584 28.5075 53.8198 28.6693 53.8388 28.8387C53.8675 29.0773 53.8608 29.3189 53.8189 29.5556C53.7692 29.8289 53.7598 30.108 53.791 30.384C53.8584 30.6946 54.0068 30.9818 54.2211 31.2164C54.4362 31.4793 54.6991 31.7302 54.9261 32.0489C55.058 32.2148 55.1494 32.4092 55.1929 32.6166C55.2365 32.824 55.2311 33.0388 55.177 33.2437C55.0735 33.642 54.8186 34.0403 54.723 34.4386C54.6487 34.8842 54.747 35.3414 54.9978 35.7171C55.2288 36.1154 55.5395 36.5137 55.7745 36.9717C55.9063 37.1989 55.9941 37.4489 56.0334 37.7086C56.0581 37.9776 56.0269 38.2488 55.9418 38.5051C55.7367 39.0081 55.4875 39.492 55.197 39.9509C54.8986 40.4071 54.7821 40.9584 54.8704 41.4963C55.0605 42.0331 55.3118 42.5463 55.6191 43.0257C55.7621 43.2878 55.8553 43.5741 55.894 43.8701C55.9178 44.1664 55.8756 44.4643 55.7705 44.7423C55.5383 45.2576 55.2469 45.7442 54.9022 46.1921C54.5828 46.6159 54.355 47.1015 54.2331 47.618C54.1586 48.1316 54.0508 48.6398 53.9105 49.1394C53.8273 49.3838 53.6913 49.6068 53.5122 49.7926C53.3273 49.9612 53.1143 50.096 52.8829 50.1909C52.6638 50.2945 52.4488 50.3821 52.2576 50.4976C52.0701 50.6172 51.9011 50.7634 51.7557 50.9317C51.4881 51.2661 51.2658 51.6344 51.0946 52.027C50.9193 52.4014 50.756 52.7718 50.5688 53.1064C50.2291 53.7202 49.7014 54.2088 49.0633 54.5004C48.587 54.7215 48.0669 54.8317 47.5418 54.823C47.2111 54.8185 46.8832 54.762 46.57 54.6557C46.4619 54.617 46.3567 54.5704 46.2554 54.5163C46.6644 54.681 47.101 54.7661 47.5418 54.7673C48.0558 54.7643 48.5629 54.6488 49.0275 54.4287C49.6455 54.1379 50.1538 53.6562 50.4772 53.0546C50.6644 52.724 50.8198 52.3616 50.995 51.9792C51.1661 51.575 51.3912 51.1959 51.6641 50.8521C51.8175 50.676 51.9944 50.5218 52.1899 50.3941C52.3975 50.276 52.6116 50.1696 52.8311 50.0754C53.049 49.9856 53.2497 49.859 53.4246 49.701C53.5923 49.5307 53.7202 49.3253 53.799 49.0996C53.9364 48.6051 54.0416 48.1022 54.1136 47.5941C54.2381 47.059 54.4727 46.5557 54.8027 46.1164C55.1387 45.6778 55.4234 45.202 55.651 44.6985C55.7489 44.445 55.7883 44.1728 55.7665 43.9019C55.7289 43.623 55.6412 43.3531 55.5076 43.1054C55.1918 42.6191 54.9363 42.0961 54.7469 41.5481C54.677 41.2629 54.677 40.965 54.7469 40.6798C54.8234 40.4021 54.933 40.1347 55.0735 39.8832C55.3603 39.4317 55.6068 38.956 55.8103 38.4613C55.8924 38.2222 55.9223 37.9682 55.8979 37.7165C55.8678 37.471 55.7921 37.2333 55.6749 37.0155C55.4519 36.5734 55.1452 36.1831 54.9062 35.7609C54.6413 35.3567 54.5416 34.8664 54.6274 34.3908C54.7349 33.9368 54.9898 33.5703 55.0894 33.1959C55.1372 33.0053 55.1395 32.806 55.0959 32.6143C55.0523 32.4226 54.9641 32.2439 54.8385 32.0927C54.6234 31.786 54.3605 31.5271 54.1455 31.2603C53.9231 31.0115 53.7718 30.7074 53.7074 30.38C53.6776 30.0955 53.691 29.8082 53.7472 29.5277C53.7905 29.298 53.8013 29.0634 53.779 28.8307C53.7599 28.6712 53.703 28.5186 53.6129 28.3855C53.5229 28.2525 53.4023 28.1429 53.2613 28.066C53.1574 28.0253 53.0439 28.0157 52.9347 28.0381Z" fill="#455A64"/>
<path d="M20.6252 47.1188C20.3787 47.2418 20.1551 47.4062 19.9641 47.6047C19.4298 48.1389 19.0999 48.8437 19.0321 49.5961C18.9831 50.1197 19.0567 50.6474 19.2471 51.1375C19.4726 51.6982 19.829 52.1966 20.2867 52.5913C20.7861 53.0364 21.3928 53.3438 22.0471 53.4834C22.7512 53.6346 23.4847 53.5679 24.1501 53.2923C24.8177 53.0237 25.3971 52.574 25.8229 51.9938C26.2186 51.4511 26.447 50.8046 26.4801 50.1338C26.5124 49.5702 26.4143 49.0067 26.1932 48.4872C25.9721 47.9676 25.6341 47.5062 25.2055 47.1387C24.8631 46.874 24.472 46.6791 24.0545 46.5652C23.7427 46.474 23.4194 46.4284 23.0946 46.4297C22.8892 46.4282 22.6849 46.4591 22.4892 46.5213C22.4212 46.5381 22.3565 46.5664 22.298 46.605C22.5568 46.5303 22.8254 46.4954 23.0946 46.5014C23.41 46.5129 23.7223 46.5679 24.0226 46.6647C24.422 46.7829 24.7951 46.9762 25.1219 47.2343C25.5261 47.5942 25.8436 48.0409 26.0506 48.541C26.2575 49.0411 26.3485 49.5816 26.3168 50.1219C26.281 50.7589 26.061 51.3719 25.6835 51.8863C25.2772 52.4377 24.7256 52.8652 24.0903 53.121C23.4603 53.3816 22.7665 53.4468 22.0989 53.3082C21.5034 53.1851 20.9463 52.9203 20.4748 52.5362C20.0033 52.1521 19.6314 51.66 19.3905 51.1017C19.2034 50.6342 19.1271 50.1299 19.1675 49.628C19.2129 48.8856 19.5141 48.1819 20.0198 47.6366C20.211 47.4519 20.4132 47.279 20.6252 47.1188Z" fill="#E0E0E0"/>
<path d="M35.8073 39.2485C35.8562 39.5157 35.7974 39.7913 35.6436 40.0152C35.4899 40.2391 35.2537 40.3931 34.9868 40.4434C34.8588 40.4745 34.7259 40.4795 34.5959 40.4583C34.466 40.4371 34.3416 40.39 34.2301 40.3198C34.1187 40.2496 34.0225 40.1577 33.9472 40.0496C33.872 39.9415 33.8192 39.8195 33.792 39.6906C33.743 39.4234 33.8019 39.1478 33.9556 38.9239C34.1094 38.7 34.3455 38.546 34.6124 38.4957C34.7404 38.4652 34.8731 38.4605 35.0029 38.482C35.1327 38.5035 35.2569 38.5507 35.3682 38.6208C35.4795 38.6909 35.5757 38.7825 35.6511 38.8903C35.7265 38.9981 35.7796 39.1199 35.8073 39.2485Z" fill="#263238"/>
<path d="M45.3456 37.6674C45.3945 37.9346 45.3356 38.2103 45.1819 38.4342C45.0282 38.6581 44.792 38.812 44.5251 38.8623C44.3974 38.8934 44.2647 38.8987 44.135 38.8777C44.0052 38.8567 43.881 38.8099 43.7696 38.7401C43.6582 38.6703 43.5619 38.5789 43.4865 38.4713C43.411 38.3637 43.3579 38.242 43.3302 38.1135C43.2835 37.8466 43.3432 37.572 43.4966 37.3486C43.65 37.1252 43.8848 36.9709 44.1507 36.9186C44.2784 36.8875 44.4111 36.8823 44.5408 36.9032C44.6706 36.9242 44.7948 36.971 44.9062 37.0408C45.0176 37.1106 45.1139 37.202 45.1893 37.3096C45.2648 37.4173 45.3179 37.5389 45.3456 37.6674Z" fill="#263238"/>
<path d="M44.5296 34.1888C44.4499 34.3521 43.6056 33.91 42.6178 34.137C41.63 34.364 41.0246 35.1009 40.8932 34.9854C40.8255 34.9336 40.8932 34.6548 41.1362 34.3162C41.4733 33.8799 41.9548 33.5777 42.4943 33.4639C43.0253 33.3528 43.5783 33.4288 44.0596 33.679C44.4061 33.8861 44.5734 34.1251 44.5296 34.1888Z" fill="#263238"/>
<path d="M35.0244 36.121C34.9049 36.2963 33.969 35.7227 32.7621 35.8701C31.5553 36.0175 30.7707 36.7702 30.5994 36.6268C30.5277 36.5671 30.6313 36.2684 30.9977 35.9179C31.4643 35.4742 32.0627 35.1946 32.7024 35.1213C33.3379 35.0462 33.9802 35.1865 34.5266 35.5196C34.9248 35.7586 35.0842 36.0254 35.0244 36.121Z" fill="#263238"/>
<path d="M55.8174 13.0139C55.3869 12.7594 54.9267 12.5588 54.4473 12.4165C53.8836 12.2685 53.2964 12.2319 52.7187 12.3089C51.9567 12.3991 51.2344 12.6982 50.6317 13.1732L50.5361 13.2489L50.4644 13.1493C49.8348 12.3451 48.9157 11.8191 47.9034 11.6836C47.3282 11.5862 46.7386 11.6163 46.1763 11.7718C45.614 11.9274 45.0928 12.2046 44.6494 12.5838L44.5379 12.6873L44.4343 12.5718C43.3057 11.3808 41.7633 10.668 40.1248 10.5804C38.8521 10.5166 37.5914 10.8537 36.5203 11.5442C35.535 12.1688 34.7401 13.0519 34.2222 14.0973L34.1903 14.1689H34.1147C32.8003 14.362 31.5411 14.8287 30.4185 15.5391C29.5394 16.0871 28.7506 16.7683 28.0806 17.5584C27.5063 18.2685 27.0046 19.0344 26.583 19.8446C26.5937 19.7827 26.6125 19.7224 26.6388 19.6653C26.6866 19.5538 26.7463 19.3825 26.8538 19.1675C27.1535 18.5548 27.5209 17.9776 27.9491 17.4469C28.6104 16.6226 29.3998 15.9099 30.2871 15.3359C31.4319 14.5902 32.7213 14.0948 34.0708 13.8822L33.9593 13.9618C34.4929 12.8615 35.3199 11.9298 36.3491 11.2694C37.4749 10.5366 38.803 10.177 40.1447 10.2418C41.8636 10.3324 43.4807 11.0846 44.6574 12.3408H44.4423C44.9195 11.9325 45.4816 11.6356 46.0879 11.4716C46.6941 11.3077 47.3293 11.2808 47.9472 11.3929C49.0239 11.5484 49.9965 12.1205 50.6556 12.986L50.4843 12.9621C51.1277 12.4736 51.8946 12.1743 52.6988 12.0978C53.2988 12.0328 53.9057 12.0897 54.4831 12.2651C54.8461 12.3763 55.1919 12.5371 55.5107 12.7431C55.6247 12.8191 55.7278 12.9102 55.8174 13.0139Z" fill="#263238"/>
<path d="M23.6923 14.9752C23.3435 15.19 22.952 15.3259 22.5452 15.3735C21.9842 15.4687 21.4097 15.4509 20.8557 15.3209C20.3017 15.1909 19.7792 14.9515 19.3191 14.6168C18.6766 14.1356 18.1959 13.4701 17.941 12.709C17.6389 11.831 17.6236 10.8799 17.8972 9.99265C18.2155 8.99839 18.9083 8.16705 19.8289 7.67461C20.814 7.12179 21.9772 6.97873 23.067 7.27632L22.8877 7.34004C23.2873 6.76246 23.8739 6.34042 24.5486 6.14518C25.1106 5.96946 25.7103 5.95292 26.2811 6.09738C26.8386 6.24822 27.3363 6.5666 27.707 7.00946C28.0615 7.41914 28.3046 7.91321 28.4127 8.44409C28.5208 8.97496 28.4904 9.52474 28.3244 10.0404L28.0894 9.87316C28.4354 9.62453 28.8372 9.46472 29.2594 9.40777C29.6817 9.35082 30.1115 9.39848 30.511 9.54656C30.8753 9.67074 31.2088 9.87148 31.4891 10.1353C31.7694 10.3991 31.99 10.7198 32.136 11.076C32.3679 11.6542 32.4385 12.2845 32.3403 12.8996C32.2421 13.5148 31.9788 14.0918 31.5784 14.569C31.0636 15.1828 30.3856 15.6385 29.6228 15.8833C29.4234 15.9487 29.2198 16.0006 29.0134 16.0387C28.9407 16.0476 28.8671 16.0476 28.7943 16.0387C28.7943 16.0148 29.0851 15.9749 29.5909 15.7758C30.3139 15.5019 30.9515 15.0416 31.439 14.4415C31.8027 13.986 32.0381 13.4416 32.1207 12.8646C32.2034 12.2875 32.1303 11.6989 31.909 11.1596C31.7693 10.8449 31.5643 10.5634 31.3074 10.3341C31.0506 10.1047 30.7479 9.93264 30.4194 9.82935C30.0645 9.70023 29.6836 9.65958 29.3095 9.71094C28.9354 9.7623 28.5795 9.90411 28.2726 10.1241L27.8743 10.4347L28.0416 9.9568C28.1856 9.49076 28.2085 8.99573 28.1081 8.51839C28.0078 8.04105 27.7875 7.59714 27.468 7.22852C27.1359 6.84133 26.6943 6.56365 26.2015 6.43194C25.6882 6.30318 25.1494 6.31834 24.6442 6.47576C24.038 6.65285 23.5117 7.0342 23.1546 7.55512L23.0908 7.65469L22.9753 7.62283C21.9679 7.3427 20.8906 7.47002 19.9762 7.97731C19.1203 8.42851 18.4722 9.19359 18.168 10.1121C17.9027 10.9425 17.9027 11.8348 18.168 12.6652C18.3998 13.3843 18.8425 14.017 19.4385 14.4814C20.3217 15.138 21.4265 15.4239 22.5173 15.2779C22.9174 15.2131 23.3107 15.1118 23.6923 14.9752Z" fill="#263238"/>
<path d="M2.66465 29.7455C2.66465 29.7455 2.62084 29.6938 2.55313 29.5783C2.45597 29.4096 2.37464 29.2322 2.31017 29.0485C1.98949 28.1743 1.91573 27.2287 2.097 26.3154C2.27826 25.402 2.70754 24.5563 3.33776 23.8708C3.83045 23.3465 4.4253 22.9286 5.08563 22.643C5.74596 22.3574 6.4578 22.21 7.17726 22.2099L7.0299 22.3135C7.53982 20.8914 8.5452 19.7008 9.86173 18.9599C10.8582 18.4027 11.9915 18.1377 13.1317 18.1952C14.1694 18.2452 15.1783 18.5532 16.0671 19.0913H15.9078C16.8758 18.4221 17.9985 18.0108 19.1697 17.8964C20.0729 17.8039 20.9855 17.885 21.8582 18.1354C22.4186 18.2939 22.9546 18.5284 23.4513 18.8324C23.6325 18.9341 23.7998 19.0586 23.9492 19.2028C23.2765 18.8121 22.5563 18.5096 21.8064 18.3027C20.9516 18.0883 20.0648 18.0316 19.1897 18.1354C18.0653 18.2664 16.9917 18.6772 16.0671 19.3303L15.9914 19.3821L15.9078 19.3343C15.0608 18.8327 14.1031 18.5481 13.1197 18.5058C12.0413 18.4544 10.9697 18.704 10.025 19.2267C8.77452 19.9338 7.81706 21.0635 7.32463 22.413L7.28878 22.5166H7.18124C6.50192 22.5142 5.82907 22.6487 5.20291 22.9122C4.57675 23.1756 4.01013 23.5626 3.5369 24.05C2.78792 24.8332 2.32124 25.8436 2.2106 26.9217C2.13555 27.6318 2.20464 28.3498 2.41373 29.0326C2.56508 29.5105 2.69651 29.7455 2.66465 29.7455Z" fill="#263238"/>
<path d="M35.3883 46.2527C35.4236 45.9008 35.5813 45.5725 35.8339 45.325C36.0865 45.0775 36.4179 44.9266 36.7704 44.8985C37.0299 44.8963 37.2861 44.9576 37.5165 45.077C37.747 45.1964 37.9448 45.3703 38.0927 45.5836C38.2357 45.7994 38.3341 46.0417 38.382 46.2962C38.4298 46.5506 38.4263 46.8121 38.3715 47.0652V47.1767C38.1696 47.467 37.8829 47.6878 37.5507 47.809C37.2185 47.9302 36.8569 47.9459 36.5155 47.8538C36.1762 47.7505 35.8811 47.5369 35.6769 47.2468C35.4727 46.9568 35.3712 46.6069 35.3883 46.2527Z" fill="#EB996E"/>
<path d="M39.1978 47.0785C39.1739 46.9033 38.0268 47.1223 37.0191 46.2819C36.0115 45.4415 35.9039 44.2108 35.7446 44.2347C35.6689 44.2347 35.5734 44.5494 35.657 45.0671C35.7789 45.7419 36.1342 46.3524 36.6607 46.7917C37.1654 47.2124 37.8136 47.4209 38.4689 47.3732C38.9588 47.3374 39.2177 47.1542 39.1978 47.0785Z" fill="#263238"/>
</g>
<rect x="1" y="1" width="62" height="62" rx="31" stroke="#576CBE" stroke-width="2"/>
<defs>
<clipPath id="clip0_5282_69315">
<rect width="64" height="64" rx="32" fill="white"/>
</clipPath>
</defs>
</svg>
