<svg width="64" height="64" viewBox="0 0 64 64" fill="none" xmlns="http://www.w3.org/2000/svg">
<g clip-path="url(#clip0_5282_69314)">
<rect width="64" height="64" rx="32" fill="#E8EBF6"/>
<path d="M30.3409 12.612C30.237 12.1941 30.051 11.8012 29.7937 11.4559C29.5365 11.1107 29.2131 10.8201 28.8424 10.601C28.4717 10.3819 28.0612 10.2388 27.6347 10.1799C27.2082 10.1211 26.7742 10.1476 26.358 10.2581C25.7328 9.38969 24.7965 8.79607 23.7444 8.60092C22.6923 8.40578 21.6054 8.62417 20.7103 9.21059C19.8819 9.80006 19.3043 10.6843 18.5038 11.3096C17.7032 11.9349 16.7991 12.2416 15.9667 12.7593C15.1343 13.2771 14.3735 14.0976 14.3735 15.0734C14.3735 16.1607 15.3374 17.0648 16.365 17.3397C17.3926 17.6145 18.5237 17.4472 19.5951 17.268C19.3911 17.4511 19.2614 17.7026 19.2306 17.975C19.1997 18.2474 19.2699 18.5216 19.4278 18.7456C19.7595 19.1858 20.239 19.4913 20.778 19.6059C21.6591 19.8333 22.5859 19.8135 23.4564 19.5486C24.327 19.2837 25.1077 18.784 25.7128 18.1044L27.5529 16.328C27.9821 16.272 28.3958 16.1308 28.7697 15.9126C29.1435 15.6943 29.4699 15.4035 29.7297 15.0573C29.9895 14.711 30.1774 14.3163 30.2824 13.8964C30.3873 13.4764 30.4072 13.0397 30.3409 12.612Z" fill="#263238"/>
<path d="M26.0863 19.9297C25.9068 20.1235 25.6622 20.2444 25.3992 20.2694C25.1362 20.2943 24.8733 20.2217 24.6605 20.0652C24.4551 19.8981 24.2994 19.678 24.2102 19.4288C24.121 19.1795 24.1018 18.9106 24.1546 18.6512C24.2686 18.1329 24.5603 17.6708 24.9791 17.3448C25.3982 17.0214 25.8625 16.761 26.3572 16.5722C27.1008 16.2394 27.8817 15.9974 28.6832 15.8513C28.9652 15.7892 29.2574 15.7892 29.5395 15.8513C29.6802 15.8865 29.809 15.9586 29.9126 16.0601C30.0162 16.1616 30.0909 16.2888 30.129 16.4288C30.2046 16.8271 29.89 17.1855 29.5913 17.4603C28.483 18.4959 27.2832 19.4291 26.0067 20.2484" fill="#FF725E"/>
<path d="M24.8805 19.857C22.7297 17.9413 18.006 18.7617 17.0262 20.2553C16.1403 19.9482 15.1701 19.9936 14.3167 20.3821C13.4634 20.7707 12.7921 21.4725 12.4419 22.3424L7.49916 24.0032C6.65479 24.282 5.77457 24.5887 5.17316 25.2419C4.57174 25.8951 4.37658 27.0143 4.99791 27.6316C3.25739 28.3047 2.8591 31.033 4.30489 32.1721C4.15444 32.3879 4.04975 32.6322 3.99727 32.89C3.94479 33.1478 3.94562 33.4136 3.99972 33.671C4.05382 33.9285 4.16005 34.1721 4.31185 34.387C4.46365 34.6018 4.65782 34.7833 4.88241 34.9203C3.66305 36.7464 2.76335 38.7667 2.22184 40.8947C1.99481 41.7868 1.84346 42.7666 2.24972 43.5911C2.65597 44.4155 3.84287 44.8815 4.53191 44.2682C4.32032 44.6461 4.22207 45.0769 4.24891 45.5092C4.27575 45.9415 4.42655 46.3569 4.68326 46.7057C3.82694 46.8172 3.71542 48.1674 4.36861 48.725C5.02181 49.2826 5.98567 49.2508 6.838 49.1233C7.69034 48.9959 8.61437 48.8724 9.37112 49.2866C9.37514 49.3918 9.3574 49.4967 9.31903 49.5947C9.28065 49.6927 9.22245 49.7817 9.14808 49.8562C7.80585 51.2103 7.6067 53.3133 8.87326 54.7392C8.98876 54.8706 9.10029 54.9901 9.19588 55.1016C9.76543 55.7508 11.0599 56.2686 11.8684 56.5833C13.9116 57.3798 15.0547 57.0771 17.2373 57.1568C16.7952 58.6145 20.6307 61.3309 24.3269 57.8697C32.5714 59.1721 38.4343 59.3792 46.7386 58.5189C47.9334 58.3995 49.3275 58.0888 49.7417 56.9696C50.7294 57.1209 51.7331 56.5713 52.3545 55.7946C52.9443 54.9871 53.3915 54.0846 53.6768 53.1261C54.6689 52.7219 55.5113 52.0198 56.0877 51.1167C56.6641 50.2136 56.9461 49.1539 56.8949 48.0838C57.5286 47.4634 58.0268 46.7184 58.3579 45.8957C58.689 45.0731 58.8459 44.1907 58.8187 43.3043C60.0773 42.5077 61.4195 39.7914 60.4317 38.027C59.7402 35.6236 58.6569 33.3507 57.2255 31.2999C58.5518 30.8657 58.8705 28.9779 58.1774 27.7671C57.4844 26.5563 56.1621 25.8672 54.9115 25.2459C55.955 25.4092 56.7038 24.051 56.3533 23.0434C56.0028 22.0357 55.011 21.4502 54.0512 20.9922C52.645 20.3418 51.1662 19.8617 49.6461 19.5623C48.973 17.8258 46.4598 16.0335 44.7193 15.4201C37.6297 12.9427 32.8144 12.6321 24.8805 19.8491" fill="#263238"/>
<path d="M24.0827 27.4236L35.4897 22.1742C40.0302 20.9475 44.0091 26.1571 45.0486 30.7374C46.1957 35.8355 47.3906 42.1046 47.3945 46.0436C47.4116 48.2863 46.7948 50.4882 45.6153 52.3957C44.4357 54.3032 42.7413 55.8387 40.7272 56.8253L41.4441 61.549C41.2609 65.269 37.4015 65.7709 37.4015 65.7709C26.8189 67.2087 25.4528 61.3061 25.4528 61.3061L22.1749 31.9402C21.904 30.5383 22.7006 27.7941 24.0827 27.4236Z" fill="#AE7461"/>
<path d="M38.8725 43.382C38.8725 43.3222 39.5018 43.1032 40.5572 42.7965C40.8241 42.7248 41.071 42.6292 41.087 42.434C41.0708 42.1429 40.9635 41.8643 40.7803 41.6375L39.6412 39.7018C38.048 36.9138 36.8531 34.6276 36.9687 34.5639C37.0842 34.5001 38.4622 36.6987 40.0514 39.4708C40.4497 40.1598 40.8042 40.809 41.1547 41.4343C41.3785 41.736 41.4885 42.107 41.4653 42.4818C41.4397 42.5856 41.3904 42.682 41.3213 42.7635C41.2522 42.845 41.1652 42.9095 41.067 42.9518C40.9229 43.0155 40.7719 43.0623 40.617 43.0912C39.5575 43.3302 38.8884 43.4417 38.8725 43.382Z" fill="#263238"/>
<path d="M40.728 56.8249C40.728 56.8249 36.4743 57.032 30.8306 54.7578C30.8306 54.7578 33.1884 59.4576 41.0626 59.1709L40.728 56.8249Z" fill="#56352E"/>
<path d="M32.9468 31.9572C32.8871 32.2639 31.7997 32.2957 30.5571 32.6462C29.3144 32.9967 28.3705 33.4985 28.1673 33.2675C28.0757 33.152 28.2072 32.8693 28.5656 32.5068C29.0561 32.0764 29.6379 31.7632 30.2672 31.5907C30.8964 31.4182 31.5567 31.391 32.198 31.5111C32.6999 31.6226 32.9667 31.8138 32.9468 31.9572Z" fill="#263238"/>
<path d="M43.2345 30.6073C43.0872 30.8782 42.3105 30.7428 41.4263 30.8742C40.5421 31.0056 39.8332 31.2964 39.6061 31.0694C39.5145 30.9578 39.6061 30.699 39.8809 30.4162C40.2771 30.0726 40.766 29.8538 41.2861 29.7872C41.8062 29.7206 42.3344 29.8091 42.8044 30.0418C43.1589 30.2409 43.2983 30.4759 43.2345 30.6073Z" fill="#263238"/>
<path d="M48.9583 34.0635C48.782 32.8412 48.1915 31.7164 47.2855 30.8772C46.7342 30.4953 46.2024 30.0859 45.6923 29.6505C44.6886 28.603 44.6289 26.9939 44.0992 25.6397C43.7487 24.7686 43.1956 23.9936 42.4855 23.3792C41.7755 22.7648 40.9291 22.3286 40.0167 22.1069C38.4992 21.7524 36.8543 22.0113 35.4045 21.4377C34.3331 21.0395 33.4609 20.1752 32.3656 19.8167C30.2308 19.1237 27.9844 20.4301 26.216 21.8082C26.0089 23.3694 27.1201 24.5763 28.2075 25.7353C28.7475 26.3127 29.4065 26.7659 30.1388 27.0637C30.8712 27.3614 31.6595 27.4966 32.4492 27.4599C33.672 27.3922 35.058 26.958 36.0099 27.7267C36.9618 28.4954 36.8463 30.1802 37.7027 31.1401C38.9254 32.5142 41.2594 31.6698 42.9441 32.4146C44.2426 32.9881 44.9356 34.406 45.6764 35.6009C46.4172 36.7958 47.6679 37.9906 49.0499 37.7795C49.1623 36.5415 49.1316 35.2945 48.9583 34.0635Z" fill="#263238"/>
<path d="M29.5443 24.2031C25.9812 24.5574 22.5202 25.5974 19.3521 27.266C18.4121 27.7598 17.4483 28.3652 16.9902 29.3251C16.5919 30.1695 16.6397 31.1533 16.7552 32.0813C17.1217 34.9888 18.6989 38.4181 20.1128 40.983L23.9961 42.7435C26.7164 41.7637 24.8843 37.0758 24.4741 34.6702C25.3962 34.1142 26.1441 33.3108 26.6326 32.3512C27.1212 31.3916 27.331 30.3143 27.2382 29.2415C27.9771 28.6294 28.5682 27.8585 28.9675 26.9861C29.3668 26.1137 29.564 25.1624 29.5443 24.2031Z" fill="#263238"/>
<path d="M23.8348 41.6921C23.5361 40.0393 21.4451 39.9476 20.1227 40.9712C19.3939 41.5289 18.9279 42.5286 19.2107 44.285C20.0072 48.9649 24.5477 47.1885 24.5358 47.073C24.5238 46.9575 24.1853 43.6278 23.8348 41.6921Z" fill="#AE7461"/>
<path d="M22.7989 45.5374C22.775 45.5374 22.7272 45.6051 22.5998 45.6928C22.4201 45.8109 22.2013 45.8538 21.9904 45.8123C21.4647 45.7167 20.915 45.0157 20.7477 44.1633C20.6663 43.7681 20.6758 43.3595 20.7756 42.9685C20.7944 42.815 20.8497 42.6683 20.9371 42.5408C21.0244 42.4132 21.1412 42.3086 21.2775 42.2356C21.3671 42.195 21.4681 42.1867 21.5632 42.2121C21.6584 42.2375 21.7417 42.2951 21.7992 42.375C21.8829 42.4945 21.8709 42.5941 21.8948 42.5981C21.9187 42.602 21.9824 42.5025 21.8948 42.3153C21.8501 42.2038 21.7686 42.1111 21.6638 42.0524C21.5169 41.9785 21.347 41.9642 21.1898 42.0126C21.0064 42.0866 20.8449 42.2063 20.7208 42.3604C20.5967 42.5145 20.5141 42.6978 20.4809 42.8928C20.3499 43.3324 20.3293 43.7975 20.4211 44.247C20.6163 45.183 21.2496 45.9835 21.9585 46.0632C22.0904 46.0782 22.224 46.0634 22.3495 46.02C22.4749 45.9766 22.589 45.9056 22.6834 45.8123C22.8109 45.649 22.8149 45.5414 22.7989 45.5374Z" fill="#56352E"/>
<path d="M22.5011 47.5703C22.5011 47.5703 22.5011 47.5703 22.5011 47.634C22.4958 47.6979 22.4824 47.7608 22.4612 47.8212C22.3641 48.0554 22.1899 48.2494 21.9674 48.3709C21.6216 48.5827 21.2346 48.7185 20.8322 48.7692C20.5791 48.8059 20.323 48.8179 20.0675 48.805C19.777 48.798 19.4895 48.7456 19.2152 48.6497L19.2709 48.6138C19.2518 49.0231 19.1267 49.4204 18.908 49.7668C18.6892 50.1132 18.3842 50.3968 18.0228 50.5899C17.6615 50.7831 17.2562 50.879 16.8466 50.8684C16.437 50.8579 16.0372 50.7411 15.6863 50.5296L15.766 50.5057C15.6453 50.7247 15.4461 50.8899 15.2084 50.9677C14.9588 51.0513 14.69 51.0596 14.4357 50.9916C14.1708 50.9271 13.9352 50.7756 13.7666 50.5615C13.5964 50.3429 13.4828 50.0857 13.436 49.8127C13.3535 49.2473 13.4719 48.6708 13.7706 48.1837C14.083 47.69 14.4549 47.2365 14.8778 46.8335V46.941C14.6677 46.84 14.4811 46.696 14.3301 46.5183C14.1792 46.3406 14.0673 46.1332 14.0016 45.9094C13.8561 45.4532 13.8478 44.9644 13.9777 44.5035C14.1247 44.0413 14.3586 43.6114 14.6667 43.2369C14.9797 42.8589 15.3163 42.5011 15.6744 42.1655V42.2691C15.4845 42.1067 15.331 41.906 15.2239 41.6802C15.1169 41.4544 15.0586 41.2086 15.0531 40.9587C15.0267 40.4448 15.1573 39.935 15.4275 39.497C15.9452 38.6566 16.7737 38.1269 17.5424 37.629L17.5105 37.7166C17.3329 37.2396 17.2735 36.7267 17.3374 36.2217C17.4014 35.7167 17.5867 35.2348 17.8776 34.817C18.1684 34.3993 18.5562 34.0583 19.0076 33.8232C19.4591 33.588 19.9608 33.4658 20.4698 33.4669L20.4061 33.5545C20.2841 33.1575 20.2547 32.7378 20.3203 32.3276C20.3859 31.9175 20.5447 31.5279 20.7844 31.1887C20.9926 30.8662 21.268 30.5924 21.5918 30.3862C21.9156 30.1799 22.2801 30.0461 22.6604 29.9938L22.6086 30.0576C22.5742 29.6554 22.6316 29.2507 22.7765 28.874C22.9214 28.4972 23.15 28.1584 23.445 27.8829C23.6945 27.6324 23.9922 27.435 24.3201 27.3029C24.648 27.1708 24.9993 27.1066 25.3528 27.1142L25.305 27.166C25.2797 26.7353 25.3633 26.3052 25.548 25.9153C25.7058 25.5628 25.9242 25.2406 26.1932 24.9634C26.593 24.5087 27.1323 24.1991 27.7266 24.0832L27.9019 24.0514H28.0691C28.17 24.0454 28.271 24.0454 28.3718 24.0514C28.5277 24.0636 28.6822 24.0889 28.8339 24.127L29.1087 24.2107C29.1724 24.2107 29.2043 24.2386 29.2003 24.2425L29.1047 24.2226L28.8299 24.1509C28.6771 24.1214 28.5229 24.1001 28.3679 24.0872C28.2763 24.0872 28.1767 24.0872 28.0691 24.0872H27.9058L27.7346 24.1231C27.1565 24.2438 26.6343 24.5517 26.249 24.9993C25.9999 25.2749 25.798 25.5898 25.6515 25.9313C25.4801 26.3053 25.4022 26.7153 25.4245 27.1261V27.1819H25.3727C25.0111 27.1879 24.6546 27.2678 24.3251 27.4168C23.9956 27.5658 23.7001 27.7807 23.4568 28.0482C23.2135 28.3158 23.0276 28.6303 22.9105 28.9725C22.7934 29.3146 22.7476 29.6771 22.7759 30.0376V30.0974H22.7161C22.3522 30.1506 22.0041 30.2817 21.6955 30.4817C21.3869 30.6817 21.125 30.946 20.9278 31.2564C20.7013 31.5798 20.5516 31.9506 20.4902 32.3406C20.4288 32.7305 20.4572 33.1294 20.5733 33.5067L20.6052 33.5983H20.5096C20.0233 33.5986 19.5442 33.7166 19.1133 33.9422C18.6824 34.1677 18.3124 34.4942 18.035 34.8937C17.7576 35.2932 17.5809 35.7538 17.5201 36.2364C17.4593 36.7189 17.5161 37.209 17.6858 37.6649V37.7206L17.638 37.7525C16.8732 38.2464 16.0448 38.7681 15.5708 39.5727C15.3146 39.9853 15.1883 40.4654 15.2084 40.9508C15.2147 41.1783 15.2682 41.402 15.3655 41.6077C15.4629 41.8134 15.602 41.9966 15.774 42.1456L15.8377 42.1934L15.7779 42.2492C15.077 42.9263 14.376 43.6352 14.1171 44.5274C13.9875 44.9586 13.9875 45.4185 14.1171 45.8497C14.1755 46.0555 14.2766 46.2466 14.4139 46.4106C14.5511 46.5746 14.7214 46.7079 14.9137 46.8016L15.0013 46.8414L14.9336 46.9092C14.5186 47.304 14.1535 47.748 13.8462 48.2315C13.5579 48.6917 13.4422 49.2393 13.5197 49.7768C13.5472 50.0269 13.6481 50.2632 13.8097 50.4559C13.9713 50.6487 14.1864 50.7894 14.4278 50.8602C14.6473 50.9299 14.8838 50.9246 15.1001 50.8453C15.3163 50.766 15.5001 50.6172 15.6226 50.4221L15.6465 50.3663L15.7023 50.3982C16.0664 50.611 16.4822 50.7192 16.9039 50.7108C17.3255 50.7023 17.7367 50.5776 18.092 50.3504C18.3992 50.1623 18.6585 49.9053 18.8493 49.5998C19.0401 49.2943 19.1572 48.9485 19.1913 48.5899V48.5382H19.2391C19.5055 48.6325 19.785 48.6849 20.0675 48.6935C20.3186 48.71 20.5707 48.702 20.8203 48.6696C21.2149 48.6291 21.5971 48.5085 21.9435 48.3151C22.1626 48.2024 22.3369 48.0184 22.4373 47.7934C22.4891 47.6659 22.4931 47.5663 22.5011 47.5703Z" fill="#455A64"/>
<path d="M3.97603 44.5681C3.89641 44.4883 3.82564 44.4002 3.76494 44.3053C3.58763 44.0306 3.4671 43.7231 3.41046 43.4011C3.31303 42.8824 3.39005 42.346 3.62952 41.8757C3.79118 41.5632 4.01644 41.288 4.29082 41.0679C4.5652 40.8477 4.88262 40.6873 5.22268 40.5972L5.19081 40.6569C4.93861 39.8687 4.99702 39.0138 5.35411 38.2672C5.53737 37.8523 5.80926 37.4825 6.15069 37.1838C6.53172 36.8942 6.93987 36.6421 7.36945 36.4311C7.5815 36.3128 7.7759 36.1653 7.94697 35.993C8.11462 35.8139 8.23866 35.5985 8.30942 35.3637C8.46873 34.8897 8.4767 34.348 8.68381 33.8303C8.91023 33.3025 9.28884 32.8543 9.77128 32.5429C10.2537 32.2314 10.818 32.0709 11.3922 32.0818L11.3205 32.1694C11.1748 31.6064 11.1603 31.0174 11.278 30.4479C11.3958 29.8784 11.6428 29.3435 11.9998 28.8845C12.3569 28.4255 12.8146 28.0545 13.3376 27.8002C13.8606 27.5459 14.435 27.4151 15.0166 27.4178L14.9489 27.5014C14.8105 26.8806 14.8525 26.2331 15.0698 25.6353C15.2871 25.0375 15.6706 24.5142 16.1754 24.1271C16.6801 23.74 17.2849 23.5052 17.9186 23.4503C18.5523 23.3954 19.1885 23.5227 19.7523 23.8173H19.6766C20.0962 23.3137 20.6191 22.9062 21.21 22.6224C21.7314 22.3604 22.2842 22.1663 22.8549 22.0449C23.778 21.8323 24.7319 21.7878 25.6708 21.9135C26.2728 21.9866 26.8592 22.156 27.4074 22.4153C27.5465 22.4823 27.6797 22.5609 27.8057 22.6503C27.8973 22.706 27.9451 22.7419 27.9451 22.7419C27.9451 22.7419 27.7499 22.6264 27.3755 22.4472C26.8263 22.2057 26.2434 22.0499 25.6469 21.9851C24.7157 21.8708 23.7716 21.9234 22.8589 22.1405C22.2974 22.2648 21.754 22.4603 21.2419 22.722C20.6681 22.9991 20.1613 23.3972 19.7562 23.889L19.7244 23.9288L19.6806 23.9049C19.1358 23.6235 18.5218 23.5041 17.9113 23.561C17.3008 23.6179 16.7194 23.8487 16.236 24.226C15.7527 24.6033 15.3877 25.1112 15.1843 25.6897C14.9808 26.2681 14.9475 26.8927 15.0883 27.4895V27.5771H15.0007C14.4439 27.5782 13.8948 27.7063 13.395 27.9515C12.8953 28.1968 12.458 28.5529 12.1166 28.9926C11.7752 29.4324 11.5386 29.9442 11.4248 30.4892C11.311 31.0342 11.323 31.5979 11.4599 32.1375L11.4838 32.2331H11.3882C10.8425 32.2212 10.3057 32.3726 9.84654 32.6678C9.38742 32.963 9.02693 33.3886 8.81126 33.89C8.61212 34.3759 8.60017 34.9136 8.43687 35.4154C8.35663 35.667 8.22047 35.8971 8.03858 36.0885C7.86073 36.2705 7.65668 36.4249 7.43318 36.5466C7.0116 36.7522 6.61137 36.9991 6.23832 37.2834C5.90049 37.568 5.62867 37.9227 5.44174 38.323C5.09647 39.0399 5.03529 39.8609 5.27047 40.6211V40.6689H5.22268C4.89529 40.7553 4.58933 40.9085 4.32405 41.119C4.05878 41.3294 3.83994 41.5925 3.6813 41.8916C3.44512 42.3472 3.36401 42.8674 3.45029 43.3733C3.49908 43.6906 3.61007 43.9951 3.77689 44.2694C3.90434 44.4845 3.98002 44.5641 3.97603 44.5681Z" fill="#455A64"/>
<path d="M49.1885 40.7309C49.1491 40.6734 49.1233 40.6076 49.1129 40.5386C49.1026 40.4697 49.108 40.3992 49.1287 40.3326C49.1658 40.1735 49.2457 40.0275 49.3597 39.9104C49.5156 39.7536 49.7029 39.6314 49.9094 39.552C50.1602 39.452 50.396 39.3179 50.6104 39.1537C50.8388 38.9421 50.9937 38.663 51.0525 38.3571C51.1222 37.9954 51.1222 37.6236 51.0525 37.2618C50.9887 36.8635 50.8812 36.4653 50.8334 36.0311C50.7219 35.139 50.9967 34.187 51.1162 33.1754C51.1821 32.654 51.1442 32.1247 51.0047 31.6181C50.9358 31.3533 50.8104 31.1065 50.6372 30.8948C50.4639 30.683 50.2469 30.5113 50.001 30.3913C49.4462 30.197 48.8697 30.0713 48.2844 30.017C47.9738 29.9695 47.6735 29.8698 47.3962 29.7222C47.1152 29.5582 46.8808 29.3251 46.7151 29.0451C46.4167 28.4718 46.1804 27.8683 46.0101 27.2449C45.9107 26.9394 45.7657 26.6507 45.58 26.3885C45.3917 26.1312 45.1223 25.9447 44.8153 25.8588C44.3776 25.7921 43.9333 25.7814 43.4929 25.827C43.2623 25.8361 43.0319 25.8051 42.8119 25.7354C42.5898 25.6559 42.3931 25.5184 42.2423 25.3371C41.9794 24.9863 41.7676 24.6001 41.613 24.19C41.4479 23.8106 41.205 23.47 40.9001 23.1903C40.6103 22.9237 40.2687 22.7196 39.8967 22.5908C39.5246 22.462 39.13 22.4111 38.7374 22.4415C38.0009 22.5075 37.3159 22.8471 36.8176 23.3934L36.7619 23.4571L36.718 23.3854C36.3858 22.8366 35.9398 22.3653 35.4101 22.0032C34.8804 21.6412 34.2793 21.3968 33.6472 21.2865C33.1185 21.1984 32.5778 21.2119 32.0541 21.3263C31.6089 21.4201 31.184 21.5928 30.7995 21.8361C30.2601 22.1801 29.8314 22.6725 29.5648 23.254C29.4927 23.4193 29.4328 23.5897 29.3855 23.7638C29.3855 23.8156 29.3537 23.8554 29.3417 23.8873C29.3298 23.9192 29.3417 23.9311 29.3417 23.9271C29.3402 23.9139 29.3402 23.9005 29.3417 23.8873C29.3417 23.8514 29.3417 23.8116 29.3736 23.7598C29.4166 23.5963 29.4725 23.4365 29.5409 23.2819C29.7992 22.6826 30.2269 22.1717 30.7716 21.8122C31.1612 21.5606 31.5929 21.3811 32.0461 21.2825C32.5788 21.157 33.1311 21.1381 33.6711 21.2267C34.3193 21.3369 34.9363 21.5848 35.4805 21.9538C36.0247 22.3227 36.4834 22.8042 36.8256 23.3655H36.726C37.2408 22.7941 37.9517 22.4372 38.7175 22.3658C39.3456 22.3138 39.9743 22.4588 40.5161 22.7808C41.0579 23.1027 41.4859 23.5856 41.7405 24.1621C41.8907 24.5604 42.0958 24.9358 42.3498 25.2773C42.4959 25.4269 42.6738 25.5414 42.8704 25.6125C43.067 25.6835 43.2771 25.7092 43.485 25.6876C43.9387 25.6422 44.3964 25.6542 44.8471 25.7234C45.1835 25.8197 45.4788 26.024 45.6875 26.3049C45.8825 26.5783 46.033 26.8807 46.1336 27.2011C46.3042 27.8137 46.5364 28.4075 46.8266 28.9734C46.9813 29.2359 47.2025 29.453 47.4679 29.6027C47.732 29.7423 48.0173 29.8379 48.3122 29.8855C48.9096 29.9437 49.4971 30.0775 50.0607 30.2838C50.3306 30.4082 50.5658 30.5969 50.7458 30.8334C50.9248 31.06 51.0598 31.318 51.1441 31.5942C51.2869 32.1125 51.3248 32.6542 51.2556 33.1873C51.1281 34.2109 50.8573 35.1469 50.9529 36.0152C51.0007 36.4453 51.1042 36.8516 51.16 37.2459C51.2319 37.6168 51.2319 37.9981 51.16 38.3691C51.0987 38.698 50.9308 38.9976 50.6821 39.2214C50.4617 39.3874 50.219 39.5215 49.9611 39.6197C49.7592 39.6922 49.5747 39.8062 49.4195 39.9543C49.3078 40.0643 49.2268 40.2016 49.1845 40.3526C49.1433 40.4755 49.1447 40.6088 49.1885 40.7309Z" fill="#455A64"/>
<path d="M57.5094 32.4055C57.4881 32.381 57.4694 32.3543 57.4537 32.3258L57.2944 32.0749C57.151 31.8479 56.9478 31.5213 56.6929 31.1071C56.438 30.6929 56.1274 30.1631 55.7171 29.5976C55.2802 28.9366 54.666 28.4121 53.9447 28.0841C53.5465 27.9208 53.0844 27.8331 52.6224 27.6858C52.3806 27.6135 52.149 27.5105 51.9334 27.3791C51.7066 27.2418 51.5177 27.0502 51.3838 26.8215C51.1049 26.3555 51.0372 25.8019 50.7983 25.316C50.6812 25.0694 50.4924 24.8639 50.2566 24.7265C50.007 24.5964 49.738 24.5076 49.46 24.4636C49.1641 24.4156 48.8733 24.3396 48.5917 24.2366C48.2943 24.1207 48.0418 23.9127 47.8708 23.6431C47.5865 23.0807 47.3814 22.4815 47.2615 21.8628C47.1864 21.5625 47.0508 21.2806 46.8632 21.0344C46.6589 20.8039 46.3735 20.6612 46.0666 20.6361C45.4333 20.5803 44.7921 20.8711 44.0751 20.8392C43.7208 20.8128 43.3842 20.6732 43.1153 20.4409C42.8608 20.2207 42.6323 19.9721 42.4342 19.7001C42.2451 19.4369 42.0416 19.1843 41.8248 18.9433C41.628 18.7164 41.3774 18.5425 41.096 18.4375C40.5025 18.2424 39.9011 18.4375 39.3156 18.6526C38.7473 18.8999 38.1308 19.017 37.5114 18.9951C36.9384 18.9181 36.3839 18.7386 35.8744 18.4654C35.4046 18.2129 34.9109 18.0074 34.4007 17.852C33.4627 17.6512 32.4863 17.7301 31.5928 18.0791C30.8567 18.3656 30.195 18.8149 29.6571 19.3934C29.2515 19.8327 28.9169 20.3326 28.6654 20.875C28.5109 21.2197 28.3856 21.5768 28.291 21.9425C28.2591 22.0619 28.2312 22.1575 28.2113 22.2292C28.2062 22.2627 28.1954 22.295 28.1794 22.3248C28.1841 22.2913 28.1907 22.258 28.1994 22.2252L28.2631 21.9345C28.346 21.5633 28.4634 21.2006 28.6136 20.8511C28.861 20.2987 29.1929 19.7881 29.5974 19.3376C30.1488 18.7427 30.8304 18.2833 31.5888 17.9954C32.5005 17.6308 33.4999 17.5449 34.4605 17.7485C34.98 17.9029 35.483 18.1083 35.962 18.3618C36.4583 18.6263 36.9978 18.8003 37.5552 18.8756C38.1462 18.8827 38.7318 18.7617 39.2718 18.5212C39.5629 18.4084 39.8626 18.3192 40.1679 18.2543C40.4906 18.1893 40.8243 18.2044 41.1398 18.2981C41.4536 18.4101 41.7344 18.5991 41.9563 18.8478C42.1787 19.0912 42.3861 19.3479 42.5776 19.6164C42.7679 19.8802 42.9885 20.1208 43.2348 20.3334C43.4831 20.5382 43.7897 20.6595 44.111 20.6799C44.7682 20.7117 45.4094 20.421 46.1024 20.4807C46.4487 20.5104 46.7699 20.6731 46.9986 20.9348C47.2038 21.1963 47.3529 21.4973 47.4367 21.819C47.5546 22.4242 47.7528 23.0109 48.0262 23.5635C48.1769 23.808 48.3995 23.9999 48.6634 24.1131C48.9373 24.2127 49.2201 24.286 49.5078 24.3322C49.8001 24.3805 50.0826 24.476 50.3442 24.615C50.5968 24.7683 50.7968 24.9947 50.9178 25.2642C51.1607 25.778 51.2284 26.3276 51.4913 26.7618C51.7591 27.1711 52.1716 27.4642 52.6463 27.5822C53.1004 27.7296 53.5624 27.8172 53.9766 27.9805C54.7105 28.3213 55.3332 28.8625 55.7729 29.5418C56.1712 30.1193 56.4739 30.649 56.7328 31.0712L57.3103 32.051L57.4577 32.3099C57.48 32.3388 57.4974 32.3711 57.5094 32.4055Z" fill="#455A64"/>
<path d="M51.9347 28.0381C51.961 28.0254 51.9893 28.0173 52.0183 28.0142C52.1055 28 52.195 28.0096 52.2772 28.0421C52.4303 28.1168 52.5621 28.229 52.6603 28.3683C52.7584 28.5075 52.8198 28.6693 52.8388 28.8387C52.8675 29.0773 52.8608 29.3189 52.8189 29.5556C52.7692 29.8289 52.7598 30.108 52.791 30.384C52.8584 30.6946 53.0068 30.9818 53.2211 31.2164C53.4362 31.4793 53.6991 31.7302 53.9261 32.0489C54.058 32.2148 54.1494 32.4092 54.1929 32.6166C54.2365 32.824 54.2311 33.0388 54.177 33.2437C54.0735 33.642 53.8186 34.0403 53.723 34.4386C53.6487 34.8842 53.747 35.3414 53.9978 35.7171C54.2288 36.1154 54.5395 36.5137 54.7745 36.9717C54.9063 37.1989 54.9941 37.4489 55.0334 37.7086C55.0581 37.9776 55.0269 38.2488 54.9418 38.5051C54.7367 39.0081 54.4875 39.492 54.197 39.9509C53.8986 40.4071 53.7821 40.9584 53.8704 41.4963C54.0605 42.0331 54.3118 42.5463 54.6191 43.0257C54.7621 43.2878 54.8553 43.5741 54.894 43.8701C54.9178 44.1664 54.8756 44.4643 54.7705 44.7423C54.5383 45.2576 54.2469 45.7442 53.9022 46.1921C53.5828 46.6159 53.355 47.1015 53.2331 47.618C53.1586 48.1316 53.0508 48.6398 52.9105 49.1394C52.8273 49.3838 52.6913 49.6068 52.5122 49.7926C52.3273 49.9612 52.1143 50.096 51.8829 50.1909C51.6638 50.2945 51.4488 50.3821 51.2576 50.4976C51.0701 50.6172 50.9011 50.7634 50.7557 50.9317C50.4881 51.2661 50.2658 51.6344 50.0946 52.027C49.9193 52.4014 49.756 52.7718 49.5688 53.1064C49.2291 53.7202 48.7014 54.2088 48.0633 54.5004C47.587 54.7215 47.0669 54.8317 46.5418 54.823C46.2111 54.8185 45.8832 54.762 45.57 54.6557C45.4619 54.617 45.3567 54.5704 45.2554 54.5163C45.6644 54.681 46.101 54.7661 46.5418 54.7673C47.0558 54.7643 47.5629 54.6488 48.0275 54.4287C48.6455 54.1379 49.1538 53.6562 49.4772 53.0546C49.6644 52.724 49.8198 52.3616 49.995 51.9792C50.1661 51.575 50.3912 51.1959 50.6641 50.8521C50.8175 50.676 50.9944 50.5218 51.1899 50.3941C51.3975 50.276 51.6116 50.1696 51.8311 50.0754C52.049 49.9856 52.2497 49.859 52.4246 49.701C52.5923 49.5307 52.7202 49.3253 52.799 49.0996C52.9364 48.6051 53.0416 48.1022 53.1136 47.5941C53.2381 47.059 53.4727 46.5557 53.8027 46.1164C54.1387 45.6778 54.4234 45.202 54.651 44.6985C54.7489 44.445 54.7883 44.1728 54.7665 43.9019C54.7289 43.623 54.6412 43.3531 54.5076 43.1054C54.1918 42.6191 53.9363 42.0961 53.7469 41.5481C53.677 41.2629 53.677 40.965 53.7469 40.6798C53.8234 40.4021 53.933 40.1347 54.0735 39.8832C54.3603 39.4317 54.6068 38.956 54.8103 38.4613C54.8924 38.2222 54.9223 37.9682 54.8979 37.7165C54.8678 37.471 54.7921 37.2333 54.6749 37.0155C54.4519 36.5734 54.1452 36.1831 53.9062 35.7609C53.6413 35.3567 53.5416 34.8664 53.6274 34.3908C53.7349 33.9368 53.9898 33.5703 54.0894 33.1959C54.1372 33.0053 54.1395 32.806 54.0959 32.6143C54.0523 32.4226 53.9641 32.2439 53.8385 32.0927C53.6234 31.786 53.3605 31.5271 53.1455 31.2603C52.9231 31.0115 52.7718 30.7074 52.7074 30.38C52.6776 30.0955 52.691 29.8082 52.7472 29.5277C52.7905 29.298 52.8013 29.0634 52.779 28.8307C52.7599 28.6712 52.703 28.5186 52.6129 28.3855C52.5229 28.2525 52.4023 28.1429 52.2613 28.066C52.1574 28.0253 52.0439 28.0157 51.9347 28.0381Z" fill="#455A64"/>
<path d="M19.6252 47.1188C19.3787 47.2418 19.1551 47.4062 18.9641 47.6047C18.4298 48.1389 18.0999 48.8437 18.0321 49.5961C17.9831 50.1197 18.0567 50.6474 18.2471 51.1375C18.4726 51.6982 18.829 52.1966 19.2867 52.5913C19.7861 53.0364 20.3928 53.3438 21.0471 53.4834C21.7512 53.6346 22.4847 53.5679 23.1501 53.2923C23.8177 53.0237 24.3971 52.574 24.8229 51.9938C25.2186 51.4511 25.447 50.8046 25.4801 50.1338C25.5124 49.5702 25.4143 49.0067 25.1932 48.4872C24.9721 47.9676 24.6341 47.5062 24.2055 47.1387C23.8631 46.874 23.472 46.6791 23.0545 46.5652C22.7427 46.474 22.4194 46.4284 22.0946 46.4297C21.8892 46.4282 21.6849 46.4591 21.4892 46.5213C21.4212 46.5381 21.3565 46.5664 21.298 46.605C21.5568 46.5303 21.8254 46.4954 22.0946 46.5014C22.41 46.5129 22.7223 46.5679 23.0226 46.6647C23.422 46.7829 23.7951 46.9762 24.1219 47.2343C24.5261 47.5942 24.8436 48.0409 25.0506 48.541C25.2575 49.0411 25.3485 49.5816 25.3168 50.1219C25.281 50.7589 25.061 51.3719 24.6835 51.8863C24.2772 52.4377 23.7256 52.8652 23.0903 53.121C22.4603 53.3816 21.7665 53.4468 21.0989 53.3082C20.5034 53.1851 19.9463 52.9203 19.4748 52.5362C19.0033 52.1521 18.6314 51.66 18.3905 51.1017C18.2034 50.6342 18.1271 50.1299 18.1675 49.628C18.2129 48.8856 18.5141 48.1819 19.0198 47.6366C19.211 47.4519 19.4132 47.279 19.6252 47.1188Z" fill="#E0E0E0"/>
<path d="M34.8073 39.2485C34.8562 39.5157 34.7974 39.7913 34.6436 40.0152C34.4899 40.2391 34.2537 40.3931 33.9868 40.4434C33.8588 40.4745 33.7259 40.4795 33.5959 40.4583C33.466 40.4371 33.3416 40.39 33.2301 40.3198C33.1187 40.2496 33.0225 40.1577 32.9472 40.0496C32.872 39.9415 32.8192 39.8195 32.792 39.6906C32.743 39.4234 32.8019 39.1478 32.9556 38.9239C33.1094 38.7 33.3455 38.546 33.6124 38.4957C33.7404 38.4652 33.8731 38.4605 34.0029 38.482C34.1327 38.5035 34.2569 38.5507 34.3682 38.6208C34.4795 38.6909 34.5757 38.7825 34.6511 38.8903C34.7265 38.9981 34.7796 39.1199 34.8073 39.2485Z" fill="#263238"/>
<path d="M44.3456 37.6674C44.3945 37.9346 44.3356 38.2103 44.1819 38.4342C44.0282 38.6581 43.792 38.812 43.5251 38.8623C43.3974 38.8934 43.2647 38.8987 43.135 38.8777C43.0052 38.8567 42.881 38.8099 42.7696 38.7401C42.6582 38.6703 42.5619 38.5789 42.4865 38.4713C42.411 38.3637 42.3579 38.242 42.3302 38.1135C42.2835 37.8466 42.3432 37.572 42.4966 37.3486C42.65 37.1252 42.8848 36.9709 43.1507 36.9186C43.2784 36.8875 43.4111 36.8823 43.5408 36.9032C43.6706 36.9242 43.7948 36.971 43.9062 37.0408C44.0176 37.1106 44.1139 37.202 44.1893 37.3096C44.2648 37.4173 44.3179 37.5389 44.3456 37.6674Z" fill="#263238"/>
<path d="M43.5296 34.1888C43.4499 34.3521 42.6056 33.91 41.6178 34.137C40.63 34.364 40.0246 35.1009 39.8932 34.9854C39.8255 34.9336 39.8932 34.6548 40.1362 34.3162C40.4733 33.8799 40.9548 33.5777 41.4943 33.4639C42.0253 33.3528 42.5783 33.4288 43.0596 33.679C43.4061 33.8861 43.5734 34.1251 43.5296 34.1888Z" fill="#263238"/>
<path d="M34.0244 36.121C33.9049 36.2963 32.969 35.7227 31.7621 35.8701C30.5553 36.0175 29.7707 36.7702 29.5994 36.6268C29.5277 36.5671 29.6313 36.2684 29.9977 35.9179C30.4643 35.4742 31.0627 35.1946 31.7024 35.1213C32.3379 35.0462 32.9802 35.1865 33.5266 35.5196C33.9248 35.7586 34.0842 36.0254 34.0244 36.121Z" fill="#263238"/>
<path d="M54.8174 13.0139C54.3869 12.7594 53.9267 12.5588 53.4473 12.4165C52.8836 12.2685 52.2964 12.2319 51.7187 12.3089C50.9567 12.3991 50.2344 12.6982 49.6317 13.1732L49.5361 13.2489L49.4644 13.1493C48.8348 12.3451 47.9157 11.8191 46.9034 11.6836C46.3282 11.5862 45.7386 11.6163 45.1763 11.7718C44.614 11.9274 44.0928 12.2046 43.6494 12.5838L43.5379 12.6873L43.4343 12.5718C42.3057 11.3808 40.7633 10.668 39.1248 10.5804C37.8521 10.5166 36.5914 10.8537 35.5203 11.5442C34.535 12.1688 33.7401 13.0519 33.2222 14.0973L33.1903 14.1689H33.1147C31.8003 14.362 30.5411 14.8287 29.4185 15.5391C28.5394 16.0871 27.7506 16.7683 27.0806 17.5584C26.5063 18.2685 26.0046 19.0344 25.583 19.8446C25.5937 19.7827 25.6125 19.7224 25.6388 19.6653C25.6866 19.5538 25.7463 19.3825 25.8538 19.1675C26.1535 18.5548 26.5209 17.9776 26.9491 17.4469C27.6104 16.6226 28.3998 15.9099 29.2871 15.3359C30.4319 14.5902 31.7213 14.0948 33.0708 13.8822L32.9593 13.9618C33.4929 12.8615 34.3199 11.9298 35.3491 11.2694C36.4749 10.5366 37.803 10.177 39.1447 10.2418C40.8636 10.3324 42.4807 11.0846 43.6574 12.3408H43.4423C43.9195 11.9325 44.4816 11.6356 45.0879 11.4716C45.6941 11.3077 46.3293 11.2808 46.9472 11.3929C48.0239 11.5484 48.9965 12.1205 49.6556 12.986L49.4843 12.9621C50.1277 12.4736 50.8946 12.1743 51.6988 12.0978C52.2988 12.0328 52.9057 12.0897 53.4831 12.2651C53.8461 12.3763 54.1919 12.5371 54.5107 12.7431C54.6247 12.8191 54.7278 12.9102 54.8174 13.0139Z" fill="#263238"/>
<path d="M22.6923 14.9752C22.3435 15.19 21.952 15.3259 21.5452 15.3735C20.9842 15.4687 20.4097 15.4509 19.8557 15.3209C19.3017 15.1909 18.7792 14.9515 18.3191 14.6168C17.6766 14.1356 17.1959 13.4701 16.941 12.709C16.6389 11.831 16.6236 10.8799 16.8972 9.99265C17.2155 8.99839 17.9083 8.16705 18.8289 7.67461C19.814 7.12179 20.9772 6.97873 22.067 7.27632L21.8877 7.34004C22.2873 6.76246 22.8739 6.34042 23.5486 6.14518C24.1106 5.96946 24.7103 5.95292 25.2811 6.09738C25.8386 6.24822 26.3363 6.5666 26.707 7.00946C27.0615 7.41914 27.3046 7.91321 27.4127 8.44409C27.5208 8.97496 27.4904 9.52474 27.3244 10.0404L27.0894 9.87316C27.4354 9.62453 27.8372 9.46472 28.2594 9.40777C28.6817 9.35082 29.1115 9.39848 29.511 9.54656C29.8753 9.67074 30.2088 9.87148 30.4891 10.1353C30.7694 10.3991 30.99 10.7198 31.136 11.076C31.3679 11.6542 31.4385 12.2845 31.3403 12.8996C31.2421 13.5148 30.9788 14.0918 30.5784 14.569C30.0636 15.1828 29.3856 15.6385 28.6228 15.8833C28.4234 15.9487 28.2198 16.0006 28.0134 16.0387C27.9407 16.0476 27.8671 16.0476 27.7943 16.0387C27.7943 16.0148 28.0851 15.9749 28.5909 15.7758C29.3139 15.5019 29.9515 15.0416 30.439 14.4415C30.8027 13.986 31.0381 13.4416 31.1207 12.8646C31.2034 12.2875 31.1303 11.6989 30.909 11.1596C30.7693 10.8449 30.5643 10.5634 30.3074 10.3341C30.0506 10.1047 29.7479 9.93264 29.4194 9.82935C29.0645 9.70023 28.6836 9.65958 28.3095 9.71094C27.9354 9.7623 27.5795 9.90411 27.2726 10.1241L26.8743 10.4347L27.0416 9.9568C27.1856 9.49076 27.2085 8.99573 27.1081 8.51839C27.0078 8.04105 26.7875 7.59714 26.468 7.22852C26.1359 6.84133 25.6943 6.56365 25.2015 6.43194C24.6882 6.30318 24.1494 6.31834 23.6442 6.47576C23.038 6.65285 22.5117 7.0342 22.1546 7.55512L22.0908 7.65469L21.9753 7.62283C20.9679 7.3427 19.8906 7.47002 18.9762 7.97731C18.1203 8.42851 17.4722 9.19359 17.168 10.1121C16.9027 10.9425 16.9027 11.8348 17.168 12.6652C17.3998 13.3843 17.8425 14.017 18.4385 14.4814C19.3217 15.138 20.4265 15.4239 21.5173 15.2779C21.9174 15.2131 22.3107 15.1118 22.6923 14.9752Z" fill="#263238"/>
<path d="M1.66465 29.7455C1.66465 29.7455 1.62084 29.6938 1.55313 29.5783C1.45597 29.4096 1.37464 29.2322 1.31017 29.0485C0.989488 28.1743 0.915732 27.2287 1.097 26.3154C1.27826 25.402 1.70754 24.5563 2.33776 23.8708C2.83045 23.3465 3.4253 22.9286 4.08563 22.643C4.74596 22.3574 5.4578 22.21 6.17726 22.2099L6.0299 22.3135C6.53982 20.8914 7.5452 19.7008 8.86173 18.9599C9.85819 18.4027 10.9915 18.1377 12.1317 18.1952C13.1694 18.2452 14.1783 18.5532 15.0671 19.0913H14.9078C15.8758 18.4221 16.9985 18.0108 18.1697 17.8964C19.0729 17.8039 19.9855 17.885 20.8582 18.1354C21.4186 18.2939 21.9546 18.5284 22.4513 18.8324C22.6325 18.9341 22.7998 19.0586 22.9492 19.2028C22.2765 18.8121 21.5563 18.5096 20.8064 18.3027C19.9516 18.0883 19.0648 18.0316 18.1897 18.1354C17.0653 18.2664 15.9917 18.6772 15.0671 19.3303L14.9914 19.3821L14.9078 19.3343C14.0608 18.8327 13.1031 18.5481 12.1197 18.5058C11.0413 18.4544 9.96974 18.704 9.02503 19.2267C7.77452 19.9338 6.81706 21.0635 6.32463 22.413L6.28878 22.5166H6.18124C5.50192 22.5142 4.82907 22.6487 4.20291 22.9122C3.57675 23.1756 3.01013 23.5626 2.5369 24.05C1.78792 24.8332 1.32124 25.8436 1.2106 26.9217C1.13555 27.6318 1.20464 28.3498 1.41373 29.0326C1.56508 29.5105 1.69651 29.7455 1.66465 29.7455Z" fill="#263238"/>
<path d="M34.3883 46.2527C34.4236 45.9008 34.5813 45.5725 34.8339 45.325C35.0865 45.0775 35.4179 44.9266 35.7704 44.8985C36.0299 44.8963 36.2861 44.9576 36.5165 45.077C36.747 45.1964 36.9448 45.3703 37.0927 45.5836C37.2357 45.7994 37.3341 46.0417 37.382 46.2962C37.4298 46.5506 37.4263 46.8121 37.3715 47.0652V47.1767C37.1696 47.467 36.8829 47.6878 36.5507 47.809C36.2185 47.9302 35.8569 47.9459 35.5155 47.8538C35.1762 47.7505 34.8811 47.5369 34.6769 47.2468C34.4727 46.9568 34.3712 46.6069 34.3883 46.2527Z" fill="#56352E"/>
<path d="M38.1978 47.0785C38.1739 46.9033 37.0268 47.1223 36.0191 46.2819C35.0115 45.4415 34.9039 44.2108 34.7446 44.2347C34.6689 44.2347 34.5734 44.5494 34.657 45.0671C34.7789 45.7419 35.1342 46.3524 35.6607 46.7917C36.1654 47.2124 36.8136 47.4209 37.4689 47.3732C37.9588 47.3374 38.2177 47.1542 38.1978 47.0785Z" fill="#263238"/>
</g>
<rect x="1" y="1" width="62" height="62" rx="31" stroke="#576CBE" stroke-width="2"/>
<defs>
<clipPath id="clip0_5282_69314">
<rect width="64" height="64" rx="32" fill="white"/>
</clipPath>
</defs>
</svg>
